SplineFontDB: 3.0
FontName: Judson-Bold
FullName: Judson Bold
FamilyName: Judson
Weight: Bold
Copyright: Copyright (c) 2010, 2011 by Daniel Johnson. Released under the terms of the SIL Open Font License v1.1.
Version: 20110429
ItalicAngle: 0
UnderlinePosition: -100
UnderlineWidth: 50
Ascent: 800
Descent: 200
LayerCount: 2
Layer: 0 1 "Back"  1
Layer: 1 1 "Fore"  0
XUID: [1021 288 713564382 11351423]
FSType: 0
OS2Version: 2
OS2_WeightWidthSlopeOnly: 0
OS2_UseTypoMetrics: 1
CreationTime: 1282656651
ModificationTime: 1304074955
PfmFamily: 17
TTFWeight: 700
TTFWidth: 5
LineGap: 0
VLineGap: 0
Panose: 2 0 8 3 0 0 0 0 0 0
OS2TypoAscent: 908
OS2TypoAOffset: 0
OS2TypoDescent: -255
OS2TypoDOffset: 0
OS2TypoLinegap: 0
OS2WinAscent: 908
OS2WinAOffset: 0
OS2WinDescent: 255
OS2WinDOffset: 0
HheadAscent: 908
HheadAOffset: 0
HheadDescent: -255
HheadDOffset: 0
OS2SubXSize: 650
OS2SubYSize: 699
OS2SubXOff: 0
OS2SubYOff: 140
OS2SupXSize: 650
OS2SupYSize: 699
OS2SupXOff: 0
OS2SupYOff: 479
OS2StrikeYSize: 49
OS2StrikeYPos: 258
OS2Vendor: 'PfEd'
OS2CodePages: 00000093.00000000
OS2UnicodeRanges: a00000ff.5000000b.00000000.00000000
Lookup: 260 0 0 "'abvm' Above Base Mark lookup 0"  {"'abvm' Above Base Mark lookup 0 subtable"  } ['abvm' ('DFLT' <'dflt' > 'grek' <'dflt' > 'latn' <'dflt' > ) ]
Lookup: 260 0 0 "'blwm' Below Base Mark lookup 1"  {"'blwm' Below Base Mark lookup 1 subtable"  } ['blwm' ('DFLT' <'dflt' > 'grek' <'dflt' > 'latn' <'dflt' > ) ]
Lookup: 260 0 0 "'mark' Mark Positioning lookup 2"  {"'mark' Mark Positioning lookup 2 subtable"  } ['mark' ('DFLT' <'dflt' > 'grek' <'dflt' > 'latn' <'dflt' > ) ]
Lookup: 262 0 0 "'mkmk' Mark to Mark lookup 3"  {"'mkmk' Mark to Mark lookup 3 subtable"  } ['mkmk' ('DFLT' <'dflt' > 'grek' <'dflt' > 'latn' <'dflt' > ) ]
Lookup: 258 0 0 "'kern' Horizontal Kerning in Latin lookup 4"  {"'kern' Horizontal Kerning in Latin lookup 4 per glyph data 0"  "'kern' Horizontal Kerning in Latin lookup 4 kerning class 1"  } ['kern' ('latn' <'dflt' > ) ]

StartChar: .notdef
Encoding: 65536 -1 0
Width: 514
Flags: W
LayerCount: 2
Fore
SplineSet
57 0 m 1,0,-1
 57 533 l 1,1,-1
 457 533 l 1,2,-1
 457 0 l 1,3,-1
 57 0 l 1,0,-1
107 50 m 1,4,-1
 407 50 l 1,5,-1
 407 483 l 1,6,-1
 107 483 l 1,7,-1
 107 50 l 1,4,-1
EndSplineSet
EndChar

StartChar: exclam
Encoding: 33 33 4
Width: 235
GlyphClass: 2
Flags: W
LayerCount: 2
Fore
SplineSet
49 52 m 0,0,1
 49 81 49 81 69.5 98.5 c 128,-1,2
 90 116 90 116 117 116 c 0,3,4
 141 116 141 116 164 99.5 c 128,-1,5
 187 83 187 83 187 55 c 0,6,7
 187 26 187 26 166 8 c 128,-1,8
 145 -10 145 -10 118 -10 c 0,9,10
 94 -10 94 -10 71.5 7 c 128,-1,11
 49 24 49 24 49 52 c 0,0,1
117 206 m 128,-1,13
 91 206 91 206 77 306 c 0,14,15
 51 488 51 488 51 562 c 0,16,17
 51 596 51 596 71.5 613 c 128,-1,18
 92 630 92 630 117 630 c 128,-1,19
 142 630 142 630 162.5 613 c 128,-1,20
 183 596 183 596 183 562 c 0,21,22
 183 526 183 526 172 429.5 c 128,-1,23
 161 333 161 333 157 306 c 0,24,12
 143 206 143 206 117 206 c 128,-1,13
EndSplineSet
EndChar

StartChar: quotedbl
Encoding: 34 34 5
Width: 355
GlyphClass: 2
Flags: W
LayerCount: 2
Fore
SplineSet
265 374 m 128,-1,1
 250 374 250 374 227.5 473 c 128,-1,2
 205 572 205 572 205 620 c 0,3,4
 205 642 205 642 223.5 653.5 c 128,-1,5
 242 665 242 665 265 665 c 128,-1,6
 288 665 288 665 306.5 653.5 c 128,-1,7
 325 642 325 642 325 620 c 0,8,9
 325 572 325 572 302.5 473 c 128,-1,0
 280 374 280 374 265 374 c 128,-1,1
90 374 m 128,-1,11
 75 374 75 374 52.5 473 c 128,-1,12
 30 572 30 572 30 620 c 0,13,14
 30 642 30 642 48.5 653.5 c 128,-1,15
 67 665 67 665 90 665 c 128,-1,16
 113 665 113 665 131.5 653.5 c 128,-1,17
 150 642 150 642 150 620 c 0,18,19
 150 572 150 572 127.5 473 c 128,-1,10
 105 374 105 374 90 374 c 128,-1,11
EndSplineSet
EndChar

StartChar: numbersign
Encoding: 35 35 6
Width: 500
GlyphClass: 2
Flags: W
LayerCount: 2
Fore
SplineSet
455 230 m 1,0,-1
 455 196 l 1,1,-1
 345 196 l 1,2,-1
 318 0 l 1,3,-1
 258 0 l 1,4,-1
 285 196 l 1,5,-1
 180 196 l 1,6,-1
 153 0 l 1,7,-1
 93 0 l 1,8,-1
 120 196 l 1,9,-1
 30 196 l 1,10,-1
 30 230 l 1,11,-1
 125 230 l 1,12,-1
 143 356 l 1,13,-1
 45 356 l 1,14,-1
 45 390 l 1,15,-1
 148 390 l 1,16,-1
 175 585 l 1,17,-1
 235 585 l 1,18,-1
 208 390 l 1,19,-1
 313 390 l 1,20,-1
 340 585 l 1,21,-1
 400 585 l 1,22,-1
 373 390 l 1,23,-1
 470 390 l 1,24,-1
 470 356 l 1,25,-1
 368 356 l 1,26,-1
 350 230 l 1,27,-1
 455 230 l 1,0,-1
185 230 m 1,28,-1
 290 230 l 1,29,-1
 308 356 l 1,30,-1
 203 356 l 1,31,-1
 185 230 l 1,28,-1
EndSplineSet
EndChar

StartChar: dollar
Encoding: 36 36 7
Width: 443
GlyphClass: 2
Flags: W
LayerCount: 2
Fore
SplineSet
46 56 m 1,0,-1
 46 158 l 1,1,-1
 68 158 l 1,2,3
 76 105 76 105 117.5 69.5 c 128,-1,4
 159 34 159 34 203 26 c 1,5,-1
 203 239 l 1,6,-1
 172 260 l 1,7,8
 47 346 47 346 47 440 c 0,9,10
 47 498 47 498 95 545.5 c 128,-1,11
 143 593 143 593 203 595 c 1,12,-1
 203 630 l 1,13,-1
 243 630 l 1,14,-1
 243 592 l 1,15,16
 272 587 272 587 299 575 c 128,-1,17
 326 563 326 563 339 554 c 2,18,-1
 352 544 l 1,19,-1
 360 434 l 1,20,-1
 338 434 l 1,21,22
 334 466 334 466 305 501 c 128,-1,23
 276 536 276 536 243 552 c 1,24,-1
 243 361 l 1,25,-1
 272 342 l 2,26,27
 338 299 338 299 375.5 254.5 c 128,-1,28
 413 210 413 210 413 148 c 0,29,30
 413 79 413 79 361.5 37.5 c 128,-1,31
 310 -4 310 -4 243 -9 c 1,32,-1
 243 -42 l 1,33,-1
 203 -42 l 1,34,-1
 203 -9 l 1,35,36
 153 -6 153 -6 113.5 10.5 c 128,-1,37
 74 27 74 27 60 42 c 2,38,-1
 46 56 l 1,0,-1
203 387 m 1,39,-1
 203 561 l 1,40,41
 165 559 165 559 145.5 530.5 c 128,-1,42
 126 502 126 502 126 472 c 0,43,44
 126 438 126 438 203 387 c 1,39,-1
243 213 m 1,45,-1
 243 26 l 1,46,47
 278 32 278 32 299.5 57.5 c 128,-1,48
 321 83 321 83 321 120 c 0,49,50
 321 159 321 159 243 213 c 1,45,-1
EndSplineSet
EndChar

StartChar: percent
Encoding: 37 37 8
Width: 540
GlyphClass: 2
Flags: W
LayerCount: 2
Fore
SplineSet
459 565 m 1,0,-1
 122 20 l 1,1,-1
 82 20 l 1,2,-1
 419 565 l 1,3,-1
 459 565 l 1,0,-1
113 466 m 128,-1,5
 113 431 113 431 123.5 404.5 c 128,-1,6
 134 378 134 378 151 378 c 128,-1,7
 168 378 168 378 178.5 404.5 c 128,-1,8
 189 431 189 431 189 466 c 128,-1,9
 189 501 189 501 178.5 527.5 c 128,-1,10
 168 554 168 554 151 554 c 128,-1,11
 134 554 134 554 123.5 527.5 c 128,-1,4
 113 501 113 501 113 466 c 128,-1,5
29 466 m 128,-1,13
 29 515 29 515 68 551.5 c 128,-1,14
 107 588 107 588 151 588 c 128,-1,15
 195 588 195 588 234 551.5 c 128,-1,16
 273 515 273 515 273 466 c 128,-1,17
 273 417 273 417 234 380.5 c 128,-1,18
 195 344 195 344 151 344 c 128,-1,19
 107 344 107 344 68 380.5 c 128,-1,12
 29 417 29 417 29 466 c 128,-1,13
351 119 m 128,-1,21
 351 84 351 84 361.5 57.5 c 128,-1,22
 372 31 372 31 389 31 c 128,-1,23
 406 31 406 31 416.5 57.5 c 128,-1,24
 427 84 427 84 427 119 c 128,-1,25
 427 154 427 154 416.5 180.5 c 128,-1,26
 406 207 406 207 389 207 c 128,-1,27
 372 207 372 207 361.5 180.5 c 128,-1,20
 351 154 351 154 351 119 c 128,-1,21
267 119 m 128,-1,29
 267 168 267 168 306 204.5 c 128,-1,30
 345 241 345 241 389 241 c 128,-1,31
 433 241 433 241 472 204.5 c 128,-1,32
 511 168 511 168 511 119 c 128,-1,33
 511 70 511 70 472 33.5 c 128,-1,34
 433 -3 433 -3 389 -3 c 128,-1,35
 345 -3 345 -3 306 33.5 c 128,-1,28
 267 70 267 70 267 119 c 128,-1,29
EndSplineSet
EndChar

StartChar: ampersand
Encoding: 38 38 9
Width: 607
GlyphClass: 2
Flags: W
LayerCount: 2
Fore
SplineSet
289 560 m 0,0,1
 271 560 271 560 253.5 533 c 128,-1,2
 236 506 236 506 236 466 c 0,3,4
 236 424 236 424 260 357 c 1,5,6
 337 411 337 411 337 469 c 0,7,8
 337 506 337 506 324.5 533 c 128,-1,9
 312 560 312 560 289 560 c 0,0,1
580 345 m 1,10,-1
 580 324 l 1,11,12
 523 324 523 324 517 304 c 0,13,14
 471 161 471 161 413 87 c 1,15,16
 453 44 453 44 482 44 c 0,17,18
 520 44 520 44 534.5 51 c 128,-1,19
 549 58 549 58 565 81 c 1,20,-1
 577 71 l 1,21,22
 563 33 563 33 540 11.5 c 128,-1,23
 517 -10 517 -10 474 -10 c 0,24,25
 419 -10 419 -10 360 34 c 1,26,27
 301 -10 301 -10 229 -10 c 0,28,29
 19 -10 19 -10 19 127 c 0,30,31
 19 182 19 182 59 221 c 128,-1,32
 99 260 99 260 174 304 c 1,33,34
 130 409 130 409 130 474 c 0,35,36
 130 506 130 506 141 529.5 c 128,-1,37
 152 553 152 553 167 565 c 128,-1,38
 182 577 182 577 203 584 c 128,-1,39
 224 591 224 591 238.5 593 c 128,-1,40
 253 595 253 595 269 595 c 0,41,42
 318 595 318 595 348.5 560.5 c 128,-1,43
 379 526 379 526 379 481 c 0,44,45
 379 428 379 428 352 390.5 c 128,-1,46
 325 353 325 353 276 317 c 1,47,48
 322 203 322 203 388 117 c 1,49,50
 442 197 442 197 471 305 c 1,51,52
 462 324 462 324 408 324 c 1,53,-1
 408 345 l 1,54,-1
 580 345 l 1,10,-1
333 57 m 1,55,56
 257 129 257 129 194 258 c 1,57,58
 164 233 164 233 150 210.5 c 128,-1,59
 136 188 136 188 136 154 c 0,60,61
 136 95 136 95 175 63.5 c 128,-1,62
 214 32 214 32 266 32 c 0,63,64
 300 32 300 32 333 57 c 1,55,56
EndSplineSet
EndChar

StartChar: quotesingle
Encoding: 39 39 10
Width: 180
GlyphClass: 2
Flags: W
LayerCount: 2
Fore
SplineSet
90 374 m 128,-1,1
 75 374 75 374 52.5 473 c 128,-1,2
 30 572 30 572 30 620 c 0,3,4
 30 642 30 642 48.5 653.5 c 128,-1,5
 67 665 67 665 90 665 c 128,-1,6
 113 665 113 665 131.5 653.5 c 128,-1,7
 150 642 150 642 150 620 c 0,8,9
 150 572 150 572 127.5 473 c 128,-1,0
 105 374 105 374 90 374 c 128,-1,1
EndSplineSet
EndChar

StartChar: parenleft
Encoding: 40 40 11
Width: 251
GlyphClass: 2
Flags: W
LayerCount: 2
Fore
SplineSet
30 315 m 0,0,1
 30 451 30 451 129 605 c 0,2,3
 177 680 177 680 202 680 c 0,4,5
 211 680 211 680 211 669 c 0,6,7
 211 668 211 668 207 661.5 c 128,-1,8
 203 655 203 655 197 642 c 128,-1,9
 191 629 191 629 187 615 c 0,10,11
 171 564 171 564 157.5 479 c 128,-1,12
 144 394 144 394 144 315 c 128,-1,13
 144 236 144 236 157.5 151 c 128,-1,14
 171 66 171 66 187 15 c 0,15,16
 191 1 191 1 197 -12 c 128,-1,17
 203 -25 203 -25 207 -31.5 c 128,-1,18
 211 -38 211 -38 211 -39 c 0,19,20
 211 -50 211 -50 202 -50 c 0,21,22
 176 -50 176 -50 128 25 c 0,23,24
 30 177 30 177 30 315 c 0,0,1
EndSplineSet
EndChar

StartChar: parenright
Encoding: 41 41 12
Width: 250
GlyphClass: 2
Flags: W
LayerCount: 2
Fore
SplineSet
220 315 m 0,0,1
 220 179 220 179 121 25 c 0,2,3
 73 -50 73 -50 48 -50 c 0,4,5
 39 -50 39 -50 39 -39 c 0,6,7
 39 -38 39 -38 43 -31.5 c 128,-1,8
 47 -25 47 -25 53 -12 c 128,-1,9
 59 1 59 1 63 15 c 0,10,11
 79 66 79 66 92.5 151 c 128,-1,12
 106 236 106 236 106 315 c 128,-1,13
 106 394 106 394 92.5 479 c 128,-1,14
 79 564 79 564 63 615 c 0,15,16
 59 629 59 629 53 642 c 128,-1,17
 47 655 47 655 43 661.5 c 128,-1,18
 39 668 39 668 39 669 c 0,19,20
 39 680 39 680 48 680 c 0,21,22
 74 680 74 680 122 605 c 0,23,24
 220 453 220 453 220 315 c 0,0,1
EndSplineSet
EndChar

StartChar: asterisk
Encoding: 42 42 13
Width: 352
GlyphClass: 2
Flags: W
LayerCount: 2
Fore
SplineSet
124 358 m 0,0,1
 106 358 106 358 89.5 373 c 128,-1,2
 73 388 73 388 73 404 c 0,3,4
 73 414 73 414 79 423 c 0,5,6
 85 431 85 431 116 446 c 128,-1,7
 147 461 147 461 158 462 c 1,8,9
 149 470 149 470 149 481 c 0,10,11
 149 482 149 482 149.5 484 c 128,-1,12
 150 486 150 486 150 487 c 1,13,14
 142 482 142 482 114.5 476 c 128,-1,15
 87 470 87 470 71 470 c 0,16,17
 56 470 56 470 48 480.5 c 128,-1,18
 40 491 40 491 40 505 c 0,19,20
 40 525 40 525 52 541 c 128,-1,21
 64 557 64 557 80 557 c 0,22,23
 82 557 82 557 90 555 c 0,24,25
 100 552 100 552 123.5 527.5 c 128,-1,26
 147 503 147 503 151 492 c 1,27,28
 158 505 158 505 173 507 c 1,29,30
 165 513 165 513 148 544 c 128,-1,31
 131 575 131 575 131 585 c 0,32,33
 131 601 131 601 143.5 610.5 c 128,-1,34
 156 620 156 620 175 620 c 128,-1,35
 194 620 194 620 206.5 610.5 c 128,-1,36
 219 601 219 601 219 585 c 0,37,38
 219 575 219 575 202 544 c 128,-1,39
 185 513 185 513 177 507 c 1,40,41
 193 505 193 505 199 491 c 1,42,43
 201 500 201 500 226 526 c 128,-1,44
 251 552 251 552 261 555 c 0,45,46
 269 557 269 557 272 557 c 0,47,48
 287 557 287 557 299 541.5 c 128,-1,49
 311 526 311 526 311 506 c 0,50,51
 311 492 311 492 303 481 c 128,-1,52
 295 470 295 470 280 470 c 0,53,54
 263 470 263 470 235 476 c 128,-1,55
 207 482 207 482 200 487 c 1,56,57
 201 485 201 485 201 481 c 0,58,59
 201 471 201 471 192 462 c 1,60,61
 203 462 203 462 235 446.5 c 128,-1,62
 267 431 267 431 273 423 c 0,63,64
 279 414 279 414 279 405 c 0,65,66
 279 388 279 388 262 373 c 128,-1,67
 245 358 245 358 226 358 c 0,68,69
 210 358 210 358 201 371 c 0,70,71
 196 377 196 377 192 403 c 128,-1,72
 188 429 188 429 188 448 c 0,73,74
 188 457 188 457 189 459 c 1,75,76
 184 455 184 455 175 455 c 0,77,78
 168 455 168 455 162 458 c 1,79,80
 163 455 163 455 163 446 c 0,81,82
 163 388 163 388 150 371 c 0,83,84
 140 358 140 358 124 358 c 0,0,1
EndSplineSet
EndChar

StartChar: plus
Encoding: 43 43 14
Width: 404
GlyphClass: 2
Flags: W
LayerCount: 2
Fore
SplineSet
228 292 m 1,0,-1
 228 151 l 1,1,-1
 176 151 l 1,2,-1
 176 292 l 1,3,-1
 35 292 l 1,4,-1
 35 344 l 1,5,-1
 176 344 l 1,6,-1
 176 485 l 1,7,-1
 228 485 l 1,8,-1
 228 344 l 1,9,-1
 369 344 l 1,10,-1
 369 292 l 1,11,-1
 228 292 l 1,0,-1
EndSplineSet
EndChar

StartChar: comma
Encoding: 44 44 15
Width: 224
GlyphClass: 2
Flags: W
LayerCount: 2
Fore
SplineSet
96 -10 m 0,0,1
 71 -10 71 -10 56 5 c 128,-1,2
 41 20 41 20 41 43 c 0,3,4
 41 73 41 73 62 88.5 c 128,-1,5
 83 104 83 104 102 104 c 0,6,7
 187 104 187 104 187 -6 c 0,8,9
 187 -55 187 -55 146 -93 c 128,-1,10
 105 -131 105 -131 55 -134 c 1,11,-1
 55 -98 l 1,12,13
 91 -90 91 -90 113 -65.5 c 128,-1,14
 135 -41 135 -41 135 -18 c 0,15,16
 135 3 135 3 127 3 c 0,17,18
 126 3 126 3 122 -0.5 c 128,-1,19
 118 -4 118 -4 111 -7 c 128,-1,20
 104 -10 104 -10 96 -10 c 0,0,1
EndSplineSet
EndChar

StartChar: hyphen
Encoding: 45 45 16
Width: 372
GlyphClass: 2
Flags: W
LayerCount: 2
Fore
SplineSet
54 340 m 1,0,-1
 318 340 l 1,1,-1
 318 296 l 1,2,-1
 54 296 l 1,3,-1
 54 340 l 1,0,-1
EndSplineSet
EndChar

StartChar: period
Encoding: 46 46 17
Width: 220
GlyphClass: 2
Flags: W
LayerCount: 2
Fore
SplineSet
41 52 m 0,0,1
 41 81 41 81 61.5 98.5 c 128,-1,2
 82 116 82 116 109 116 c 0,3,4
 133 116 133 116 156 99.5 c 128,-1,5
 179 83 179 83 179 55 c 0,6,7
 179 26 179 26 158 8 c 128,-1,8
 137 -10 137 -10 110 -10 c 0,9,10
 86 -10 86 -10 63.5 7 c 128,-1,11
 41 24 41 24 41 52 c 0,0,1
EndSplineSet
EndChar

StartChar: slash
Encoding: 47 47 18
Width: 474
GlyphClass: 2
Flags: W
LayerCount: 2
Fore
SplineSet
18 -10 m 1,0,-1
 407 612 l 1,1,-1
 456 594 l 1,2,-1
 67 -28 l 1,3,-1
 18 -10 l 1,0,-1
EndSplineSet
EndChar

StartChar: zero
Encoding: 48 48 19
Width: 490
GlyphClass: 2
Flags: W
LayerCount: 2
Fore
SplineSet
159 292 m 0,0,1
 159 21 159 21 245 21 c 128,-1,2
 331 21 331 21 331 292 c 0,3,4
 331 564 331 564 245 564 c 128,-1,5
 159 564 159 564 159 292 c 0,0,1
30 292 m 128,-1,7
 30 418 30 418 88.5 506.5 c 128,-1,8
 147 595 147 595 245 595 c 128,-1,9
 343 595 343 595 401.5 506.5 c 128,-1,10
 460 418 460 418 460 292 c 128,-1,11
 460 166 460 166 401.5 78 c 128,-1,12
 343 -10 343 -10 245 -10 c 128,-1,13
 147 -10 147 -10 88.5 78 c 128,-1,6
 30 166 30 166 30 292 c 128,-1,7
EndSplineSet
EndChar

StartChar: one
Encoding: 49 49 20
Width: 490
GlyphClass: 2
Flags: W
LayerCount: 2
Fore
SplineSet
338 585 m 1,0,-1
 338 61 l 2,1,2
 338 40 338 40 371 30.5 c 128,-1,3
 404 21 404 21 445 21 c 1,4,-1
 445 0 l 1,5,-1
 107 0 l 1,6,-1
 107 21 l 1,7,8
 148 21 148 21 181 30.5 c 128,-1,9
 214 40 214 40 214 61 c 2,10,-1
 214 435 l 1,11,12
 163 402 163 402 124 372 c 1,13,-1
 117 389 l 1,14,-1
 295 585 l 1,15,-1
 338 585 l 1,0,-1
EndSplineSet
EndChar

StartChar: two
Encoding: 50 50 21
Width: 490
GlyphClass: 2
Flags: W
LayerCount: 2
Fore
SplineSet
40 0 m 1,0,1
 40 17 40 17 67.5 53 c 128,-1,2
 95 89 95 89 134.5 132.5 c 128,-1,3
 174 176 174 176 213 223.5 c 128,-1,4
 252 271 252 271 279.5 322.5 c 128,-1,5
 307 374 307 374 307 414 c 0,6,7
 307 458 307 458 284 496.5 c 128,-1,8
 261 535 261 535 226 535 c 0,9,10
 183 535 183 535 149 520 c 128,-1,11
 115 505 115 505 100 487 c 128,-1,12
 85 469 85 469 73.5 454 c 128,-1,13
 62 439 62 439 58 439 c 0,14,15
 50 439 50 439 50 449 c 0,16,17
 50 460 50 460 62.5 482 c 128,-1,18
 75 504 75 504 98.5 530 c 128,-1,19
 122 556 122 556 163.5 575.5 c 128,-1,20
 205 595 205 595 254 595 c 0,21,22
 346 595 346 595 390 551.5 c 128,-1,23
 434 508 434 508 434 445 c 0,24,25
 434 407 434 407 396 350.5 c 128,-1,26
 358 294 358 294 313 247.5 c 128,-1,27
 268 201 268 201 230 158.5 c 128,-1,28
 192 116 192 116 192 102 c 1,29,-1
 373 102 l 2,30,31
 385 102 385 102 396.5 111.5 c 128,-1,32
 408 121 408 121 413 128.5 c 128,-1,33
 418 136 418 136 430 154 c 1,34,-1
 450 154 l 1,35,-1
 424 0 l 1,36,-1
 40 0 l 1,0,1
EndSplineSet
EndChar

StartChar: three
Encoding: 51 51 22
Width: 490
GlyphClass: 2
Flags: W
LayerCount: 2
Fore
SplineSet
212 288 m 2,0,1
 205 288 205 288 199 292 c 128,-1,2
 193 296 193 296 193 301 c 0,3,4
 193 305 193 305 200 308 c 0,5,6
 294 336 294 336 294 433 c 0,7,8
 294 479 294 479 271 507 c 128,-1,9
 248 535 248 535 203 535 c 0,10,11
 171 535 171 535 147 523 c 128,-1,12
 123 511 123 511 113 496 c 128,-1,13
 103 481 103 481 95 469 c 128,-1,14
 87 457 87 457 83 457 c 0,15,16
 75 457 75 457 75 467 c 0,17,18
 75 478 75 478 84 497 c 128,-1,19
 93 516 93 516 110.5 539 c 128,-1,20
 128 562 128 562 160.5 578.5 c 128,-1,21
 193 595 193 595 233 595 c 0,22,23
 415 595 415 595 415 446 c 0,24,25
 415 379 415 379 324 327 c 1,26,27
 372 314 372 314 407 271 c 128,-1,28
 442 228 442 228 442 180 c 0,29,30
 442 95 442 95 397 42.5 c 128,-1,31
 352 -10 352 -10 236 -10 c 0,32,33
 195 -10 195 -10 158 0 c 128,-1,34
 121 10 121 10 98 24 c 128,-1,35
 75 38 75 38 61.5 51.5 c 128,-1,36
 48 65 48 65 48 72 c 0,37,38
 48 102 48 102 55.5 114 c 128,-1,39
 63 126 63 126 84 126 c 0,40,41
 101 126 101 126 115.5 109.5 c 128,-1,42
 130 93 130 93 139.5 73.5 c 128,-1,43
 149 54 149 54 170 37.5 c 128,-1,44
 191 21 191 21 220 21 c 0,45,46
 264 21 264 21 294 54.5 c 128,-1,47
 324 88 324 88 324 160 c 0,48,49
 324 217 324 217 302.5 252.5 c 128,-1,50
 281 288 281 288 241 288 c 2,51,-1
 212 288 l 2,0,1
EndSplineSet
EndChar

StartChar: four
Encoding: 52 52 23
Width: 490
GlyphClass: 2
Flags: W
LayerCount: 2
Fore
SplineSet
366 585 m 1,0,-1
 366 205 l 1,1,-1
 447 205 l 1,2,-1
 447 175 l 1,3,-1
 366 175 l 1,4,-1
 366 41 l 1,5,6
 375 21 375 21 429 21 c 1,7,-1
 429 0 l 1,8,-1
 178 0 l 1,9,-1
 178 21 l 1,10,11
 232 21 232 21 241 41 c 1,12,-1
 241 175 l 1,13,-1
 44 175 l 1,14,-1
 320 585 l 1,15,-1
 366 585 l 1,0,-1
241 205 m 1,16,-1
 241 413 l 1,17,-1
 100 205 l 1,18,-1
 241 205 l 1,16,-1
EndSplineSet
EndChar

StartChar: five
Encoding: 53 53 24
Width: 490
GlyphClass: 2
Flags: W
LayerCount: 2
Fore
SplineSet
143 385 m 1,0,1
 225 385 225 385 287 365 c 128,-1,2
 349 345 349 345 380.5 314 c 128,-1,3
 412 283 412 283 427 252 c 128,-1,4
 442 221 442 221 442 192 c 0,5,6
 442 -10 442 -10 248 -10 c 0,7,8
 186 -10 186 -10 137 7.5 c 128,-1,9
 88 25 88 25 68 43 c 128,-1,10
 48 61 48 61 48 72 c 0,11,12
 48 102 48 102 55.5 114 c 128,-1,13
 63 126 63 126 84 126 c 0,14,15
 96 126 96 126 108.5 109.5 c 128,-1,16
 121 93 121 93 132 73.5 c 128,-1,17
 143 54 143 54 170 37.5 c 128,-1,18
 197 21 197 21 234 21 c 0,19,20
 324 21 324 21 324 172 c 0,21,22
 324 208 324 208 317 233 c 128,-1,23
 310 258 310 258 289 283 c 128,-1,24
 268 308 268 308 221 320.5 c 128,-1,25
 174 333 174 333 102 333 c 1,26,-1
 135 585 l 1,27,-1
 414 585 l 1,28,-1
 390 499 l 1,29,-1
 158 499 l 1,30,-1
 143 385 l 1,0,1
EndSplineSet
EndChar

StartChar: six
Encoding: 54 54 25
Width: 490
GlyphClass: 2
Flags: W
LayerCount: 2
Fore
SplineSet
173 354 m 1,0,1
 207 370 207 370 247 370 c 0,2,3
 452 370 452 370 452 188 c 0,4,5
 452 97 452 97 396.5 43.5 c 128,-1,6
 341 -10 341 -10 251 -10 c 0,7,8
 154 -10 154 -10 96 56.5 c 128,-1,9
 38 123 38 123 38 224 c 0,10,11
 38 308 38 308 69.5 380.5 c 128,-1,12
 101 453 101 453 148 498.5 c 128,-1,13
 195 544 195 544 244 571 c 128,-1,14
 293 598 293 598 335 603 c 1,15,-1
 348 569 l 1,16,17
 205 533 205 533 173 354 c 1,0,1
168 322 m 1,18,19
 163 284 163 284 163 224 c 0,20,21
 163 117 163 117 185 69.5 c 128,-1,22
 207 22 207 22 251 22 c 0,23,24
 327 22 327 22 327 196 c 0,25,26
 327 221 327 221 326.5 234.5 c 128,-1,27
 326 248 326 248 322 270.5 c 128,-1,28
 318 293 318 293 310.5 305 c 128,-1,29
 303 317 303 317 287 326.5 c 128,-1,30
 271 336 271 336 249 336 c 0,31,32
 196 336 196 336 168 322 c 1,18,19
EndSplineSet
EndChar

StartChar: seven
Encoding: 55 55 26
Width: 490
GlyphClass: 2
Flags: W
LayerCount: 2
Fore
SplineSet
174 16 m 0,0,1
 174 67 174 67 214 174 c 128,-1,2
 254 281 254 281 294.5 375 c 128,-1,3
 335 469 335 469 335 490 c 1,4,-1
 137 490 l 2,5,6
 124 490 124 490 106 471 c 128,-1,7
 88 452 88 452 78 426 c 1,8,-1
 58 426 l 1,9,-1
 96 585 l 1,10,-1
 432 585 l 1,11,12
 432 570 432 570 389 463 c 128,-1,13
 346 356 346 356 303 223.5 c 128,-1,14
 260 91 260 91 260 16 c 0,15,16
 260 7 260 7 248 -1.5 c 128,-1,17
 236 -10 236 -10 216 -10 c 128,-1,18
 196 -10 196 -10 185 -1.5 c 128,-1,19
 174 7 174 7 174 16 c 0,0,1
EndSplineSet
EndChar

StartChar: eight
Encoding: 56 56 27
Width: 490
GlyphClass: 2
Flags: W
LayerCount: 2
Fore
SplineSet
286 341 m 1,0,1
 351 386 351 386 351 478 c 0,2,3
 351 518 351 518 321 540 c 128,-1,4
 291 562 291 562 256 562 c 0,5,6
 156 562 156 562 156 481 c 0,7,8
 156 464 156 464 165.5 447 c 128,-1,9
 175 430 175 430 198 409.5 c 128,-1,10
 221 389 221 389 236 377.5 c 128,-1,11
 251 366 251 366 286 341 c 1,0,1
325 312 m 1,12,13
 442 223 442 223 442 144 c 0,14,15
 442 86 442 86 384.5 38 c 128,-1,16
 327 -10 327 -10 245 -10 c 0,17,18
 154 -10 154 -10 97 32 c 128,-1,19
 40 74 40 74 40 138 c 0,20,21
 40 233 40 233 163 300 c 1,22,23
 51 386 51 386 51 464 c 0,24,25
 51 518 51 518 102 554 c 128,-1,26
 153 590 153 590 237 590 c 0,27,28
 432 590 432 590 432 470 c 0,29,30
 432 376 432 376 325 312 c 1,12,13
201 271 m 1,31,32
 122 228 122 228 122 130 c 0,33,34
 122 84 122 84 155.5 56 c 128,-1,35
 189 28 189 28 226 28 c 0,36,37
 275 28 275 28 306 48.5 c 128,-1,38
 337 69 337 69 337 127 c 0,39,40
 337 173 337 173 217 259 c 0,41,42
 206 267 206 267 201 271 c 1,31,32
EndSplineSet
EndChar

StartChar: nine
Encoding: 57 57 28
Width: 490
GlyphClass: 2
Flags: W
LayerCount: 2
Fore
SplineSet
317 231 m 1,0,1
 283 215 283 215 243 215 c 0,2,3
 38 215 38 215 38 397 c 0,4,5
 38 488 38 488 93.5 541.5 c 128,-1,6
 149 595 149 595 239 595 c 0,7,8
 336 595 336 595 394 528.5 c 128,-1,9
 452 462 452 462 452 361 c 0,10,11
 452 277 452 277 420.5 204.5 c 128,-1,12
 389 132 389 132 342 86.5 c 128,-1,13
 295 41 295 41 246 14 c 128,-1,14
 197 -13 197 -13 155 -18 c 1,15,-1
 142 16 l 1,16,17
 285 52 285 52 317 231 c 1,0,1
322 263 m 1,18,19
 327 300 327 300 327 361 c 0,20,21
 327 468 327 468 305 515.5 c 128,-1,22
 283 563 283 563 239 563 c 0,23,24
 163 563 163 563 163 389 c 0,25,26
 163 364 163 364 163.5 350.5 c 128,-1,27
 164 337 164 337 168 314.5 c 128,-1,28
 172 292 172 292 179.5 280 c 128,-1,29
 187 268 187 268 203 258.5 c 128,-1,30
 219 249 219 249 241 249 c 0,31,32
 294 249 294 249 322 263 c 1,18,19
EndSplineSet
EndChar

StartChar: colon
Encoding: 58 58 29
Width: 246
GlyphClass: 2
Flags: W
LayerCount: 2
Fore
SplineSet
54 52 m 0,0,1
 54 81 54 81 74.5 98.5 c 128,-1,2
 95 116 95 116 122 116 c 0,3,4
 146 116 146 116 169 99.5 c 128,-1,5
 192 83 192 83 192 55 c 0,6,7
 192 26 192 26 171 8 c 128,-1,8
 150 -10 150 -10 123 -10 c 0,9,10
 99 -10 99 -10 76.5 7 c 128,-1,11
 54 24 54 24 54 52 c 0,0,1
54 382 m 0,12,13
 54 411 54 411 74.5 428.5 c 128,-1,14
 95 446 95 446 122 446 c 0,15,16
 146 446 146 446 169 429.5 c 128,-1,17
 192 413 192 413 192 385 c 0,18,19
 192 356 192 356 171 338 c 128,-1,20
 150 320 150 320 123 320 c 0,21,22
 99 320 99 320 76.5 337 c 128,-1,23
 54 354 54 354 54 382 c 0,12,13
EndSplineSet
EndChar

StartChar: semicolon
Encoding: 59 59 30
Width: 257
GlyphClass: 2
Flags: W
LayerCount: 2
Fore
SplineSet
112 -10 m 0,0,1
 87 -10 87 -10 72 5 c 128,-1,2
 57 20 57 20 57 43 c 0,3,4
 57 73 57 73 78 88.5 c 128,-1,5
 99 104 99 104 118 104 c 0,6,7
 203 104 203 104 203 -6 c 0,8,9
 203 -55 203 -55 162 -93 c 128,-1,10
 121 -131 121 -131 71 -134 c 1,11,-1
 71 -98 l 1,12,13
 107 -90 107 -90 129 -65.5 c 128,-1,14
 151 -41 151 -41 151 -18 c 0,15,16
 151 3 151 3 143 3 c 0,17,18
 142 3 142 3 138 -0.5 c 128,-1,19
 134 -4 134 -4 127 -7 c 128,-1,20
 120 -10 120 -10 112 -10 c 0,0,1
57 382 m 0,21,22
 57 411 57 411 77.5 428.5 c 128,-1,23
 98 446 98 446 125 446 c 0,24,25
 149 446 149 446 172 429.5 c 128,-1,26
 195 413 195 413 195 385 c 0,27,28
 195 356 195 356 174 338 c 128,-1,29
 153 320 153 320 126 320 c 0,30,31
 102 320 102 320 79.5 337 c 128,-1,32
 57 354 57 354 57 382 c 0,21,22
EndSplineSet
EndChar

StartChar: less
Encoding: 60 60 31
Width: 470
GlyphClass: 2
Flags: W
LayerCount: 2
Fore
SplineSet
29 343 m 1,0,-1
 407 520 l 1,1,-1
 407 469 l 1,2,-1
 94 318 l 1,3,-1
 407 167 l 1,4,-1
 407 116 l 1,5,-1
 29 293 l 1,6,-1
 29 343 l 1,0,-1
EndSplineSet
EndChar

StartChar: equal
Encoding: 61 61 32
Width: 486
GlyphClass: 2
Flags: W
LayerCount: 2
Fore
SplineSet
61 285 m 1,0,-1
 425 285 l 1,1,-1
 425 231 l 1,2,-1
 61 231 l 1,3,-1
 61 285 l 1,0,-1
61 405 m 1,4,-1
 425 405 l 1,5,-1
 425 351 l 1,6,-1
 61 351 l 1,7,-1
 61 405 l 1,4,-1
EndSplineSet
EndChar

StartChar: greater
Encoding: 62 62 33
Width: 470
GlyphClass: 2
Flags: W
LayerCount: 2
Fore
SplineSet
441 293 m 1,0,-1
 63 116 l 1,1,-1
 63 167 l 1,2,-1
 376 318 l 1,3,-1
 63 469 l 1,4,-1
 63 520 l 1,5,-1
 441 343 l 1,6,-1
 441 293 l 1,0,-1
EndSplineSet
EndChar

StartChar: question
Encoding: 63 63 34
Width: 426
GlyphClass: 2
Flags: W
LayerCount: 2
Fore
SplineSet
123 52 m 0,0,1
 123 81 123 81 143.5 98.5 c 128,-1,2
 164 116 164 116 191 116 c 0,3,4
 215 116 215 116 238 99.5 c 128,-1,5
 261 83 261 83 261 55 c 0,6,7
 261 26 261 26 240 8 c 128,-1,8
 219 -10 219 -10 192 -10 c 0,9,10
 168 -10 168 -10 145.5 7 c 128,-1,11
 123 24 123 24 123 52 c 0,0,1
171 200 m 0,12,13
 171 237 171 237 186.5 269.5 c 128,-1,14
 202 302 202 302 221 324 c 128,-1,15
 240 346 240 346 255.5 387 c 128,-1,16
 271 428 271 428 271 480 c 0,17,18
 271 533 271 533 248 566.5 c 128,-1,19
 225 600 225 600 186 600 c 0,20,21
 149 600 149 600 131 578 c 128,-1,22
 113 556 113 556 113 529 c 0,23,24
 113 517 113 517 120.5 503.5 c 128,-1,25
 128 490 128 490 128 479 c 0,26,27
 128 462 128 462 114 448.5 c 128,-1,28
 100 435 100 435 80 435 c 0,29,30
 55 435 55 435 41.5 451.5 c 128,-1,31
 28 468 28 468 28 496 c 0,32,33
 28 546 28 546 73.5 588 c 128,-1,34
 119 630 119 630 196 630 c 0,35,36
 294 630 294 630 345 588 c 128,-1,37
 396 546 396 546 396 475 c 0,38,39
 396 436 396 436 376.5 400.5 c 128,-1,40
 357 365 357 365 329.5 339 c 128,-1,41
 302 313 302 313 274 290.5 c 128,-1,42
 246 268 246 268 226.5 244.5 c 128,-1,43
 207 221 207 221 207 200 c 0,44,45
 207 195 207 195 200 190.5 c 128,-1,46
 193 186 193 186 189 186 c 128,-1,47
 185 186 185 186 178 190.5 c 128,-1,48
 171 195 171 195 171 200 c 0,12,13
EndSplineSet
EndChar

StartChar: at
Encoding: 64 64 35
Width: 619
GlyphClass: 2
Flags: W
LayerCount: 2
Fore
SplineSet
245 159 m 0,0,1
 207 159 207 159 186.5 188 c 128,-1,2
 166 217 166 217 166 259 c 0,3,4
 166 325 166 325 211.5 381 c 128,-1,5
 257 437 257 437 307 437 c 0,6,7
 351 437 351 437 373 396 c 1,8,-1
 381 426 l 1,9,-1
 449 426 l 1,10,-1
 390 203 l 2,11,12
 387 193 387 193 393 187.5 c 128,-1,13
 399 182 399 182 412 182 c 0,14,15
 445 182 445 182 471 215.5 c 128,-1,16
 497 249 497 249 507 283 c 128,-1,17
 517 317 517 317 517 338 c 0,18,19
 517 404 517 404 501.5 449.5 c 128,-1,20
 486 495 486 495 457.5 516 c 128,-1,21
 429 537 429 537 400.5 545 c 128,-1,22
 372 553 372 553 335 553 c 0,23,24
 234 553 234 553 158.5 482 c 128,-1,25
 83 411 83 411 83 288 c 0,26,27
 83 209 83 209 125 147.5 c 128,-1,28
 167 86 167 86 223 57.5 c 128,-1,29
 279 29 279 29 335 29 c 0,30,31
 380 29 380 29 419.5 43 c 128,-1,32
 459 57 459 57 482 72.5 c 128,-1,33
 505 88 505 88 527.5 115 c 128,-1,34
 550 142 550 142 556 152.5 c 128,-1,35
 562 163 562 163 573 182 c 1,36,-1
 589 174 l 1,37,38
 570 131 570 131 553.5 103.5 c 128,-1,39
 537 76 537 76 507.5 47 c 128,-1,40
 478 18 478 18 433.5 4 c 128,-1,41
 389 -10 389 -10 329 -10 c 0,42,43
 220 -10 220 -10 130.5 73.5 c 128,-1,44
 41 157 41 157 41 284 c 0,45,46
 41 426 41 426 127 510.5 c 128,-1,47
 213 595 213 595 331 595 c 0,48,49
 429 595 429 595 494 530.5 c 128,-1,50
 559 466 559 466 559 346 c 0,51,52
 559 319 559 319 548.5 286.5 c 128,-1,53
 538 254 538 254 518.5 221.5 c 128,-1,54
 499 189 499 189 464.5 167.5 c 128,-1,55
 430 146 430 146 388 146 c 0,56,57
 368 146 368 146 347.5 158 c 128,-1,58
 327 170 327 170 324 196 c 1,59,60
 285 159 285 159 245 159 c 0,0,1
347 338 m 0,61,62
 347 398 347 398 311 398 c 0,63,64
 290 398 290 398 262.5 355.5 c 128,-1,65
 235 313 235 313 235 270 c 0,66,67
 235 202 235 202 261 202 c 0,68,69
 297 202 297 202 322 243 c 128,-1,70
 347 284 347 284 347 338 c 0,61,62
EndSplineSet
EndChar

StartChar: A
Encoding: 65 65 36
Width: 566
GlyphClass: 2
Flags: W
AnchorPoint: "Anchor-5" 248 288 basechar 0
AnchorPoint: "Anchor-4" 256 0 basechar 0
AnchorPoint: "Anchor-3" 498 0 basechar 0
AnchorPoint: "Anchor-2" 444 0 basechar 0
AnchorPoint: "Anchor-1" 284 620 basechar 0
LayerCount: 2
Fore
SplineSet
329 0 m 1,0,-1
 329 21 l 1,1,2
 375 21 375 21 387 33 c 1,3,-1
 331 186 l 1,4,-1
 139 186 l 1,5,-1
 87 39 l 1,6,7
 97 21 97 21 149 21 c 1,8,-1
 149 0 l 1,9,-1
 -15 0 l 1,10,-1
 -15 21 l 1,11,12
 40 21 40 21 48 42 c 2,13,-1
 242 585 l 1,14,-1
 323 585 l 1,15,-1
 519 42 l 2,16,17
 526 21 526 21 583 21 c 1,18,-1
 583 0 l 1,19,-1
 329 0 l 1,0,-1
234 452 m 1,20,-1
 151 219 l 1,21,-1
 319 219 l 1,22,-1
 234 452 l 1,20,-1
EndSplineSet
EndChar

StartChar: B
Encoding: 66 66 37
Width: 599
GlyphClass: 2
Flags: W
AnchorPoint: "Anchor-5" 188 158 basechar 0
AnchorPoint: "Anchor-4" 275 0 basechar 0
AnchorPoint: "Anchor-1" 269 620 basechar 0
LayerCount: 2
Fore
SplineSet
36 0 m 1,0,-1
 36 21 l 1,1,2
 90 21 90 21 99 41 c 1,3,-1
 99 544 l 1,4,5
 90 564 90 564 36 564 c 1,6,-1
 36 585 l 1,7,-1
 275 585 l 2,8,9
 400 585 400 585 463.5 544 c 128,-1,10
 527 503 527 503 527 447 c 0,11,12
 527 341 527 341 413 306 c 1,13,14
 487 288 487 288 529 250 c 128,-1,15
 571 212 571 212 571 171 c 0,16,17
 571 95 571 95 510.5 47.5 c 128,-1,18
 450 0 450 0 331 0 c 2,19,-1
 36 0 l 1,0,-1
226 551 m 1,20,-1
 226 319 l 1,21,-1
 272 319 l 2,22,23
 344 319 344 319 368 350 c 128,-1,24
 392 381 392 381 392 446 c 0,25,26
 392 551 392 551 240 551 c 2,27,-1
 226 551 l 1,20,-1
226 290 m 1,28,-1
 226 34 l 1,29,-1
 296 34 l 2,30,31
 436 34 436 34 436 170 c 0,32,33
 436 217 436 217 401 253.5 c 128,-1,34
 366 290 366 290 284 290 c 2,35,-1
 226 290 l 1,28,-1
EndSplineSet
EndChar

StartChar: C
Encoding: 67 67 38
Width: 562
GlyphClass: 2
Flags: W
AnchorPoint: "Anchor-4" 342 0 basechar 0
AnchorPoint: "Anchor-2" 342 0 basechar 0
AnchorPoint: "Anchor-1" 344 620 basechar 0
LayerCount: 2
Fore
SplineSet
350 561 m 0,0,1
 266 561 266 561 220.5 492 c 128,-1,2
 175 423 175 423 175 306 c 0,3,4
 175 170 175 170 224 97 c 128,-1,5
 273 24 273 24 354 24 c 0,6,7
 403 24 403 24 443.5 57.5 c 128,-1,8
 484 91 484 91 499 132 c 1,9,-1
 540 120 l 1,10,11
 517 65 517 65 467.5 27.5 c 128,-1,12
 418 -10 418 -10 334 -10 c 0,13,14
 200 -10 200 -10 118 77 c 128,-1,15
 36 164 36 164 36 284 c 0,16,17
 36 423 36 423 130 509 c 128,-1,18
 224 595 224 595 349 595 c 0,19,20
 378 595 378 595 421 580 c 128,-1,21
 464 565 464 565 470 565 c 0,22,23
 482 565 482 565 482 585 c 1,24,-1
 505 585 l 1,25,-1
 513 444 l 1,26,-1
 491 444 l 1,27,28
 485 485 485 485 439 523 c 128,-1,29
 393 561 393 561 350 561 c 0,0,1
EndSplineSet
EndChar

StartChar: D
Encoding: 68 68 39
Width: 613
GlyphClass: 2
Flags: W
AnchorPoint: "Anchor-5" 187 286 basechar 0
AnchorPoint: "Anchor-4" 249 0 basechar 0
AnchorPoint: "Anchor-2" 249 0 basechar 0
AnchorPoint: "Anchor-1" 277 620 basechar 0
LayerCount: 2
Fore
SplineSet
36 -1 m 1,0,-1
 36 20 l 1,1,2
 90 20 90 20 99 40 c 1,3,-1
 99 543 l 1,4,5
 90 563 90 563 36 563 c 1,6,-1
 36 584 l 1,7,-1
 266 584 l 2,8,9
 401 584 401 584 488.5 502.5 c 128,-1,10
 576 421 576 421 576 293 c 0,11,12
 576 164 576 164 490.5 81.5 c 128,-1,13
 405 -1 405 -1 278 -1 c 2,14,-1
 36 -1 l 1,0,-1
226 555 m 1,15,-1
 226 33 l 1,16,-1
 278 33 l 2,17,18
 346 33 346 33 393.5 97 c 128,-1,19
 441 161 441 161 441 292 c 0,20,21
 441 424 441 424 391 489.5 c 128,-1,22
 341 555 341 555 266 555 c 2,23,-1
 226 555 l 1,15,-1
EndSplineSet
EndChar

StartChar: E
Encoding: 69 69 40
Width: 503
GlyphClass: 2
Flags: W
AnchorPoint: "Anchor-5" 163 164 basechar 0
AnchorPoint: "Anchor-4" 279 0 basechar 0
AnchorPoint: "Anchor-3" 400 0 basechar 0
AnchorPoint: "Anchor-2" 279 0 basechar 0
AnchorPoint: "Anchor-1" 277 620 basechar 0
LayerCount: 2
Fore
SplineSet
36 0 m 1,0,-1
 36 21 l 1,1,2
 90 21 90 21 99 41 c 1,3,-1
 99 544 l 1,4,5
 90 564 90 564 36 564 c 1,6,-1
 36 585 l 1,7,-1
 449 585 l 1,8,-1
 449 488 l 1,9,-1
 428 488 l 1,10,11
 428 542 428 542 408 551 c 1,12,-1
 226 551 l 1,13,-1
 226 321 l 1,14,-1
 341 321 l 1,15,16
 361 330 361 330 361 384 c 1,17,-1
 382 384 l 1,18,-1
 382 224 l 1,19,-1
 361 224 l 1,20,21
 361 278 361 278 341 287 c 1,22,-1
 226 287 l 1,23,-1
 226 34 l 1,24,-1
 429 34 l 1,25,26
 454 45 454 45 474 97 c 1,27,-1
 494 97 l 1,28,-1
 470 0 l 1,29,-1
 36 0 l 1,0,-1
EndSplineSet
EndChar

StartChar: F
Encoding: 70 70 41
Width: 467
GlyphClass: 2
Flags: W
AnchorPoint: "Anchor-1" 277 620 basechar 0
LayerCount: 2
Fore
SplineSet
36 0 m 1,0,-1
 36 21 l 1,1,2
 90 21 90 21 99 41 c 1,3,-1
 99 544 l 1,4,5
 90 564 90 564 36 564 c 1,6,-1
 36 585 l 1,7,-1
 449 585 l 1,8,-1
 449 488 l 1,9,-1
 428 488 l 1,10,11
 428 542 428 542 408 551 c 1,12,-1
 226 551 l 1,13,-1
 226 321 l 1,14,-1
 341 321 l 1,15,16
 361 330 361 330 361 384 c 1,17,-1
 382 384 l 1,18,-1
 382 224 l 1,19,-1
 361 224 l 1,20,21
 361 278 361 278 341 287 c 1,22,-1
 226 287 l 1,23,-1
 226 41 l 1,24,25
 235 21 235 21 289 21 c 1,26,-1
 289 0 l 1,27,-1
 36 0 l 1,0,-1
EndSplineSet
EndChar

StartChar: G
Encoding: 71 71 42
Width: 623
GlyphClass: 2
Flags: W
AnchorPoint: "Anchor-5" 491 177 basechar 0
AnchorPoint: "Anchor-4" 340 0 basechar 0
AnchorPoint: "Anchor-2" 340 0 basechar 0
AnchorPoint: "Anchor-1" 359 620 basechar 0
LayerCount: 2
Fore
SplineSet
362 561 m 0,0,1
 278 561 278 561 225 481.5 c 128,-1,2
 172 402 172 402 172 286 c 0,3,4
 172 151 172 151 223.5 87.5 c 128,-1,5
 275 24 275 24 348 24 c 0,6,7
 390 24 390 24 424 33 c 1,8,-1
 424 248 l 1,9,10
 415 268 415 268 361 268 c 1,11,-1
 361 289 l 1,12,-1
 614 289 l 1,13,-1
 614 268 l 1,14,15
 560 268 560 268 551 248 c 1,16,-1
 551 80 l 1,17,18
 534 49 534 49 480 19.5 c 128,-1,19
 426 -10 426 -10 346 -10 c 0,20,21
 211 -10 211 -10 122 78 c 128,-1,22
 33 166 33 166 33 284 c 0,23,24
 33 377 33 377 83 449.5 c 128,-1,25
 133 522 133 522 207 558.5 c 128,-1,26
 281 595 281 595 361 595 c 0,27,28
 390 595 390 595 436 580 c 128,-1,29
 482 565 482 565 487 565 c 0,30,31
 499 565 499 565 499 585 c 1,32,-1
 522 585 l 1,33,-1
 532 440 l 1,34,-1
 510 440 l 1,35,36
 504 481 504 481 454 521 c 128,-1,37
 404 561 404 561 362 561 c 0,0,1
EndSplineSet
EndChar

StartChar: H
Encoding: 72 72 43
Width: 673
GlyphClass: 2
Flags: W
AnchorPoint: "Anchor-5" 333 420 basechar 0
AnchorPoint: "Anchor-4" 334 0 basechar 0
AnchorPoint: "Anchor-2" 334 0 basechar 0
AnchorPoint: "Anchor-1" 335 620 basechar 0
LayerCount: 2
Fore
SplineSet
36 0 m 1,0,-1
 36 21 l 1,1,2
 90 21 90 21 99 41 c 1,3,-1
 99 544 l 1,4,5
 90 564 90 564 36 564 c 1,6,-1
 36 585 l 1,7,-1
 289 585 l 1,8,-1
 289 564 l 1,9,10
 235 564 235 564 226 544 c 1,11,-1
 226 321 l 1,12,-1
 447 321 l 1,13,-1
 447 544 l 1,14,15
 438 564 438 564 384 564 c 1,16,-1
 384 585 l 1,17,-1
 637 585 l 1,18,-1
 637 564 l 1,19,20
 583 564 583 564 574 544 c 1,21,-1
 574 41 l 1,22,23
 583 21 583 21 637 21 c 1,24,-1
 637 0 l 1,25,-1
 384 0 l 1,26,-1
 384 21 l 1,27,28
 438 21 438 21 447 41 c 1,29,-1
 447 287 l 1,30,-1
 226 287 l 1,31,-1
 226 41 l 1,32,33
 235 21 235 21 289 21 c 1,34,-1
 289 0 l 1,35,-1
 36 0 l 1,0,-1
EndSplineSet
EndChar

StartChar: I
Encoding: 73 73 44
Width: 325
GlyphClass: 2
Flags: W
AnchorPoint: "Anchor-5" 171 294 basechar 0
AnchorPoint: "Anchor-4" 167 0 basechar 0
AnchorPoint: "Anchor-3" 219 0 basechar 0
AnchorPoint: "Anchor-2" 168 0 basechar 0
AnchorPoint: "Anchor-1" 167 620 basechar 0
LayerCount: 2
Fore
SplineSet
36 0 m 1,0,-1
 36 21 l 1,1,2
 90 21 90 21 99 41 c 1,3,-1
 99 544 l 1,4,5
 90 564 90 564 36 564 c 1,6,-1
 36 585 l 1,7,-1
 289 585 l 1,8,-1
 289 564 l 1,9,10
 235 564 235 564 226 544 c 1,11,-1
 226 41 l 1,12,13
 235 21 235 21 289 21 c 1,14,-1
 289 0 l 1,15,-1
 36 0 l 1,0,-1
EndSplineSet
EndChar

StartChar: J
Encoding: 74 74 45
Width: 424
GlyphClass: 2
Flags: W
AnchorPoint: "Anchor-1" 282 620 basechar 0
LayerCount: 2
Fore
SplineSet
342 218 m 2,0,1
 342 102 342 102 295.5 46 c 128,-1,2
 249 -10 249 -10 151 -10 c 0,3,4
 80 -10 80 -10 40.5 18.5 c 128,-1,5
 1 47 1 47 1 80 c 0,6,7
 1 103 1 103 15.5 121.5 c 128,-1,8
 30 140 30 140 49 140 c 0,9,10
 66 140 66 140 82.5 126.5 c 128,-1,11
 99 113 99 113 99 95 c 0,12,13
 99 61 99 61 74 53 c 1,14,15
 75 52 75 52 78.5 47.5 c 128,-1,16
 82 43 82 43 85.5 40.5 c 128,-1,17
 89 38 89 38 96 34 c 128,-1,18
 103 30 103 30 114.5 28 c 128,-1,19
 126 26 126 26 141 26 c 0,20,21
 185 26 185 26 200 79.5 c 128,-1,22
 215 133 215 133 215 254 c 2,23,-1
 215 544 l 1,24,25
 206 564 206 564 152 564 c 1,26,-1
 152 585 l 1,27,-1
 405 585 l 1,28,-1
 405 564 l 1,29,30
 351 564 351 564 342 544 c 1,31,-1
 342 218 l 2,0,1
EndSplineSet
EndChar

StartChar: K
Encoding: 75 75 46
Width: 627
GlyphClass: 2
Flags: W
AnchorPoint: "Anchor-5" 185 462 basechar 0
AnchorPoint: "Anchor-4" 346 0 basechar 0
AnchorPoint: "Anchor-2" 346 0 basechar 0
AnchorPoint: "Anchor-1" 355 620 basechar 0
LayerCount: 2
Fore
SplineSet
36 0 m 1,0,-1
 36 21 l 1,1,2
 90 21 90 21 99 41 c 1,3,-1
 99 544 l 1,4,5
 90 564 90 564 36 564 c 1,6,-1
 36 585 l 1,7,-1
 287 585 l 1,8,-1
 287 564 l 1,9,10
 233 564 233 564 224 544 c 1,11,-1
 224 41 l 1,12,13
 233 21 233 21 287 21 c 1,14,-1
 287 0 l 1,15,-1
 36 0 l 1,0,-1
420 0 m 1,16,-1
 420 21 l 1,17,18
 444 21 444 21 457 24 c 1,19,-1
 229 314 l 1,20,-1
 474 557 l 1,21,22
 460 564 460 564 423 564 c 1,23,-1
 423 585 l 1,24,-1
 580 585 l 1,25,-1
 580 564 l 1,26,27
 571 564 571 564 564 563.5 c 128,-1,28
 557 563 557 563 551 561 c 128,-1,29
 545 559 545 559 541 558 c 128,-1,30
 537 557 537 557 533 554 c 128,-1,31
 529 551 529 551 527.5 550 c 128,-1,32
 526 549 526 549 522 545 c 2,33,-1
 518 541 l 1,34,-1
 336 362 l 1,35,-1
 587 37 l 2,36,37
 600 21 600 21 650 21 c 1,38,-1
 650 0 l 1,39,-1
 420 0 l 1,16,-1
EndSplineSet
EndChar

StartChar: L
Encoding: 76 76 47
Width: 498
GlyphClass: 2
Flags: W
AnchorPoint: "Anchor-5" 165 341 basechar 0
AnchorPoint: "Anchor-4" 278 0 basechar 0
AnchorPoint: "Anchor-2" 278 0 basechar 0
AnchorPoint: "Anchor-1" 163 620 basechar 0
LayerCount: 2
Fore
SplineSet
36 0 m 1,0,-1
 36 21 l 1,1,2
 90 21 90 21 99 41 c 1,3,-1
 99 544 l 1,4,5
 90 564 90 564 36 564 c 1,6,-1
 36 585 l 1,7,-1
 289 585 l 1,8,-1
 289 564 l 1,9,10
 235 564 235 564 226 544 c 1,11,-1
 226 34 l 1,12,-1
 434 34 l 1,13,14
 459 45 459 45 479 97 c 1,15,-1
 499 97 l 1,16,-1
 475 0 l 1,17,-1
 36 0 l 1,0,-1
EndSplineSet
EndChar

StartChar: M
Encoding: 77 77 48
Width: 862
GlyphClass: 2
Flags: W
AnchorPoint: "Anchor-4" 387 0 basechar 0
AnchorPoint: "Anchor-2" 387 0 basechar 0
AnchorPoint: "Anchor-1" 419 620 basechar 0
LayerCount: 2
Fore
SplineSet
36 0 m 1,0,-1
 36 21 l 1,1,2
 90 21 90 21 99 41 c 1,3,-1
 99 544 l 1,4,5
 90 564 90 564 36 564 c 1,6,-1
 36 585 l 1,7,-1
 217 585 l 1,8,-1
 430 120 l 1,9,-1
 643 585 l 1,10,-1
 826 585 l 1,11,-1
 826 564 l 1,12,13
 772 564 772 564 763 544 c 1,14,-1
 763 41 l 1,15,16
 772 21 772 21 826 21 c 1,17,-1
 826 0 l 1,18,-1
 573 0 l 1,19,-1
 573 21 l 1,20,21
 627 21 627 21 636 41 c 1,22,-1
 636 490 l 1,23,-1
 412 0 l 1,24,-1
 362 0 l 1,25,-1
 133 496 l 1,26,-1
 133 41 l 1,27,28
 142 21 142 21 196 21 c 1,29,-1
 196 0 l 1,30,-1
 36 0 l 1,0,-1
EndSplineSet
EndChar

StartChar: N
Encoding: 78 78 49
Width: 623
GlyphClass: 2
Flags: W
AnchorPoint: "Anchor-5" 323 330 basechar 0
AnchorPoint: "Anchor-4" 312 0 basechar 0
AnchorPoint: "Anchor-2" 312 0 basechar 0
AnchorPoint: "Anchor-1" 312 620 basechar 0
LayerCount: 2
Fore
SplineSet
36 0 m 1,0,-1
 36 21 l 1,1,2
 90 21 90 21 99 41 c 1,3,-1
 99 544 l 1,4,5
 90 564 90 564 36 564 c 1,6,-1
 36 585 l 1,7,-1
 205 585 l 1,8,-1
 501 180 l 1,9,-1
 501 544 l 1,10,11
 492 564 492 564 438 564 c 1,12,-1
 438 585 l 1,13,-1
 598 585 l 1,14,-1
 598 564 l 1,15,16
 544 564 544 564 535 544 c 1,17,-1
 535 0 l 1,18,-1
 491 0 l 1,19,-1
 133 495 l 1,20,-1
 133 41 l 1,21,22
 142 21 142 21 196 21 c 1,23,-1
 196 0 l 1,24,-1
 36 0 l 1,0,-1
EndSplineSet
EndChar

StartChar: O
Encoding: 79 79 50
Width: 664
GlyphClass: 2
Flags: W
AnchorPoint: "Anchor-5" 342 294 basechar 0
AnchorPoint: "Anchor-4" 337 0 basechar 0
AnchorPoint: "Anchor-3" 366 0 basechar 0
AnchorPoint: "Anchor-2" 337 0 basechar 0
AnchorPoint: "Anchor-1" 336 620 basechar 0
AnchorPoint: "Anchor-0" 528 440 basechar 0
LayerCount: 2
Fore
SplineSet
170 300 m 0,0,1
 170 232 170 232 184.5 173 c 128,-1,2
 199 114 199 114 238 69 c 128,-1,3
 277 24 277 24 336 24 c 0,4,5
 381 24 381 24 413 47.5 c 128,-1,6
 445 71 445 71 462 111 c 128,-1,7
 479 151 479 151 486.5 193.5 c 128,-1,8
 494 236 494 236 494 284 c 0,9,10
 494 351 494 351 479 411 c 128,-1,11
 464 471 464 471 425 516 c 128,-1,12
 386 561 386 561 328 561 c 0,13,14
 283 561 283 561 251 537 c 128,-1,15
 219 513 219 513 202 473 c 128,-1,16
 185 433 185 433 177.5 390.5 c 128,-1,17
 170 348 170 348 170 300 c 0,0,1
35 292 m 128,-1,19
 35 415 35 415 122 505 c 128,-1,20
 209 595 209 595 332 595 c 128,-1,21
 455 595 455 595 542 505 c 128,-1,22
 629 415 629 415 629 292 c 128,-1,23
 629 169 629 169 541.5 79.5 c 128,-1,24
 454 -10 454 -10 332 -10 c 0,25,26
 208 -10 208 -10 121.5 79.5 c 128,-1,18
 35 169 35 169 35 292 c 128,-1,19
EndSplineSet
EndChar

StartChar: P
Encoding: 80 80 51
Width: 565
GlyphClass: 2
Flags: W
AnchorPoint: "Anchor-5" 166 160 basechar 0
AnchorPoint: "Anchor-4" 163 0 basechar 0
AnchorPoint: "Anchor-2" 163 0 basechar 0
AnchorPoint: "Anchor-1" 255 620 basechar 0
LayerCount: 2
Fore
SplineSet
36 0 m 1,0,-1
 36 21 l 1,1,2
 90 21 90 21 99 41 c 1,3,-1
 99 544 l 1,4,5
 90 564 90 564 36 564 c 1,6,-1
 36 585 l 1,7,-1
 302 585 l 2,8,9
 425 585 425 585 489.5 538 c 128,-1,10
 554 491 554 491 554 433 c 0,11,12
 554 358 554 358 494 312 c 128,-1,13
 434 266 434 266 314 266 c 2,14,-1
 226 266 l 1,15,-1
 226 41 l 1,16,17
 235 21 235 21 289 21 c 1,18,-1
 289 0 l 1,19,-1
 36 0 l 1,0,-1
226 551 m 1,20,-1
 226 300 l 1,21,-1
 279 300 l 2,22,23
 356 300 356 300 387.5 330.5 c 128,-1,24
 419 361 419 361 419 432 c 0,25,26
 419 551 419 551 267 551 c 2,27,-1
 226 551 l 1,20,-1
EndSplineSet
EndChar

StartChar: Q
Encoding: 81 81 52
Width: 664
GlyphClass: 2
Flags: W
LayerCount: 2
Fore
SplineSet
35 292 m 128,-1,1
 35 415 35 415 122 505 c 128,-1,2
 209 595 209 595 332 595 c 128,-1,3
 455 595 455 595 542 505 c 128,-1,4
 629 415 629 415 629 292 c 0,5,6
 629 209 629 209 586.5 138.5 c 128,-1,7
 544 68 544 68 474 28 c 1,8,9
 476 23 476 23 482 8 c 128,-1,10
 488 -7 488 -7 490.5 -12.5 c 128,-1,11
 493 -18 493 -18 498 -29 c 128,-1,12
 503 -40 503 -40 507.5 -44.5 c 128,-1,13
 512 -49 512 -49 518 -55.5 c 128,-1,14
 524 -62 524 -62 531 -64 c 128,-1,15
 538 -66 538 -66 547 -66 c 0,16,17
 571 -66 571 -66 591 -54.5 c 128,-1,18
 611 -43 611 -43 619 -32 c 2,19,-1
 627 -20 l 1,20,-1
 642 -31 l 1,21,22
 641 -34 641 -34 638.5 -38.5 c 128,-1,23
 636 -43 636 -43 627.5 -55.5 c 128,-1,24
 619 -68 619 -68 609 -77.5 c 128,-1,25
 599 -87 599 -87 582 -94.5 c 128,-1,26
 565 -102 565 -102 547 -102 c 0,27,28
 480 -102 480 -102 444 -76 c 128,-1,29
 408 -50 408 -50 385 -5 c 1,30,31
 357 -10 357 -10 332 -10 c 0,32,33
 208 -10 208 -10 121.5 79.5 c 128,-1,0
 35 169 35 169 35 292 c 128,-1,1
370 28 m 1,34,35
 361 49 361 49 356.5 57.5 c 128,-1,36
 352 66 352 66 343 79 c 128,-1,37
 334 92 334 92 323.5 97 c 128,-1,38
 313 102 313 102 299 102 c 0,39,40
 259 102 259 102 227 81 c 1,41,42
 269 24 269 24 336 24 c 0,43,44
 357 24 357 24 370 28 c 1,34,35
445 82 m 1,45,46
 494 152 494 152 494 284 c 0,47,48
 494 351 494 351 479 411 c 128,-1,49
 464 471 464 471 425 516 c 128,-1,50
 386 561 386 561 328 561 c 0,51,52
 283 561 283 561 251 537 c 128,-1,53
 219 513 219 513 202 473 c 128,-1,54
 185 433 185 433 177.5 390.5 c 128,-1,55
 170 348 170 348 170 300 c 0,56,57
 170 185 170 185 211 107 c 1,58,59
 250 146 250 146 305 146 c 0,60,61
 399 146 399 146 445 82 c 1,45,46
EndSplineSet
EndChar

StartChar: R
Encoding: 82 82 53
Width: 589
GlyphClass: 2
Flags: W
AnchorPoint: "Anchor-5" 166 160 basechar 0
AnchorPoint: "Anchor-4" 337 0 basechar 0
AnchorPoint: "Anchor-2" 337 0 basechar 0
AnchorPoint: "Anchor-1" 299 620 basechar 0
LayerCount: 2
Fore
SplineSet
36 0 m 1,0,-1
 36 21 l 1,1,2
 90 21 90 21 99 41 c 1,3,-1
 99 544 l 1,4,5
 90 564 90 564 36 564 c 1,6,-1
 36 585 l 1,7,-1
 282 585 l 2,8,9
 406 585 406 585 470 540 c 128,-1,10
 534 495 534 495 534 437 c 0,11,12
 534 382 534 382 501 340.5 c 128,-1,13
 468 299 468 299 403 280 c 1,14,-1
 536 42 l 1,15,16
 546 21 546 21 602 21 c 1,17,-1
 602 0 l 1,18,-1
 559 0 l 2,19,20
 480 0 480 0 442.5 9 c 128,-1,21
 405 18 405 18 386 52 c 2,22,-1
 265 266 l 1,23,-1
 226 266 l 1,24,-1
 226 41 l 1,25,26
 235 21 235 21 289 21 c 1,27,-1
 289 0 l 1,28,-1
 36 0 l 1,0,-1
226 551 m 1,29,-1
 226 300 l 1,30,-1
 259 300 l 2,31,32
 327 300 327 300 363 330.5 c 128,-1,33
 399 361 399 361 399 436 c 0,34,35
 399 494 399 494 358.5 522.5 c 128,-1,36
 318 551 318 551 247 551 c 2,37,-1
 226 551 l 1,29,-1
EndSplineSet
EndChar

StartChar: S
Encoding: 83 83 54
Width: 470
GlyphClass: 2
Flags: W
AnchorPoint: "Anchor-5" 247 294 basechar 0
AnchorPoint: "Anchor-4" 242 0 basechar 0
AnchorPoint: "Anchor-2" 242 0 basechar 0
AnchorPoint: "Anchor-1" 230 620 basechar 0
LayerCount: 2
Fore
SplineSet
244 -10 m 0,0,1
 195 -10 195 -10 144 5 c 128,-1,2
 93 20 93 20 91 20 c 0,3,4
 85 20 85 20 77 14 c 128,-1,5
 69 8 69 8 69 0 c 1,6,-1
 46 0 l 1,7,-1
 46 158 l 1,8,-1
 68 158 l 1,9,10
 79 99 79 99 134 61.5 c 128,-1,11
 189 24 189 24 238 24 c 0,12,13
 288 24 288 24 318.5 50.5 c 128,-1,14
 349 77 349 77 349 120 c 0,15,16
 349 135 349 135 339.5 149.5 c 128,-1,17
 330 164 330 164 309.5 179.5 c 128,-1,18
 289 195 289 195 273 205.5 c 128,-1,19
 257 216 257 216 226.5 234 c 128,-1,20
 196 252 196 252 183 260 c 0,21,22
 47 344 47 344 47 440 c 0,23,24
 47 499 47 499 101 547 c 128,-1,25
 155 595 155 595 222 595 c 0,26,27
 252 595 252 595 295 580 c 128,-1,28
 338 565 338 565 343 565 c 0,29,30
 355 565 355 565 355 585 c 1,31,-1
 378 585 l 1,32,-1
 388 434 l 1,33,-1
 366 434 l 1,34,35
 360 475 360 475 312 518 c 128,-1,36
 264 561 264 561 223 561 c 0,37,38
 178 561 178 561 155 532.5 c 128,-1,39
 132 504 132 504 132 472 c 0,40,41
 132 459 132 459 141 446.5 c 128,-1,42
 150 434 150 434 170 419 c 128,-1,43
 190 404 190 404 205 394.5 c 128,-1,44
 220 385 220 385 251 367 c 128,-1,45
 282 349 282 349 294 342 c 0,46,47
 363 300 363 300 402 255 c 128,-1,48
 441 210 441 210 441 148 c 0,49,50
 441 74 441 74 381 32 c 128,-1,51
 321 -10 321 -10 244 -10 c 0,0,1
EndSplineSet
EndChar

StartChar: T
Encoding: 84 84 55
Width: 543
GlyphClass: 2
Flags: W
AnchorPoint: "Anchor-5" 273 316 basechar 0
AnchorPoint: "Anchor-4" 274 0 basechar 0
AnchorPoint: "Anchor-2" 274 0 basechar 0
AnchorPoint: "Anchor-1" 274 620 basechar 0
LayerCount: 2
Fore
SplineSet
13 585 m 1,0,-1
 530 585 l 1,1,-1
 530 488 l 1,2,-1
 509 488 l 1,3,4
 509 536 509 536 474 551 c 1,5,-1
 335 551 l 1,6,-1
 335 41 l 1,7,8
 344 21 344 21 398 21 c 1,9,-1
 398 0 l 1,10,-1
 145 0 l 1,11,-1
 145 21 l 1,12,13
 199 21 199 21 208 41 c 1,14,-1
 208 551 l 1,15,-1
 69 551 l 1,16,17
 34 536 34 536 34 488 c 1,18,-1
 13 488 l 1,19,-1
 13 585 l 1,0,-1
EndSplineSet
EndChar

StartChar: U
Encoding: 85 85 56
Width: 604
GlyphClass: 2
Flags: W
AnchorPoint: "Anchor-5" 345 339 basechar 0
AnchorPoint: "Anchor-4" 323 0 basechar 0
AnchorPoint: "Anchor-3" 323 0 basechar 0
AnchorPoint: "Anchor-2" 323 0 basechar 0
AnchorPoint: "Anchor-1" 351 620 basechar 0
LayerCount: 2
Fore
SplineSet
346 24 m 0,0,1
 411 24 411 24 450 79 c 128,-1,2
 489 134 489 134 489 228 c 2,3,-1
 489 544 l 1,4,5
 480 564 480 564 426 564 c 1,6,-1
 426 585 l 1,7,-1
 586 585 l 1,8,-1
 586 564 l 1,9,10
 532 564 532 564 523 544 c 1,11,-1
 523 248 l 2,12,13
 523 118 523 118 465.5 54 c 128,-1,14
 408 -10 408 -10 321 -10 c 0,15,16
 81 -10 81 -10 81 248 c 2,17,-1
 81 544 l 1,18,19
 72 564 72 564 18 564 c 1,20,-1
 18 585 l 1,21,-1
 271 585 l 1,22,-1
 271 564 l 1,23,24
 217 564 217 564 208 544 c 1,25,-1
 208 234 l 2,26,27
 208 132 208 132 243 78 c 128,-1,28
 278 24 278 24 346 24 c 0,0,1
EndSplineSet
EndChar

StartChar: V
Encoding: 86 86 57
Width: 566
GlyphClass: 2
Flags: W
AnchorPoint: "Anchor-5" 330 440 basechar 0
AnchorPoint: "Anchor-4" 287 0 basechar 0
AnchorPoint: "Anchor-2" 287 0 basechar 0
AnchorPoint: "Anchor-1" 331 620 basechar 0
LayerCount: 2
Fore
SplineSet
479 546 m 1,0,1
 469 564 469 564 417 564 c 1,2,-1
 417 585 l 1,3,-1
 581 585 l 1,4,-1
 581 564 l 1,5,6
 526 564 526 564 518 543 c 2,7,-1
 324 0 l 1,8,-1
 243 0 l 1,9,-1
 47 543 l 2,10,11
 40 564 40 564 -17 564 c 1,12,-1
 -17 585 l 1,13,-1
 237 585 l 1,14,-1
 237 564 l 1,15,16
 191 564 191 564 179 552 c 1,17,-1
 332 133 l 1,18,-1
 479 546 l 1,0,1
EndSplineSet
EndChar

StartChar: W
Encoding: 87 87 58
Width: 897
GlyphClass: 2
Flags: W
AnchorPoint: "Anchor-5" 450 294 basechar 0
AnchorPoint: "Anchor-4" 456 0 basechar 0
AnchorPoint: "Anchor-3" 613 0 basechar 0
AnchorPoint: "Anchor-2" 456 0 basechar 0
AnchorPoint: "Anchor-1" 429 620 basechar 0
LayerCount: 2
Fore
SplineSet
569 585 m 1,0,-1
 569 564 l 1,1,2
 523 564 523 564 511 552 c 1,3,-1
 664 133 l 1,4,-1
 811 546 l 1,5,6
 801 564 801 564 749 564 c 1,7,-1
 749 585 l 1,8,-1
 913 585 l 1,9,-1
 913 564 l 1,10,11
 858 564 858 564 850 543 c 2,12,-1
 656 0 l 1,13,-1
 573 0 l 1,14,-1
 448 349 l 1,15,-1
 324 0 l 1,16,-1
 241 0 l 1,17,-1
 47 543 l 2,18,19
 40 564 40 564 -17 564 c 1,20,-1
 -17 585 l 1,21,-1
 237 585 l 1,22,-1
 237 564 l 1,23,24
 191 564 191 564 179 552 c 1,25,-1
 332 134 l 1,26,-1
 428 405 l 1,27,-1
 379 543 l 2,28,29
 372 564 372 564 315 564 c 1,30,-1
 315 585 l 1,31,-1
 569 585 l 1,0,-1
EndSplineSet
EndChar

StartChar: X
Encoding: 88 88 59
Width: 535
GlyphClass: 2
Flags: W
LayerCount: 2
Fore
SplineSet
250 585 m 1,0,-1
 250 564 l 1,1,2
 203 564 203 564 192 552 c 1,3,-1
 294 373 l 1,4,-1
 414 549 l 1,5,6
 404 564 404 564 354 564 c 1,7,-1
 354 585 l 1,8,-1
 518 585 l 1,9,-1
 518 564 l 1,10,11
 467 564 467 564 454 544 c 2,12,-1
 314 339 l 1,13,-1
 484 42 l 2,14,15
 495 21 495 21 548 21 c 1,16,-1
 548 0 l 1,17,-1
 294 0 l 1,18,-1
 294 21 l 1,19,20
 341 21 341 21 352 33 c 1,21,-1
 240 230 l 1,22,-1
 107 35 l 1,23,24
 118 21 118 21 167 21 c 1,25,-1
 167 0 l 1,26,-1
 3 0 l 1,27,-1
 3 21 l 1,28,29
 55 21 55 21 67 40 c 2,30,-1
 220 264 l 1,31,-1
 60 544 l 2,32,33
 48 564 48 564 -4 564 c 1,34,-1
 -4 585 l 1,35,-1
 250 585 l 1,0,-1
EndSplineSet
EndChar

StartChar: Y
Encoding: 89 89 60
Width: 584
GlyphClass: 2
Flags: W
AnchorPoint: "Anchor-5" 300 200 basechar 0
AnchorPoint: "Anchor-4" 302 0 basechar 0
AnchorPoint: "Anchor-3" 334 0 basechar 0
AnchorPoint: "Anchor-2" 304 0 basechar 0
AnchorPoint: "Anchor-1" 342 620 basechar 0
LayerCount: 2
Fore
SplineSet
238 585 m 1,0,-1
 238 564 l 1,1,2
 191 564 191 564 180 552 c 1,3,-1
 335 281 l 1,4,-1
 495 546 l 1,5,6
 484 564 484 564 433 564 c 1,7,-1
 433 585 l 1,8,-1
 597 585 l 1,9,-1
 597 564 l 1,10,11
 548 564 548 564 540 551 c 2,12,-1
 360 252 l 1,13,-1
 360 41 l 1,14,15
 369 21 369 21 423 21 c 1,16,-1
 423 0 l 1,17,-1
 170 0 l 1,18,-1
 170 21 l 1,19,20
 224 21 224 21 233 41 c 1,21,-1
 233 220 l 1,22,-1
 48 544 l 2,23,24
 36 564 36 564 -16 564 c 1,25,-1
 -16 585 l 1,26,-1
 238 585 l 1,0,-1
EndSplineSet
EndChar

StartChar: Z
Encoding: 90 90 61
Width: 492
GlyphClass: 2
Flags: W
AnchorPoint: "Anchor-5" 232 294 basechar 0
AnchorPoint: "Anchor-4" 254 0 basechar 0
AnchorPoint: "Anchor-2" 254 0 basechar 0
AnchorPoint: "Anchor-1" 244 620 basechar 0
LayerCount: 2
Fore
SplineSet
446 0 m 1,0,-1
 14 0 l 1,1,-1
 297 555 l 1,2,-1
 104 555 l 1,3,4
 92 550 92 550 80.5 525.5 c 128,-1,5
 69 501 69 501 69 472 c 1,6,-1
 48 472 l 1,7,-1
 48 585 l 1,8,-1
 451 585 l 1,9,-1
 168 30 l 1,10,-1
 390 30 l 1,11,12
 402 35 402 35 422 64 c 128,-1,13
 442 93 442 93 450 122 c 1,14,-1
 471 122 l 1,15,-1
 446 0 l 1,0,-1
EndSplineSet
EndChar

StartChar: bracketleft
Encoding: 91 91 62
Width: 277
GlyphClass: 2
Flags: W
LayerCount: 2
Fore
SplineSet
176 579 m 1,0,-1
 176 -120 l 1,1,-1
 257 -120 l 1,2,-1
 257 -156 l 1,3,-1
 61 -156 l 1,4,-1
 61 615 l 1,5,-1
 257 615 l 1,6,-1
 257 579 l 1,7,-1
 176 579 l 1,0,-1
EndSplineSet
EndChar

StartChar: backslash
Encoding: 92 92 63
Width: 474
GlyphClass: 2
Flags: W
LayerCount: 2
Fore
SplineSet
456 -10 m 1,0,-1
 407 -28 l 1,1,-1
 18 594 l 1,2,-1
 67 612 l 1,3,-1
 456 -10 l 1,0,-1
EndSplineSet
EndChar

StartChar: bracketright
Encoding: 93 93 64
Width: 277
GlyphClass: 2
Flags: W
LayerCount: 2
Fore
SplineSet
101 -120 m 1,0,-1
 101 579 l 1,1,-1
 20 579 l 1,2,-1
 20 615 l 1,3,-1
 216 615 l 1,4,-1
 216 -156 l 1,5,-1
 20 -156 l 1,6,-1
 20 -120 l 1,7,-1
 101 -120 l 1,0,-1
EndSplineSet
EndChar

StartChar: asciicircum
Encoding: 94 94 65
Width: 456
GlyphClass: 2
Flags: W
LayerCount: 2
Fore
SplineSet
241 548 m 1,0,-1
 406 352 l 1,1,-1
 372 308 l 1,2,-1
 228 480 l 1,3,-1
 84 308 l 1,4,-1
 50 352 l 1,5,-1
 214 548 l 1,6,-1
 241 548 l 1,0,-1
EndSplineSet
EndChar

StartChar: underscore
Encoding: 95 95 66
Width: 456
GlyphClass: 2
Flags: W
LayerCount: 2
Fore
SplineSet
46 -50 m 1,0,-1
 410 -50 l 1,1,-1
 410 -94 l 1,2,-1
 46 -94 l 1,3,-1
 46 -50 l 1,0,-1
EndSplineSet
EndChar

StartChar: grave
Encoding: 96 96 67
Width: 300
GlyphClass: 2
Flags: W
LayerCount: 2
Fore
SplineSet
186 662 m 1,0,-1
 240 500 l 1,1,-1
 194 500 l 1,2,-1
 60 662 l 1,3,-1
 186 662 l 1,0,-1
EndSplineSet
EndChar

StartChar: a
Encoding: 97 97 68
Width: 503
GlyphClass: 2
Flags: W
AnchorPoint: "Anchor-5" 228 118 basechar 0
AnchorPoint: "Anchor-4" 247 0 basechar 0
AnchorPoint: "Anchor-3" 422 0 basechar 0
AnchorPoint: "Anchor-2" 208 0 basechar 0
AnchorPoint: "Anchor-1" 232 515 basechar 0
LayerCount: 2
Fore
SplineSet
130 366 m 1,0,1
 153 366 153 366 153 325 c 0,2,3
 153 308 153 308 136 299 c 128,-1,4
 119 290 119 290 100 290 c 0,5,6
 80 290 80 290 64.5 304 c 128,-1,7
 49 318 49 318 49 340 c 0,8,9
 49 391 49 391 99.5 420.5 c 128,-1,10
 150 450 150 450 231 450 c 0,11,12
 326 450 326 450 379 402.5 c 128,-1,13
 432 355 432 355 432 282 c 2,14,-1
 432 84 l 2,15,16
 432 52 432 52 442.5 37 c 128,-1,17
 453 22 453 22 468 22 c 0,18,19
 481 22 481 22 491.5 29 c 128,-1,20
 502 36 502 36 502 46 c 1,21,-1
 520 46 l 1,22,23
 520 -8 520 -8 410 -8 c 0,24,25
 359 -8 359 -8 331 28 c 1,26,27
 271 -10 271 -10 192 -10 c 0,28,29
 25 -10 25 -10 25 112 c 0,30,31
 25 137 25 137 42.5 157 c 128,-1,32
 60 177 60 177 96 191 c 128,-1,33
 132 205 132 205 160.5 213 c 128,-1,34
 189 221 189 221 239 231.5 c 128,-1,35
 289 242 289 242 307 247 c 1,36,37
 307 341 307 341 291.5 377.5 c 128,-1,38
 276 414 276 414 221 414 c 0,39,40
 188 414 188 414 161.5 400.5 c 128,-1,41
 135 387 135 387 130 366 c 1,0,1
317 52 m 1,42,43
 307 79 307 79 307 112 c 2,44,-1
 307 225 l 1,45,46
 222 199 222 199 195 182 c 0,47,48
 153 154 153 154 153 110 c 0,49,50
 153 64 153 64 172.5 44 c 128,-1,51
 192 24 192 24 217 24 c 0,52,53
 261 24 261 24 317 52 c 1,42,43
EndSplineSet
EndChar

StartChar: b
Encoding: 98 98 69
Width: 553
GlyphClass: 2
Flags: W
AnchorPoint: "Anchor-5" 139 510 basechar 0
AnchorPoint: "Anchor-4" 257 0 basechar 0
AnchorPoint: "Anchor-1" 293 515 basechar 0
LayerCount: 2
Fore
SplineSet
57 560 m 1,0,1
 3 564 3 564 -6 564 c 1,2,-1
 -6 587 l 1,3,4
 13 587 13 587 86 608.5 c 128,-1,5
 159 630 159 630 182 630 c 1,6,-1
 182 426 l 1,7,8
 228 454 228 454 294 454 c 0,9,10
 320 454 320 454 348 447.5 c 128,-1,11
 376 441 376 441 408 424.5 c 128,-1,12
 440 408 440 408 465 382.5 c 128,-1,13
 490 357 490 357 506.5 315.5 c 128,-1,14
 523 274 523 274 523 222 c 0,15,16
 523 112 523 112 449.5 51 c 128,-1,17
 376 -10 376 -10 272 -10 c 0,18,19
 205 -10 205 -10 161 22 c 1,20,21
 81 -10 81 -10 57 -10 c 1,22,-1
 57 560 l 1,0,1
182 394 m 1,23,-1
 182 42 l 1,24,25
 216 24 216 24 266 24 c 0,26,27
 320 24 320 24 356.5 75.5 c 128,-1,28
 393 127 393 127 393 222 c 0,29,30
 393 312 393 312 364.5 366 c 128,-1,31
 336 420 336 420 284 420 c 0,32,33
 223 420 223 420 182 394 c 1,23,-1
EndSplineSet
EndChar

StartChar: c
Encoding: 99 99 70
Width: 481
GlyphClass: 2
Flags: W
AnchorPoint: "Anchor-4" 265 0 basechar 0
AnchorPoint: "Anchor-2" 265 0 basechar 0
AnchorPoint: "Anchor-1" 269 515 basechar 0
LayerCount: 2
Fore
SplineSet
274 420 m 0,0,1
 227 420 227 420 194 372.5 c 128,-1,2
 161 325 161 325 161 246 c 0,3,4
 161 157 161 157 197 92.5 c 128,-1,5
 233 28 233 28 291 28 c 0,6,7
 375 28 375 28 418 100 c 1,8,-1
 455 82 l 1,9,10
 426 34 426 34 379.5 12 c 128,-1,11
 333 -10 333 -10 257 -10 c 0,12,13
 227 -10 227 -10 198 -3.5 c 128,-1,14
 169 3 169 3 138 21 c 128,-1,15
 107 39 107 39 84 66 c 128,-1,16
 61 93 61 93 46 138.5 c 128,-1,17
 31 184 31 184 31 242 c 0,18,19
 31 328 31 328 97 389 c 128,-1,20
 163 450 163 450 264 450 c 0,21,22
 345 450 345 450 394.5 422.5 c 128,-1,23
 444 395 444 395 444 344 c 0,24,25
 444 319 444 319 431.5 303 c 128,-1,26
 419 287 419 287 394 287 c 0,27,28
 370 287 370 287 355.5 298.5 c 128,-1,29
 341 310 341 310 341 329 c 0,30,31
 341 350 341 350 351.5 360 c 128,-1,32
 362 370 362 370 376 370 c 1,33,34
 363 420 363 420 274 420 c 0,0,1
EndSplineSet
EndChar

StartChar: d
Encoding: 100 100 71
Width: 577
GlyphClass: 2
Flags: W
AnchorPoint: "Anchor-5" 401 508 basechar 0
AnchorPoint: "Anchor-4" 265 0 basechar 0
AnchorPoint: "Anchor-1" 241 515 basechar 0
LayerCount: 2
Fore
SplineSet
375 430 m 1,0,-1
 375 560 l 1,1,2
 321 564 321 564 312 564 c 1,3,-1
 312 587 l 1,4,5
 331 587 331 587 404 608.5 c 128,-1,6
 477 630 477 630 500 630 c 1,7,-1
 500 60 l 1,8,9
 554 56 554 56 563 56 c 1,10,-1
 563 33 l 1,11,12
 544 33 544 33 471 11.5 c 128,-1,13
 398 -10 398 -10 375 -10 c 1,14,-1
 375 23 l 1,15,16
 327 -10 327 -10 255 -10 c 0,17,18
 229 -10 229 -10 201.5 -3.5 c 128,-1,19
 174 3 174 3 142.5 19.5 c 128,-1,20
 111 36 111 36 87 61.5 c 128,-1,21
 63 87 63 87 47 128.5 c 128,-1,22
 31 170 31 170 31 222 c 0,23,24
 31 332 31 332 102 393 c 128,-1,25
 173 454 173 454 277 454 c 0,26,27
 334 454 334 454 375 430 c 1,0,-1
375 398 m 1,28,29
 337 420 337 420 283 420 c 0,30,31
 239 420 239 420 200 366 c 128,-1,32
 161 312 161 312 161 222 c 0,33,34
 161 139 161 139 194 81.5 c 128,-1,35
 227 24 227 24 265 24 c 0,36,37
 334 24 334 24 375 56 c 1,38,-1
 375 398 l 1,28,29
EndSplineSet
EndChar

StartChar: e
Encoding: 101 101 72
Width: 501
GlyphClass: 2
Flags: W
AnchorPoint: "Anchor-5" 256 338 basechar 0
AnchorPoint: "Anchor-4" 268 0 basechar 0
AnchorPoint: "Anchor-3" 305 0 basechar 0
AnchorPoint: "Anchor-2" 268 0 basechar 0
AnchorPoint: "Anchor-1" 251 515 basechar 0
LayerCount: 2
Fore
SplineSet
161 241 m 1,0,1
 163 154 163 154 200.5 91 c 128,-1,2
 238 28 238 28 296 28 c 0,3,4
 383 28 383 28 436 94 c 1,5,-1
 460 82 l 1,6,7
 431 34 431 34 384.5 12 c 128,-1,8
 338 -10 338 -10 262 -10 c 0,9,10
 223 -10 223 -10 186 1.5 c 128,-1,11
 149 13 149 13 112.5 39.5 c 128,-1,12
 76 66 76 66 53.5 118 c 128,-1,13
 31 170 31 170 31 242 c 0,14,15
 31 329 31 329 92.5 389.5 c 128,-1,16
 154 450 154 450 252 450 c 0,17,18
 359 450 359 450 418 389.5 c 128,-1,19
 477 329 477 329 477 241 c 1,20,-1
 161 241 l 1,0,1
162 272 m 1,21,-1
 344 272 l 1,22,23
 338 343 338 343 319.5 381.5 c 128,-1,24
 301 420 301 420 260 420 c 0,25,26
 224 420 224 420 195.5 383.5 c 128,-1,27
 167 347 167 347 162 272 c 1,21,-1
EndSplineSet
EndChar

StartChar: f
Encoding: 102 102 73
Width: 301
GlyphClass: 2
Flags: W
AnchorPoint: "Anchor-1" 235 655 basechar 0
LayerCount: 2
Fore
SplineSet
355 571 m 0,0,1
 355 526 355 526 315 526 c 0,2,3
 291 526 291 526 281 537.5 c 128,-1,4
 271 549 271 549 271.5 563 c 128,-1,5
 272 577 272 577 266.5 588.5 c 128,-1,6
 261 600 261 600 245 600 c 0,7,8
 209 600 209 600 209 488 c 2,9,-1
 209 440 l 1,10,-1
 286 440 l 1,11,-1
 286 410 l 1,12,-1
 209 410 l 1,13,-1
 209 41 l 1,14,15
 218 21 218 21 272 21 c 1,16,-1
 272 0 l 1,17,-1
 21 0 l 1,18,-1
 21 21 l 1,19,20
 75 21 75 21 84 41 c 1,21,-1
 84 410 l 1,22,-1
 34 410 l 1,23,-1
 34 440 l 1,24,-1
 84 440 l 1,25,-1
 84 474 l 2,26,27
 84 556 84 556 125.5 593 c 128,-1,28
 167 630 167 630 235 630 c 0,29,30
 294 630 294 630 324.5 612 c 128,-1,31
 355 594 355 594 355 571 c 0,0,1
EndSplineSet
EndChar

StartChar: g
Encoding: 103 103 74
Width: 537
GlyphClass: 2
Flags: W
AnchorPoint: "Anchor-5" 418 228 basechar 0
AnchorPoint: "Anchor-4" 248 0 basechar 0
AnchorPoint: "Anchor-1" 278 515 basechar 0
LayerCount: 2
Fore
SplineSet
480 450 m 1,0,-1
 480 29 l 2,1,2
 480 -71 480 -71 421.5 -135.5 c 128,-1,3
 363 -200 363 -200 266 -200 c 0,4,5
 174 -200 174 -200 120 -176 c 128,-1,6
 66 -152 66 -152 66 -112 c 0,7,8
 66 -48 66 -48 120 -48 c 0,9,10
 140 -48 140 -48 153 -62 c 128,-1,11
 166 -76 166 -76 166 -95 c 0,12,13
 166 -127 166 -127 141 -137 c 1,14,15
 168 -164 168 -164 256 -164 c 0,16,17
 302 -164 302 -164 326 -124.5 c 128,-1,18
 350 -85 350 -85 354 12 c 1,19,20
 312 -10 312 -10 251 -10 c 0,21,22
 218 -10 218 -10 183.5 0.5 c 128,-1,23
 149 11 149 11 113 35 c 128,-1,24
 77 59 77 59 54.5 106.5 c 128,-1,25
 32 154 32 154 32 218 c 0,26,27
 32 329 32 329 101 389.5 c 128,-1,28
 170 450 170 450 273 450 c 0,29,30
 337 450 337 450 381 420 c 1,31,32
 456 450 456 450 480 450 c 1,0,-1
355 44 m 1,33,-1
 355 65 l 1,34,-1
 355 402 l 1,35,36
 324 416 324 416 279 416 c 0,37,38
 162 416 162 416 162 218 c 0,39,40
 162 160 162 160 172.5 118.5 c 128,-1,41
 183 77 183 77 199.5 58 c 128,-1,42
 216 39 216 39 231 31.5 c 128,-1,43
 246 24 246 24 261 24 c 0,44,45
 315 24 315 24 355 44 c 1,33,-1
EndSplineSet
EndChar

StartChar: h
Encoding: 104 104 75
Width: 596
GlyphClass: 2
Flags: W
AnchorPoint: "Anchor-5" 187 516 basechar 0
AnchorPoint: "Anchor-4" 298 0 basechar 0
AnchorPoint: "Anchor-2" 444 0 basechar 0
AnchorPoint: "Anchor-1" 135 655 basechar 0
LayerCount: 2
Fore
SplineSet
14 0 m 1,0,-1
 14 21 l 1,1,2
 68 21 68 21 77 41 c 1,3,-1
 77 560 l 1,4,5
 23 564 23 564 14 564 c 1,6,-1
 14 587 l 1,7,8
 33 587 33 587 106 608.5 c 128,-1,9
 179 630 179 630 202 630 c 1,10,-1
 202 411 l 1,11,12
 262 450 262 450 321 450 c 0,13,14
 420 450 420 450 471 418 c 128,-1,15
 522 386 522 386 522 312 c 2,16,-1
 522 41 l 1,17,18
 531 21 531 21 585 21 c 1,19,-1
 585 0 l 1,20,-1
 334 0 l 1,21,-1
 334 21 l 1,22,23
 388 21 388 21 397 41 c 1,24,-1
 397 288 l 2,25,26
 397 357 397 357 376.5 386.5 c 128,-1,27
 356 416 356 416 315 416 c 0,28,29
 255 416 255 416 202 380 c 1,30,-1
 202 41 l 1,31,32
 211 21 211 21 265 21 c 1,33,-1
 265 0 l 1,34,-1
 14 0 l 1,0,-1
EndSplineSet
EndChar

StartChar: i
Encoding: 105 105 76
Width: 289
GlyphClass: 2
Flags: W
AnchorPoint: "Anchor-5" 147 260 basechar 0
AnchorPoint: "Anchor-4" 141 0 basechar 0
AnchorPoint: "Anchor-3" 200 0 basechar 0
AnchorPoint: "Anchor-2" 141 0 basechar 0
AnchorPoint: "Anchor-1" 143 620 basechar 0
LayerCount: 2
Fore
SplineSet
24 0 m 1,0,-1
 24 21 l 1,1,2
 78 21 78 21 87 41 c 1,3,-1
 87 380 l 1,4,5
 35 384 35 384 24 384 c 1,6,-1
 24 407 l 1,7,8
 43 407 43 407 116 428.5 c 128,-1,9
 189 450 189 450 212 450 c 1,10,-1
 212 41 l 1,11,12
 221 21 221 21 275 21 c 1,13,-1
 275 0 l 1,14,-1
 24 0 l 1,0,-1
147 514 m 0,15,16
 123 514 123 514 98.5 531.5 c 128,-1,17
 74 549 74 549 74 573 c 0,18,19
 74 594 74 594 96.5 612 c 128,-1,20
 119 630 119 630 144 630 c 0,21,22
 168 630 168 630 192.5 612.5 c 128,-1,23
 217 595 217 595 217 570 c 0,24,25
 217 549 217 549 194.5 531.5 c 128,-1,26
 172 514 172 514 147 514 c 0,15,16
EndSplineSet
EndChar

StartChar: j
Encoding: 106 106 77
Width: 258
GlyphClass: 2
Flags: W
AnchorPoint: "Anchor-1" 133 620 basechar 0
LayerCount: 2
Fore
SplineSet
135 515 m 0,0,1
 111 515 111 515 87 532.5 c 128,-1,2
 63 550 63 550 63 574 c 0,3,4
 63 595 63 595 85 613 c 128,-1,5
 107 631 107 631 132 631 c 0,6,7
 156 631 156 631 181 613 c 128,-1,8
 206 595 206 595 206 571 c 0,9,10
 206 550 206 550 183 532.5 c 128,-1,11
 160 515 160 515 135 515 c 0,0,1
76 381 m 1,12,13
 24 385 24 385 13 385 c 1,14,-1
 13 408 l 1,15,16
 32 408 32 408 105 429.5 c 128,-1,17
 178 451 178 451 201 451 c 1,18,-1
 201 -43 l 2,19,20
 201 -123 201 -123 152 -161 c 128,-1,21
 103 -199 103 -199 42 -199 c 0,22,23
 -88 -199 -88 -199 -88 -112 c 0,24,25
 -88 -91 -88 -91 -75.5 -75.5 c 128,-1,26
 -63 -60 -63 -60 -40 -60 c 0,27,28
 -19 -60 -19 -60 -7.5 -75.5 c 128,-1,29
 4 -91 4 -91 4 -111 c 0,30,31
 4 -125 4 -125 -6 -135 c 1,32,33
 -6 -169 -6 -169 32 -169 c 0,34,35
 51 -169 51 -169 63.5 -140 c 128,-1,36
 76 -111 76 -111 76 -57 c 2,37,-1
 76 381 l 1,12,13
EndSplineSet
EndChar

StartChar: k
Encoding: 107 107 78
Width: 550
GlyphClass: 2
Flags: W
AnchorPoint: "Anchor-5" 136 260 basechar 0
AnchorPoint: "Anchor-4" 294 0 basechar 0
AnchorPoint: "Anchor-2" 134 0 basechar 0
AnchorPoint: "Anchor-1" 137 655 basechar 0
LayerCount: 2
Fore
SplineSet
14 0 m 1,0,-1
 14 21 l 1,1,2
 68 21 68 21 77 41 c 1,3,-1
 77 560 l 1,4,5
 23 564 23 564 14 564 c 1,6,-1
 14 587 l 1,7,8
 33 587 33 587 106 608.5 c 128,-1,9
 179 630 179 630 202 630 c 1,10,-1
 202 41 l 1,11,12
 211 21 211 21 265 21 c 1,13,-1
 265 0 l 1,14,-1
 14 0 l 1,0,-1
338 0 m 1,15,-1
 338 21 l 1,16,17
 362 21 362 21 376 24 c 1,18,-1
 209 254 l 1,19,-1
 386 413 l 1,20,21
 371 419 371 419 337 419 c 1,22,-1
 337 440 l 1,23,-1
 494 440 l 1,24,-1
 494 419 l 1,25,26
 455 419 455 419 440 406 c 2,27,-1
 319 298 l 1,28,-1
 505 40 l 2,29,30
 519 21 519 21 568 21 c 1,31,-1
 568 0 l 1,32,-1
 338 0 l 1,15,-1
EndSplineSet
EndChar

StartChar: l
Encoding: 108 108 79
Width: 279
GlyphClass: 2
Flags: W
AnchorPoint: "Anchor-5" 137 341 basechar 0
AnchorPoint: "Anchor-4" 136 0 basechar 0
AnchorPoint: "Anchor-2" 136 0 basechar 0
AnchorPoint: "Anchor-1" 137 655 basechar 0
LayerCount: 2
Fore
SplineSet
14 0 m 1,0,-1
 14 21 l 1,1,2
 68 21 68 21 77 41 c 1,3,-1
 77 560 l 1,4,5
 23 564 23 564 14 564 c 1,6,-1
 14 587 l 1,7,8
 33 587 33 587 106 608.5 c 128,-1,9
 179 630 179 630 202 630 c 1,10,-1
 202 41 l 1,11,12
 211 21 211 21 265 21 c 1,13,-1
 265 0 l 1,14,-1
 14 0 l 1,0,-1
EndSplineSet
EndChar

StartChar: m
Encoding: 109 109 80
Width: 876
GlyphClass: 2
Flags: W
AnchorPoint: "Anchor-5" 447 222 basechar 0
AnchorPoint: "Anchor-4" 447 0 basechar 0
AnchorPoint: "Anchor-2" 447 0 basechar 0
AnchorPoint: "Anchor-1" 449 515 basechar 0
LayerCount: 2
Fore
SplineSet
24 0 m 1,0,-1
 24 21 l 1,1,2
 78 21 78 21 87 41 c 1,3,-1
 87 380 l 1,4,5
 33 384 33 384 24 384 c 1,6,-1
 24 407 l 1,7,8
 43 407 43 407 116 428.5 c 128,-1,9
 189 450 189 450 212 450 c 1,10,-1
 212 415 l 1,11,12
 253 450 253 450 315 450 c 0,13,14
 448 450 448 450 490 394 c 1,15,16
 535 450 535 450 613 450 c 0,17,18
 709 450 709 450 758.5 399 c 128,-1,19
 808 348 808 348 808 222 c 2,20,-1
 808 41 l 1,21,22
 817 21 817 21 871 21 c 1,23,-1
 871 0 l 1,24,-1
 620 0 l 1,25,-1
 620 21 l 1,26,27
 674 21 674 21 683 41 c 1,28,-1
 683 235 l 2,29,30
 683 328 683 328 666.5 372 c 128,-1,31
 650 416 650 416 607 416 c 0,32,33
 553 416 553 416 505 366 c 1,34,35
 510 352 510 352 510 328 c 2,36,-1
 510 41 l 1,37,38
 519 21 519 21 573 21 c 1,39,-1
 573 0 l 1,40,-1
 322 0 l 1,41,-1
 322 21 l 1,42,43
 376 21 376 21 385 41 c 1,44,-1
 385 270 l 2,45,46
 385 352 385 352 367 384 c 128,-1,47
 349 416 349 416 309 416 c 0,48,49
 267 416 267 416 212 368 c 1,50,-1
 212 41 l 1,51,52
 221 21 221 21 275 21 c 1,53,-1
 275 0 l 1,54,-1
 24 0 l 1,0,-1
EndSplineSet
EndChar

StartChar: n
Encoding: 110 110 81
Width: 597
GlyphClass: 2
Flags: W
AnchorPoint: "Anchor-5" 301 222 basechar 0
AnchorPoint: "Anchor-4" 301 0 basechar 0
AnchorPoint: "Anchor-2" 459 0 basechar 0
AnchorPoint: "Anchor-1" 312 516 basechar 0
LayerCount: 2
Fore
SplineSet
24 0 m 1,0,-1
 24 21 l 1,1,2
 78 21 78 21 87 41 c 1,3,-1
 87 380 l 1,4,5
 33 384 33 384 24 384 c 1,6,-1
 24 407 l 1,7,8
 43 407 43 407 116 428.5 c 128,-1,9
 189 450 189 450 212 450 c 1,10,-1
 212 408 l 1,11,12
 262 450 262 450 322 450 c 0,13,14
 418 450 418 450 471 414.5 c 128,-1,15
 524 379 524 379 524 308 c 2,16,-1
 524 41 l 1,17,18
 533 21 533 21 587 21 c 1,19,-1
 587 0 l 1,20,-1
 336 0 l 1,21,-1
 336 21 l 1,22,23
 390 21 390 21 399 41 c 1,24,-1
 399 315 l 2,25,26
 399 360 399 360 378.5 388 c 128,-1,27
 358 416 358 416 316 416 c 0,28,29
 254 416 254 416 212 376 c 1,30,-1
 212 41 l 1,31,32
 221 21 221 21 275 21 c 1,33,-1
 275 0 l 1,34,-1
 24 0 l 1,0,-1
EndSplineSet
EndChar

StartChar: o
Encoding: 111 111 82
Width: 545
GlyphClass: 2
Flags: W
AnchorPoint: "Anchor-5" 272 230 basechar 0
AnchorPoint: "Anchor-4" 280 0 basechar 0
AnchorPoint: "Anchor-3" 280 0 basechar 0
AnchorPoint: "Anchor-2" 280 0 basechar 0
AnchorPoint: "Anchor-1" 274 515 basechar 0
AnchorPoint: "Anchor-0" 454 313 basechar 0
LayerCount: 2
Fore
SplineSet
162 248 m 0,0,1
 162 130 162 130 193.5 75 c 128,-1,2
 225 20 225 20 290 20 c 0,3,4
 335 20 335 20 359 67.5 c 128,-1,5
 383 115 383 115 383 193 c 0,6,7
 383 315 383 315 354.5 367 c 128,-1,8
 326 419 326 419 253 419 c 0,9,10
 210 419 210 419 186 369 c 128,-1,11
 162 319 162 319 162 248 c 0,0,1
277 -10 m 0,12,13
 164 -10 164 -10 97.5 56 c 128,-1,14
 31 122 31 122 31 228 c 0,15,16
 31 323 31 323 91.5 386.5 c 128,-1,17
 152 450 152 450 270 450 c 0,18,19
 389 450 389 450 451.5 387 c 128,-1,20
 514 324 514 324 514 216 c 0,21,22
 514 120 514 120 454 55 c 128,-1,23
 394 -10 394 -10 277 -10 c 0,12,13
EndSplineSet
EndChar

StartChar: p
Encoding: 112 112 83
Width: 573
GlyphClass: 2
Flags: W
AnchorPoint: "Anchor-5" 149 218 basechar 0
AnchorPoint: "Anchor-4" 314 0 basechar 0
AnchorPoint: "Anchor-1" 308 515 basechar 0
LayerCount: 2
Fore
SplineSet
14 -192 m 1,0,-1
 14 -171 l 1,1,2
 68 -171 68 -171 77 -151 c 1,3,-1
 77 379 l 1,4,5
 77 379 77 379 14 384 c 1,6,-1
 14 407 l 1,7,8
 33 407 33 407 106 428.5 c 128,-1,9
 179 450 179 450 202 450 c 1,10,-1
 202 423 l 1,11,12
 247 450 247 450 312 450 c 0,13,14
 358 450 358 450 396 439 c 128,-1,15
 434 428 434 428 468 403 c 128,-1,16
 502 378 502 378 521.5 330.5 c 128,-1,17
 541 283 541 283 541 218 c 0,18,19
 541 105 541 105 475.5 47.5 c 128,-1,20
 410 -10 410 -10 290 -10 c 0,21,22
 239 -10 239 -10 202 7 c 1,23,-1
 202 -151 l 1,24,25
 211 -171 211 -171 265 -171 c 1,26,-1
 265 -192 l 1,27,-1
 14 -192 l 1,0,-1
202 391 m 1,28,-1
 202 39 l 1,29,30
 238 24 238 24 284 24 c 0,31,32
 338 24 338 24 374.5 74.5 c 128,-1,33
 411 125 411 125 411 218 c 0,34,35
 411 256 411 256 399 300.5 c 128,-1,36
 387 345 387 345 361 380.5 c 128,-1,37
 335 416 335 416 302 416 c 0,38,39
 241 416 241 416 202 391 c 1,28,-1
EndSplineSet
EndChar

StartChar: q
Encoding: 113 113 84
Width: 548
GlyphClass: 2
Flags: W
LayerCount: 2
Fore
SplineSet
303 -192 m 1,0,-1
 303 -171 l 1,1,2
 357 -171 357 -171 366 -151 c 1,3,-1
 366 14 l 1,4,5
 323 -10 323 -10 259 -10 c 0,6,7
 226 -10 226 -10 190 0.5 c 128,-1,8
 154 11 154 11 116 35 c 128,-1,9
 78 59 78 59 54 106.5 c 128,-1,10
 30 154 30 154 30 218 c 0,11,12
 30 328 30 328 103.5 389 c 128,-1,13
 177 450 177 450 281 450 c 0,14,15
 346 450 346 450 390 420 c 1,16,17
 465 450 465 450 491 450 c 1,18,-1
 491 -151 l 1,19,20
 500 -171 500 -171 554 -171 c 1,21,-1
 554 -192 l 1,22,-1
 303 -192 l 1,0,-1
366 46 m 1,23,-1
 366 401 l 1,24,25
 330 416 330 416 287 416 c 0,26,27
 233 416 233 416 196.5 364.5 c 128,-1,28
 160 313 160 313 160 218 c 0,29,30
 160 128 160 128 188.5 76 c 128,-1,31
 217 24 217 24 269 24 c 0,32,33
 326 24 326 24 366 46 c 1,23,-1
EndSplineSet
EndChar

StartChar: r
Encoding: 114 114 85
Width: 436
GlyphClass: 2
Flags: W
AnchorPoint: "Anchor-4" 152 0 basechar 0
AnchorPoint: "Anchor-1" 251 515 basechar 0
LayerCount: 2
Fore
SplineSet
24 0 m 1,0,-1
 24 21 l 1,1,2
 78 21 78 21 87 41 c 1,3,-1
 87 380 l 1,4,5
 33 384 33 384 24 384 c 1,6,-1
 24 407 l 1,7,8
 43 407 43 407 116 428.5 c 128,-1,9
 189 450 189 450 212 450 c 1,10,-1
 212 408 l 1,11,12
 264 450 264 450 311 450 c 0,13,14
 435 450 435 450 435 390 c 0,15,16
 435 366 435 366 420.5 352 c 128,-1,17
 406 338 406 338 385 338 c 0,18,19
 362 338 362 338 350 350 c 128,-1,20
 338 362 338 362 335 377 c 128,-1,21
 332 392 332 392 323.5 404 c 128,-1,22
 315 416 315 416 299 416 c 0,23,24
 261 416 261 416 212 374 c 1,25,-1
 212 41 l 1,26,27
 221 21 221 21 275 21 c 1,28,-1
 275 0 l 1,29,-1
 24 0 l 1,0,-1
EndSplineSet
EndChar

StartChar: s
Encoding: 115 115 86
Width: 397
GlyphClass: 2
Flags: W
AnchorPoint: "Anchor-5" 195 229 basechar 0
AnchorPoint: "Anchor-4" 175 0 basechar 0
AnchorPoint: "Anchor-2" 175 0 basechar 0
AnchorPoint: "Anchor-1" 202 515 basechar 0
LayerCount: 2
Fore
SplineSet
206 30 m 0,0,1
 274 30 274 30 274 92 c 0,2,3
 274 109 274 109 250 125.5 c 128,-1,4
 226 142 226 142 192 158.5 c 128,-1,5
 158 175 158 175 124 196 c 128,-1,6
 90 217 90 217 66 251.5 c 128,-1,7
 42 286 42 286 42 329 c 0,8,9
 42 385 42 385 84.5 417.5 c 128,-1,10
 127 450 127 450 186 450 c 0,11,12
 220 450 220 450 256 435 c 128,-1,13
 292 420 292 420 297 420 c 0,14,15
 309 420 309 420 309 440 c 1,16,-1
 332 440 l 1,17,-1
 342 294 l 1,18,-1
 320 294 l 1,19,20
 310 336 310 336 268.5 376 c 128,-1,21
 227 416 227 416 189 416 c 0,22,23
 118 416 118 416 118 364 c 0,24,25
 118 346 118 346 157 322.5 c 128,-1,26
 196 299 196 299 242 277 c 128,-1,27
 288 255 288 255 327 214 c 128,-1,28
 366 173 366 173 366 124 c 0,29,30
 366 62 366 62 319 26 c 128,-1,31
 272 -10 272 -10 198 -10 c 0,32,33
 162 -10 162 -10 125 5 c 128,-1,34
 88 20 88 20 84 20 c 0,35,36
 72 20 72 20 72 0 c 1,37,-1
 48 0 l 1,38,-1
 38 153 l 1,39,-1
 60 153 l 1,40,41
 70 113 70 113 120.5 71.5 c 128,-1,42
 171 30 171 30 206 30 c 0,0,1
EndSplineSet
EndChar

StartChar: t
Encoding: 116 116 87
Width: 354
GlyphClass: 2
Flags: W
AnchorPoint: "Anchor-4" 212 0 basechar 0
AnchorPoint: "Anchor-2" 212 0 basechar 0
AnchorPoint: "Anchor-1" 186 620 basechar 0
LayerCount: 2
Fore
SplineSet
208 585 m 1,0,-1
 208 440 l 1,1,-1
 294 440 l 1,2,-1
 294 410 l 1,3,-1
 208 410 l 1,4,-1
 208 92 l 2,5,6
 208 61 208 61 219 44.5 c 128,-1,7
 230 28 230 28 260 28 c 0,8,9
 278 28 278 28 296.5 45.5 c 128,-1,10
 315 63 315 63 322 94 c 1,11,-1
 346 82 l 1,12,13
 325 -10 325 -10 226 -10 c 0,14,15
 148 -10 148 -10 112.5 25.5 c 128,-1,16
 77 61 77 61 77 142 c 2,17,-1
 77 410 l 1,18,-1
 7 410 l 1,19,-1
 7 440 l 1,20,21
 66 440 66 440 110 484.5 c 128,-1,22
 154 529 154 529 154 585 c 1,23,-1
 208 585 l 1,0,-1
EndSplineSet
EndChar

StartChar: u
Encoding: 117 117 88
Width: 570
GlyphClass: 2
Flags: W
AnchorPoint: "Anchor-5" 280 246 basechar 0
AnchorPoint: "Anchor-4" 285 0 basechar 0
AnchorPoint: "Anchor-3" 391 0 basechar 0
AnchorPoint: "Anchor-2" 273 0 basechar 0
AnchorPoint: "Anchor-1" 281 515 basechar 0
AnchorPoint: "Anchor-0" 489 313 basechar 0
LayerCount: 2
Fore
SplineSet
493 60 m 1,0,1
 547 56 547 56 556 56 c 1,2,-1
 556 33 l 1,3,4
 537 33 537 33 464 11.5 c 128,-1,5
 391 -10 391 -10 368 -10 c 1,6,-1
 368 19 l 1,7,8
 317 -10 317 -10 266 -10 c 0,9,10
 73 -10 73 -10 73 132 c 2,11,-1
 73 399 l 1,12,13
 64 419 64 419 10 419 c 1,14,-1
 10 440 l 1,15,-1
 198 440 l 1,16,-1
 198 125 l 2,17,18
 198 104 198 104 198.5 92.5 c 128,-1,19
 199 81 199 81 203 66 c 128,-1,20
 207 51 207 51 214.5 43 c 128,-1,21
 222 35 222 35 236.5 29.5 c 128,-1,22
 251 24 251 24 272 24 c 0,23,24
 321 24 321 24 368 51 c 1,25,-1
 368 399 l 1,26,27
 359 419 359 419 305 419 c 1,28,-1
 305 440 l 1,29,-1
 493 440 l 1,30,-1
 493 60 l 1,0,1
EndSplineSet
EndChar

StartChar: v
Encoding: 118 118 89
Width: 504
GlyphClass: 2
Flags: W
AnchorPoint: "Anchor-4" 251 0 basechar 0
AnchorPoint: "Anchor-1" 273 515 basechar 0
LayerCount: 2
Fore
SplineSet
210 0 m 1,0,-1
 51 399 l 2,1,2
 42 419 42 419 -12 419 c 1,3,-1
 -12 440 l 1,4,-1
 217 440 l 1,5,-1
 217 419 l 1,6,7
 188 419 188 419 175 415 c 1,8,-1
 294 122 l 1,9,-1
 408 408 l 1,10,11
 394 419 394 419 352 419 c 1,12,-1
 352 440 l 1,13,-1
 516 440 l 1,14,-1
 516 419 l 1,15,16
 461 419 461 419 453 399 c 2,17,-1
 294 0 l 1,18,-1
 210 0 l 1,0,-1
EndSplineSet
EndChar

StartChar: w
Encoding: 119 119 90
Width: 816
GlyphClass: 2
Flags: W
AnchorPoint: "Anchor-4" 412 0 basechar 0
AnchorPoint: "Anchor-1" 405 515 basechar 0
LayerCount: 2
Fore
SplineSet
522 0 m 1,0,-1
 408 286 l 1,1,-1
 294 0 l 1,2,-1
 210 0 l 1,3,-1
 51 399 l 2,4,5
 42 419 42 419 -12 419 c 1,6,-1
 -12 440 l 1,7,-1
 217 440 l 1,8,-1
 217 419 l 1,9,10
 188 419 188 419 175 415 c 1,11,-1
 294 122 l 1,12,-1
 384 347 l 1,13,-1
 363 399 l 2,14,15
 354 419 354 419 300 419 c 1,16,-1
 300 440 l 1,17,-1
 529 440 l 1,18,-1
 529 419 l 1,19,20
 500 419 500 419 487 415 c 1,21,-1
 606 122 l 1,22,-1
 720 408 l 1,23,24
 706 419 706 419 664 419 c 1,25,-1
 664 440 l 1,26,-1
 828 440 l 1,27,-1
 828 419 l 1,28,29
 777 419 777 419 767 403 c 1,30,-1
 606 0 l 1,31,-1
 522 0 l 1,0,-1
EndSplineSet
EndChar

StartChar: x
Encoding: 120 120 91
Width: 485
GlyphClass: 2
Flags: W
LayerCount: 2
Fore
SplineSet
461 440 m 1,0,-1
 461 419 l 1,1,2
 407 419 407 419 394 400 c 1,3,-1
 292 265 l 1,4,-1
 435 35 l 2,5,6
 444 21 444 21 494 21 c 1,7,-1
 494 0 l 1,8,-1
 265 0 l 1,9,-1
 265 21 l 1,10,11
 290 21 290 21 303 24 c 1,12,-1
 216 164 l 1,13,-1
 114 27 l 1,14,15
 128 21 128 21 162 21 c 1,16,-1
 162 0 l 1,17,-1
 1 0 l 1,18,-1
 1 21 l 1,19,20
 55 21 55 21 69 41 c 2,21,-1
 191 204 l 1,22,-1
 66 405 l 2,23,24
 57 419 57 419 8 419 c 1,25,-1
 8 440 l 1,26,-1
 237 440 l 1,27,-1
 237 419 l 1,28,29
 213 419 213 419 198 416 c 1,30,-1
 267 305 l 1,31,-1
 348 413 l 1,32,33
 334 419 334 419 300 419 c 1,34,-1
 300 440 l 1,35,-1
 461 440 l 1,0,-1
EndSplineSet
EndChar

StartChar: y
Encoding: 121 121 92
Width: 504
GlyphClass: 2
Flags: W
AnchorPoint: "Anchor-4" 332 0 basechar 0
AnchorPoint: "Anchor-3" 366 0 basechar 0
AnchorPoint: "Anchor-1" 288 515 basechar 0
LayerCount: 2
Fore
SplineSet
217 440 m 1,0,-1
 217 419 l 1,1,2
 188 419 188 419 175 415 c 1,3,-1
 294 122 l 1,4,-1
 408 408 l 1,5,6
 394 419 394 419 352 419 c 1,7,-1
 352 440 l 1,8,-1
 516 440 l 1,9,-1
 516 419 l 1,10,11
 462 419 462 419 455 403 c 2,12,-1
 253 -102 l 2,13,14
 220 -184 220 -184 148 -184 c 0,15,16
 75 -184 75 -184 75 -136 c 0,17,18
 75 -118 75 -118 86.5 -107 c 128,-1,19
 98 -96 98 -96 119 -96 c 0,20,21
 135 -96 135 -96 147 -111 c 128,-1,22
 159 -126 159 -126 174 -126 c 0,23,24
 195 -126 195 -126 202 -108 c 2,25,-1
 228 -44 l 1,26,-1
 51 399 l 2,27,28
 42 419 42 419 -12 419 c 1,29,-1
 -12 440 l 1,30,-1
 217 440 l 1,0,-1
EndSplineSet
EndChar

StartChar: z
Encoding: 122 122 93
Width: 414
GlyphClass: 2
Flags: W
AnchorPoint: "Anchor-5" 210 236 basechar 0
AnchorPoint: "Anchor-4" 205 0 basechar 0
AnchorPoint: "Anchor-2" 205 0 basechar 0
AnchorPoint: "Anchor-1" 211 515 basechar 0
LayerCount: 2
Fore
SplineSet
382 0 m 1,0,-1
 12 0 l 1,1,-1
 244 410 l 1,2,-1
 100 410 l 1,3,4
 87 404 87 404 76 386 c 128,-1,5
 65 368 65 368 65 340 c 1,6,-1
 44 340 l 1,7,-1
 44 440 l 1,8,-1
 390 440 l 1,9,-1
 158 30 l 1,10,-1
 326 30 l 1,11,12
 339 35 339 35 350 54.5 c 128,-1,13
 361 74 361 74 361 103 c 1,14,-1
 382 103 l 1,15,-1
 382 0 l 1,0,-1
EndSplineSet
EndChar

StartChar: braceleft
Encoding: 123 123 94
Width: 275
GlyphClass: 2
Flags: W
LayerCount: 2
Fore
SplineSet
80 -61 m 0,0,1
 80 -35 80 -35 84.5 49.5 c 128,-1,2
 89 134 89 134 89 150 c 0,3,4
 89 184 89 184 71 196.5 c 128,-1,5
 53 209 53 209 14 209 c 1,6,-1
 14 232 l 1,7,8
 52 232 52 232 70.5 245 c 128,-1,9
 89 258 89 258 89 292 c 0,10,11
 89 308 89 308 84.5 392 c 128,-1,12
 80 476 80 476 80 502 c 0,13,14
 80 540 80 540 123 567 c 128,-1,15
 166 594 166 594 251 594 c 1,16,-1
 251 571 l 1,17,18
 214 571 214 571 199 558.5 c 128,-1,19
 184 546 184 546 184 511 c 0,20,21
 184 495 184 495 189.5 411 c 128,-1,22
 195 327 195 327 195 301 c 0,23,24
 195 279 195 279 167 257 c 128,-1,25
 139 235 139 235 100 221 c 1,26,27
 139 207 139 207 167 185 c 128,-1,28
 195 163 195 163 195 141 c 0,29,30
 195 115 195 115 189.5 30.5 c 128,-1,31
 184 -54 184 -54 184 -70 c 0,32,33
 184 -105 184 -105 199 -117 c 128,-1,34
 214 -129 214 -129 251 -129 c 1,35,-1
 251 -153 l 1,36,37
 166 -153 166 -153 123 -126 c 128,-1,38
 80 -99 80 -99 80 -61 c 0,0,1
EndSplineSet
EndChar

StartChar: bar
Encoding: 124 124 95
Width: 177
GlyphClass: 2
Flags: W
LayerCount: 2
Fore
SplineSet
63 650 m 1,0,-1
 114 650 l 1,1,-1
 114 -30 l 1,2,-1
 63 -30 l 1,3,-1
 63 650 l 1,0,-1
EndSplineSet
EndChar

StartChar: braceright
Encoding: 125 125 96
Width: 275
GlyphClass: 2
Flags: W
LayerCount: 2
Fore
SplineSet
195 -61 m 0,0,1
 195 -99 195 -99 152 -126 c 128,-1,2
 109 -153 109 -153 24 -153 c 1,3,-1
 24 -129 l 1,4,5
 61 -129 61 -129 76 -117 c 128,-1,6
 91 -105 91 -105 91 -70 c 0,7,8
 91 -54 91 -54 85.5 30.5 c 128,-1,9
 80 115 80 115 80 141 c 0,10,11
 80 163 80 163 108 185 c 128,-1,12
 136 207 136 207 175 221 c 1,13,14
 136 235 136 235 108 257 c 128,-1,15
 80 279 80 279 80 301 c 0,16,17
 80 327 80 327 85.5 411 c 128,-1,18
 91 495 91 495 91 511 c 0,19,20
 91 546 91 546 76 558.5 c 128,-1,21
 61 571 61 571 24 571 c 1,22,-1
 24 594 l 1,23,24
 109 594 109 594 152 567 c 128,-1,25
 195 540 195 540 195 502 c 0,26,27
 195 476 195 476 190.5 392 c 128,-1,28
 186 308 186 308 186 292 c 0,29,30
 186 258 186 258 204 245 c 128,-1,31
 222 232 222 232 261 232 c 1,32,-1
 261 209 l 1,33,34
 222 209 222 209 204 196.5 c 128,-1,35
 186 184 186 184 186 150 c 0,36,37
 186 134 186 134 190.5 49.5 c 128,-1,38
 195 -35 195 -35 195 -61 c 0,0,1
EndSplineSet
EndChar

StartChar: asciitilde
Encoding: 126 126 97
Width: 529
GlyphClass: 2
Flags: W
LayerCount: 2
Fore
SplineSet
378 208 m 0,0,1
 349 208 349 208 255.5 237.5 c 128,-1,2
 162 267 162 267 144 267 c 0,3,4
 105 267 105 267 91.5 254.5 c 128,-1,5
 78 242 78 242 78 208 c 1,6,-1
 52 208 l 1,7,8
 52 340 52 340 154 340 c 0,9,10
 183 340 183 340 277 310.5 c 128,-1,11
 371 281 371 281 389 281 c 0,12,13
 428 281 428 281 441.5 293.5 c 128,-1,14
 455 306 455 306 455 340 c 1,15,-1
 481 340 l 1,16,17
 481 208 481 208 378 208 c 0,0,1
EndSplineSet
EndChar

StartChar: exclamdown
Encoding: 161 161 99
Width: 235
GlyphClass: 2
Flags: W
LayerCount: 2
Fore
SplineSet
186 468 m 0,0,1
 186 439 186 439 165.5 421.5 c 128,-1,2
 145 404 145 404 118 404 c 0,3,4
 94 404 94 404 71 420.5 c 128,-1,5
 48 437 48 437 48 465 c 0,6,7
 48 494 48 494 69 512 c 128,-1,8
 90 530 90 530 117 530 c 0,9,10
 141 530 141 530 163.5 513 c 128,-1,11
 186 496 186 496 186 468 c 0,0,1
118 314 m 128,-1,13
 144 314 144 314 158 214 c 0,14,15
 184 32 184 32 184 -42 c 0,16,17
 184 -76 184 -76 163.5 -93 c 128,-1,18
 143 -110 143 -110 118 -110 c 128,-1,19
 93 -110 93 -110 72.5 -93 c 128,-1,20
 52 -76 52 -76 52 -42 c 0,21,22
 52 -6 52 -6 63 90.5 c 128,-1,23
 74 187 74 187 78 214 c 0,24,12
 92 314 92 314 118 314 c 128,-1,13
EndSplineSet
EndChar

StartChar: cent
Encoding: 162 162 100
Width: 472
GlyphClass: 2
Flags: W
LayerCount: 2
Fore
SplineSet
291 575 m 1,0,-1
 337 566 l 1,1,-1
 316 445 l 1,2,3
 419 426 419 426 419 344 c 0,4,5
 419 321 419 321 407 307.5 c 128,-1,6
 395 294 395 294 376 294 c 0,7,8
 358 294 358 294 344.5 303 c 128,-1,9
 331 312 331 312 331 329 c 0,10,11
 331 350 331 350 341.5 360 c 128,-1,12
 352 370 352 370 366 370 c 1,13,14
 356 406 356 406 311 416 c 1,15,-1
 244 36 l 1,16,17
 262 28 262 28 281 28 c 0,18,19
 368 28 368 28 421 94 c 1,20,-1
 445 82 l 1,21,22
 416 34 416 34 369.5 12 c 128,-1,23
 323 -10 323 -10 247 -10 c 2,24,-1
 236 -10 l 1,25,-1
 215 -128 l 1,26,-1
 168 -119 l 1,27,-1
 189 -3 l 1,28,29
 121 13 121 13 76 72 c 128,-1,30
 31 131 31 131 31 242 c 0,31,32
 31 329 31 329 92.5 389.5 c 128,-1,33
 154 450 154 450 254 450 c 2,34,-1
 269 450 l 1,35,-1
 291 575 l 1,0,-1
202 70 m 1,36,-1
 264 420 l 1,37,38
 151 420 151 420 151 246 c 0,39,40
 151 135 151 135 202 70 c 1,36,-1
EndSplineSet
EndChar

StartChar: sterling
Encoding: 163 163 101
Width: 531
GlyphClass: 2
Flags: W
LayerCount: 2
Fore
SplineSet
342 87 m 0,0,1
 386 87 386 87 417.5 93.5 c 128,-1,2
 449 100 449 100 461.5 108.5 c 128,-1,3
 474 117 474 117 482.5 123.5 c 128,-1,4
 491 130 491 130 493 130 c 0,5,6
 503 130 503 130 503 118 c 0,7,8
 503 113 503 113 498.5 100.5 c 128,-1,9
 494 88 494 88 481.5 69 c 128,-1,10
 469 50 469 50 452.5 33 c 128,-1,11
 436 16 436 16 407.5 4 c 128,-1,12
 379 -8 379 -8 346 -8 c 0,13,14
 285 -8 285 -8 229 39 c 1,15,16
 185 -10 185 -10 128 -10 c 0,17,18
 79 -10 79 -10 53.5 17 c 128,-1,19
 28 44 28 44 28 82 c 0,20,21
 28 110 28 110 55.5 136 c 128,-1,22
 83 162 83 162 112 162 c 0,23,24
 135 162 135 162 162 153 c 1,25,26
 162 183 162 183 154.5 243 c 128,-1,27
 147 303 147 303 146 345 c 1,28,-1
 88 345 l 1,29,-1
 88 389 l 1,30,-1
 147 389 l 1,31,32
 155 595 155 595 299 595 c 0,33,34
 365 595 365 595 407 572 c 128,-1,35
 449 549 449 549 449 508 c 0,36,37
 449 490 449 490 435.5 479 c 128,-1,38
 422 468 422 468 406 468 c 128,-1,39
 390 468 390 468 378.5 479 c 128,-1,40
 367 490 367 490 367 507 c 0,41,42
 367 521 367 521 377 531 c 1,43,44
 377 547 377 547 359 556 c 128,-1,45
 341 565 341 565 320 565 c 0,46,47
 292 565 292 565 282 528 c 128,-1,48
 272 491 272 491 271 389 c 1,49,-1
 352 389 l 1,50,-1
 352 345 l 1,51,-1
 272 345 l 1,52,53
 273 321 273 321 277 267.5 c 128,-1,54
 281 214 281 214 281 178 c 0,55,56
 281 138 281 138 267 101 c 1,57,58
 304 87 304 87 342 87 c 0,0,1
161 104 m 1,59,60
 134 128 134 128 112 128 c 0,61,62
 93 128 93 128 77.5 114 c 128,-1,63
 62 100 62 100 62 81 c 0,64,65
 62 56 62 56 79.5 40 c 128,-1,66
 97 24 97 24 124 24 c 0,67,68
 156 24 156 24 161 104 c 1,59,60
EndSplineSet
EndChar

StartChar: currency
Encoding: 164 164 102
Width: 503
GlyphClass: 2
Flags: W
LayerCount: 2
Fore
SplineSet
109 262 m 128,-1,1
 109 203 109 203 151 161 c 128,-1,2
 193 119 193 119 252 119 c 128,-1,3
 311 119 311 119 353 161 c 128,-1,4
 395 203 395 203 395 262 c 128,-1,5
 395 321 395 321 353 363 c 128,-1,6
 311 405 311 405 252 405 c 128,-1,7
 193 405 193 405 151 363 c 128,-1,0
 109 321 109 321 109 262 c 128,-1,1
103 147 m 1,8,9
 64 199 64 199 64 262 c 0,10,11
 64 327 64 327 105 379 c 1,12,-1
 49 434 l 1,13,-1
 81 466 l 1,14,-1
 136 410 l 1,15,16
 187 450 187 450 252 450 c 0,17,18
 315 450 315 450 367 411 c 1,19,-1
 421 466 l 1,20,-1
 453 434 l 1,21,-1
 399 380 l 1,22,23
 440 330 440 330 440 262 c 0,24,25
 440 197 440 197 400 146 c 1,26,-1
 453 94 l 1,27,-1
 421 62 l 1,28,-1
 369 115 l 1,29,30
 317 74 317 74 252 74 c 0,31,32
 184 74 184 74 134 115 c 1,33,-1
 81 62 l 1,34,-1
 49 94 l 1,35,-1
 103 147 l 1,8,9
EndSplineSet
EndChar

StartChar: yen
Encoding: 165 165 103
Width: 559
GlyphClass: 2
Flags: W
LayerCount: 2
Fore
SplineSet
182 0 m 1,0,-1
 182 21 l 1,1,2
 236 21 236 21 245 41 c 1,3,-1
 245 76 l 1,4,-1
 158 76 l 1,5,-1
 158 120 l 1,6,-1
 245 120 l 1,7,-1
 245 143 l 1,8,-1
 232 176 l 1,9,-1
 158 176 l 1,10,-1
 158 220 l 1,11,-1
 214 220 l 1,12,-1
 85 544 l 2,13,14
 76 564 76 564 22 564 c 1,15,-1
 22 585 l 1,16,-1
 251 585 l 1,17,-1
 251 564 l 1,18,19
 222 564 222 564 209 560 c 1,20,-1
 321 285 l 1,21,-1
 427 553 l 1,22,23
 413 564 413 564 371 564 c 1,24,-1
 371 585 l 1,25,-1
 535 585 l 1,26,-1
 535 564 l 1,27,28
 480 564 480 564 473 545 c 2,29,-1
 343 220 l 1,30,-1
 422 220 l 1,31,-1
 422 176 l 1,32,-1
 337 176 l 1,33,-1
 337 120 l 1,34,-1
 422 120 l 1,35,-1
 422 76 l 1,36,-1
 337 76 l 1,37,-1
 337 41 l 1,38,39
 346 21 346 21 400 21 c 1,40,-1
 400 0 l 1,41,-1
 182 0 l 1,0,-1
EndSplineSet
EndChar

StartChar: brokenbar
Encoding: 166 166 104
Width: 183
GlyphClass: 2
Flags: W
LayerCount: 2
Fore
SplineSet
66 650 m 1,0,-1
 117 650 l 1,1,-1
 117 362 l 1,2,-1
 66 362 l 1,3,-1
 66 650 l 1,0,-1
66 258 m 1,4,-1
 117 258 l 1,5,-1
 117 -30 l 1,6,-1
 66 -30 l 1,7,-1
 66 258 l 1,4,-1
EndSplineSet
EndChar

StartChar: section
Encoding: 167 167 105
Width: 402
GlyphClass: 2
Flags: W
LayerCount: 2
Fore
SplineSet
306 458 m 0,0,1
 292 458 292 458 281 469 c 128,-1,2
 270 480 270 480 270 494 c 0,3,4
 270 524 270 524 254 550 c 128,-1,5
 238 576 238 576 211 576 c 0,6,7
 180 576 180 576 166.5 564 c 128,-1,8
 153 552 153 552 153 516 c 0,9,10
 153 496 153 496 186.5 455 c 128,-1,11
 220 414 220 414 259.5 373.5 c 128,-1,12
 299 333 299 333 332.5 283.5 c 128,-1,13
 366 234 366 234 366 198 c 0,14,15
 366 79 366 79 273 44 c 1,16,17
 340 -30 340 -30 340 -84 c 0,18,19
 340 -134 340 -134 296.5 -161 c 128,-1,20
 253 -188 253 -188 183 -188 c 0,21,22
 138 -188 138 -188 100 -152.5 c 128,-1,23
 62 -117 62 -117 62 -90 c 0,24,25
 62 -74 62 -74 71 -62 c 128,-1,26
 80 -50 80 -50 96 -50 c 0,27,28
 110 -50 110 -50 121 -61 c 128,-1,29
 132 -72 132 -72 132 -86 c 0,30,31
 132 -116 132 -116 148 -142 c 128,-1,32
 164 -168 164 -168 191 -168 c 0,33,34
 222 -168 222 -168 235.5 -156 c 128,-1,35
 249 -144 249 -144 249 -108 c 0,36,37
 249 -88 249 -88 215.5 -47 c 128,-1,38
 182 -6 182 -6 142.5 34.5 c 128,-1,39
 103 75 103 75 69.5 124.5 c 128,-1,40
 36 174 36 174 36 210 c 0,41,42
 36 329 36 329 129 364 c 1,43,44
 62 438 62 438 62 492 c 0,45,46
 62 542 62 542 105.5 569 c 128,-1,47
 149 596 149 596 219 596 c 0,48,49
 264 596 264 596 302 560.5 c 128,-1,50
 340 525 340 525 340 498 c 0,51,52
 340 482 340 482 331 470 c 128,-1,53
 322 458 322 458 306 458 c 0,0,1
245 74 m 1,54,55
 281 94 281 94 281 140 c 0,56,57
 281 172 281 172 262 207 c 128,-1,58
 243 242 243 242 223.5 264 c 128,-1,59
 204 286 204 286 168 323 c 0,60,61
 161 330 161 330 157 334 c 1,62,63
 121 314 121 314 121 268 c 0,64,65
 121 236 121 236 140 201 c 128,-1,66
 159 166 159 166 178.5 144 c 128,-1,67
 198 122 198 122 234 85 c 0,68,69
 241 78 241 78 245 74 c 1,54,55
EndSplineSet
EndChar

StartChar: dieresis
Encoding: 168 168 106
Width: 402
GlyphClass: 2
Flags: W
LayerCount: 2
Fore
SplineSet
238 559 m 128,-1,1
 238 583 238 583 255 600.5 c 128,-1,2
 272 618 272 618 296 618 c 128,-1,3
 320 618 320 618 337.5 600.5 c 128,-1,4
 355 583 355 583 355 559 c 128,-1,5
 355 535 355 535 337.5 517.5 c 128,-1,6
 320 500 320 500 296 500 c 128,-1,7
 272 500 272 500 255 517.5 c 128,-1,0
 238 535 238 535 238 559 c 128,-1,1
47 559 m 128,-1,9
 47 583 47 583 64.5 600.5 c 128,-1,10
 82 618 82 618 106 618 c 128,-1,11
 130 618 130 618 147 600.5 c 128,-1,12
 164 583 164 583 164 559 c 128,-1,13
 164 535 164 535 147 517.5 c 128,-1,14
 130 500 130 500 106 500 c 128,-1,15
 82 500 82 500 64.5 517.5 c 128,-1,8
 47 535 47 535 47 559 c 128,-1,9
EndSplineSet
EndChar

StartChar: copyright
Encoding: 169 169 107
Width: 636
GlyphClass: 2
Flags: W
LayerCount: 2
Fore
SplineSet
69 268 m 128,-1,1
 69 165 69 165 142 92 c 128,-1,2
 215 19 215 19 318 19 c 128,-1,3
 421 19 421 19 494 92 c 128,-1,4
 567 165 567 165 567 268 c 128,-1,5
 567 371 567 371 494 444 c 128,-1,6
 421 517 421 517 318 517 c 128,-1,7
 215 517 215 517 142 444 c 128,-1,0
 69 371 69 371 69 268 c 128,-1,1
42 268 m 128,-1,9
 42 382 42 382 123 463 c 128,-1,10
 204 544 204 544 318 544 c 128,-1,11
 432 544 432 544 513 463 c 128,-1,12
 594 382 594 382 594 268 c 128,-1,13
 594 154 594 154 513 73 c 128,-1,14
 432 -8 432 -8 318 -8 c 128,-1,15
 204 -8 204 -8 123 73 c 128,-1,8
 42 154 42 154 42 268 c 128,-1,9
338 395 m 0,16,17
 297 395 297 395 275 364.5 c 128,-1,18
 253 334 253 334 253 279 c 0,19,20
 253 213 253 213 277 181.5 c 128,-1,21
 301 150 301 150 339 150 c 0,22,23
 388 150 388 150 408 202 c 1,24,-1
 439 189 l 1,25,26
 411 116 411 116 329 116 c 0,27,28
 256 116 256 116 213.5 157.5 c 128,-1,29
 171 199 171 199 171 268 c 0,30,31
 171 351 171 351 220 390 c 128,-1,32
 269 429 269 429 337 429 c 0,33,34
 350 429 350 429 362.5 425.5 c 128,-1,35
 375 422 375 422 383 418 c 128,-1,36
 391 414 391 414 392 414 c 128,-1,37
 393 414 393 414 393 424 c 1,38,-1
 415 424 l 1,39,-1
 421 339 l 1,40,-1
 401 339 l 1,41,42
 396 356 396 356 390.5 366.5 c 128,-1,43
 385 377 385 377 371.5 386 c 128,-1,44
 358 395 358 395 338 395 c 0,16,17
EndSplineSet
EndChar

StartChar: ordfeminine
Encoding: 170 170 108
Width: 402
GlyphClass: 2
Flags: W
LayerCount: 2
Fore
SplineSet
56 155 m 1,0,-1
 353 155 l 1,1,-1
 353 129 l 1,2,-1
 56 129 l 1,3,-1
 56 155 l 1,0,-1
119 417 m 1,4,5
 133 417 133 417 133 394 c 0,6,7
 133 375 133 375 101 375 c 0,8,9
 89 375 89 375 80 382.5 c 128,-1,10
 71 390 71 390 71 402 c 0,11,12
 71 430 71 430 101.5 446.5 c 128,-1,13
 132 463 132 463 180 463 c 0,14,15
 237 463 237 463 269 437 c 128,-1,16
 301 411 301 411 301 371 c 2,17,-1
 301 262 l 2,18,19
 301 228 301 228 322 228 c 128,-1,20
 343 228 343 228 343 241 c 1,21,-1
 353 241 l 1,22,23
 353 211 353 211 287 211 c 0,24,25
 257 211 257 211 240 231 c 1,26,27
 202 210 202 210 157 210 c 0,28,29
 56 210 56 210 56 277 c 0,30,31
 56 291 56 291 66.5 302 c 128,-1,32
 77 313 77 313 98.5 320.5 c 128,-1,33
 120 328 120 328 137.5 332.5 c 128,-1,34
 155 337 155 337 185 342.5 c 128,-1,35
 215 348 215 348 226 351 c 1,36,37
 226 402 226 402 216.5 422.5 c 128,-1,38
 207 443 207 443 174 443 c 0,39,40
 126 443 126 443 119 417 c 1,4,5
232 244 m 1,41,42
 226 258 226 258 226 277 c 2,43,-1
 226 339 l 1,44,45
 164 322 164 322 148 308 c 0,46,47
 133 295 133 295 133 276 c 0,48,49
 133 251 133 251 145 240 c 128,-1,50
 157 229 157 229 172 229 c 0,51,52
 200 229 200 229 232 244 c 1,41,42
EndSplineSet
EndChar

StartChar: guillemotleft
Encoding: 171 171 109
Width: 439
GlyphClass: 2
Flags: W
LayerCount: 2
Fore
SplineSet
210 331 m 2,0,-1
 384 441 l 1,1,-1
 384 399 l 1,2,-1
 284 299 l 1,3,-1
 384 199 l 1,4,-1
 384 157 l 1,5,-1
 210 267 l 2,6,7
 193 278 193 278 193 299 c 0,8,9
 193 321 193 321 210 331 c 2,0,-1
50 331 m 2,10,-1
 224 441 l 1,11,-1
 224 399 l 1,12,-1
 124 299 l 1,13,-1
 224 199 l 1,14,-1
 224 157 l 1,15,-1
 50 267 l 2,16,17
 33 278 33 278 33 299 c 0,18,19
 33 321 33 321 50 331 c 2,10,-1
EndSplineSet
EndChar

StartChar: logicalnot
Encoding: 172 172 110
Width: 416
GlyphClass: 2
Flags: W
LayerCount: 2
Fore
SplineSet
311 296 m 1,0,-1
 61 296 l 1,1,-1
 61 340 l 1,2,-1
 353 340 l 1,3,-1
 353 208 l 1,4,-1
 311 208 l 1,5,-1
 311 296 l 1,0,-1
EndSplineSet
EndChar

StartChar: uni00AD
Encoding: 173 173 111
Width: 372
GlyphClass: 2
Flags: W
LayerCount: 2
Fore
SplineSet
54 340 m 1,0,-1
 318 340 l 1,1,-1
 318 296 l 1,2,-1
 54 296 l 1,3,-1
 54 340 l 1,0,-1
EndSplineSet
EndChar

StartChar: registered
Encoding: 174 174 112
Width: 636
GlyphClass: 2
Flags: W
LayerCount: 2
Fore
SplineSet
69 268 m 128,-1,1
 69 165 69 165 142 92 c 128,-1,2
 215 19 215 19 318 19 c 128,-1,3
 421 19 421 19 494 92 c 128,-1,4
 567 165 567 165 567 268 c 128,-1,5
 567 371 567 371 494 444 c 128,-1,6
 421 517 421 517 318 517 c 128,-1,7
 215 517 215 517 142 444 c 128,-1,0
 69 371 69 371 69 268 c 128,-1,1
42 268 m 128,-1,9
 42 382 42 382 123 463 c 128,-1,10
 204 544 204 544 318 544 c 128,-1,11
 432 544 432 544 513 463 c 128,-1,12
 594 382 594 382 594 268 c 128,-1,13
 594 154 594 154 513 73 c 128,-1,14
 432 -8 432 -8 318 -8 c 128,-1,15
 204 -8 204 -8 123 73 c 128,-1,8
 42 154 42 154 42 268 c 128,-1,9
178 122 m 1,16,-1
 178 142 l 1,17,18
 204 142 204 142 209 149 c 1,19,-1
 209 398 l 1,20,21
 206 404 206 404 178 404 c 1,22,-1
 178 424 l 1,23,-1
 304 424 l 2,24,25
 369 424 369 424 405.5 400 c 128,-1,26
 442 376 442 376 442 346 c 0,27,28
 442 286 442 286 379 264 c 1,29,-1
 443 150 l 1,30,31
 446 142 446 142 468 142 c 1,32,-1
 468 122 l 1,33,-1
 442 122 l 2,34,35
 405 122 405 122 389 127.5 c 128,-1,36
 373 133 373 133 363 151 c 2,37,-1
 304 255 l 1,38,-1
 281 255 l 1,39,-1
 281 149 l 1,40,41
 284 142 284 142 312 142 c 1,42,-1
 312 122 l 1,43,-1
 178 122 l 1,16,-1
281 398 m 1,44,-1
 281 282 l 1,45,-1
 302 282 l 2,46,47
 366 282 366 282 366 345 c 0,48,49
 366 369 366 369 347 383.5 c 128,-1,50
 328 398 328 398 296 398 c 2,51,-1
 281 398 l 1,44,-1
EndSplineSet
EndChar

StartChar: macron
Encoding: 175 175 113
Width: 384
GlyphClass: 2
Flags: W
LayerCount: 2
Fore
SplineSet
60 568 m 1,0,-1
 324 568 l 1,1,-1
 324 514 l 1,2,-1
 60 514 l 1,3,-1
 60 568 l 1,0,-1
EndSplineSet
EndChar

StartChar: degree
Encoding: 176 176 114
Width: 296
GlyphClass: 2
Flags: W
LayerCount: 2
Fore
SplineSet
75 516 m 128,-1,1
 75 486 75 486 96.5 465 c 128,-1,2
 118 444 118 444 148 444 c 128,-1,3
 178 444 178 444 199.5 465 c 128,-1,4
 221 486 221 486 221 516 c 128,-1,5
 221 546 221 546 199.5 567.5 c 128,-1,6
 178 589 178 589 148 589 c 128,-1,7
 118 589 118 589 96.5 567.5 c 128,-1,0
 75 546 75 546 75 516 c 128,-1,1
34 516 m 128,-1,9
 34 562 34 562 68 596 c 128,-1,10
 102 630 102 630 148 630 c 128,-1,11
 194 630 194 630 228 596 c 128,-1,12
 262 562 262 562 262 516 c 128,-1,13
 262 470 262 470 228.5 436.5 c 128,-1,14
 195 403 195 403 148 403 c 128,-1,15
 101 403 101 403 67.5 436.5 c 128,-1,8
 34 470 34 470 34 516 c 128,-1,9
EndSplineSet
EndChar

StartChar: plusminus
Encoding: 177 177 115
Width: 408
GlyphClass: 2
Flags: W
LayerCount: 2
Fore
SplineSet
61 178 m 1,0,-1
 347 178 l 1,1,-1
 347 134 l 1,2,-1
 61 134 l 1,3,-1
 61 178 l 1,0,-1
226 348 m 1,4,-1
 226 247 l 1,5,-1
 182 247 l 1,6,-1
 182 348 l 1,7,-1
 61 348 l 1,8,-1
 61 392 l 1,9,-1
 182 392 l 1,10,-1
 182 493 l 1,11,-1
 226 493 l 1,12,-1
 226 392 l 1,13,-1
 347 392 l 1,14,-1
 347 348 l 1,15,-1
 226 348 l 1,4,-1
EndSplineSet
EndChar

StartChar: uni00B2
Encoding: 178 178 116
Width: 352
GlyphClass: 2
Flags: W
LayerCount: 2
Fore
SplineSet
259 346 m 1,0,1
 289 358 289 358 297 379 c 1,2,-1
 319 379 l 1,3,-1
 291 280 l 1,4,-1
 32 280 l 1,5,-1
 32 285 l 2,6,7
 32 297 32 297 60.5 326.5 c 128,-1,8
 89 356 89 356 123.5 388 c 128,-1,9
 158 420 158 420 186.5 465 c 128,-1,10
 215 510 215 510 215 548 c 0,11,12
 215 575 215 575 201 592.5 c 128,-1,13
 187 610 187 610 162 610 c 0,14,15
 127 610 127 610 104.5 600 c 128,-1,16
 82 590 82 590 75 578 c 128,-1,17
 68 566 68 566 61.5 556 c 128,-1,18
 55 546 55 546 49 546 c 0,19,20
 39 546 39 546 39 557 c 0,21,22
 39 583 39 583 73.5 621.5 c 128,-1,23
 108 660 108 660 170 660 c 0,24,25
 237 660 237 660 268.5 632.5 c 128,-1,26
 300 605 300 605 300 557 c 0,27,28
 300 530 300 530 277 495 c 128,-1,29
 254 460 254 460 226.5 433.5 c 128,-1,30
 199 407 199 407 170 380.5 c 128,-1,31
 141 354 141 354 135 346 c 1,32,-1
 259 346 l 1,0,1
EndSplineSet
EndChar

StartChar: uni00B3
Encoding: 179 179 117
Width: 346
GlyphClass: 2
Flags: W
LayerCount: 2
Fore
SplineSet
148 460 m 0,0,1
 141 460 141 460 135.5 464 c 128,-1,2
 130 468 130 468 130 473 c 0,3,4
 130 482 130 482 138 482 c 1,5,6
 158 488 158 488 167 491.5 c 128,-1,7
 176 495 176 495 189 503 c 128,-1,8
 202 511 202 511 207 523.5 c 128,-1,9
 212 536 212 536 212 554 c 0,10,11
 212 580 212 580 197 595 c 128,-1,12
 182 610 182 610 154 610 c 0,13,14
 125 610 125 610 107 601.5 c 128,-1,15
 89 593 89 593 83.5 583.5 c 128,-1,16
 78 574 78 574 72.5 565.5 c 128,-1,17
 67 557 67 557 61 557 c 0,18,19
 51 557 51 557 51 569 c 0,20,21
 51 593 51 593 80.5 626.5 c 128,-1,22
 110 660 110 660 162 660 c 0,23,24
 289 660 289 660 289 563 c 0,25,26
 289 520 289 520 240 491 c 1,27,28
 270 479 270 479 288.5 455 c 128,-1,29
 307 431 307 431 307 402 c 0,30,31
 307 344 307 344 275.5 310 c 128,-1,32
 244 276 244 276 164 276 c 0,33,34
 127 276 127 276 95 288 c 128,-1,35
 63 300 63 300 48 313.5 c 128,-1,36
 33 327 33 327 33 336 c 0,37,38
 33 359 33 359 39 368 c 128,-1,39
 45 377 45 377 61 377 c 0,40,41
 72 377 72 377 79.5 366 c 128,-1,42
 87 355 87 355 92 341.5 c 128,-1,43
 97 328 97 328 114 317 c 128,-1,44
 131 306 131 306 160 306 c 0,45,46
 194 306 194 306 213 332 c 128,-1,47
 232 358 232 358 232 388 c 0,48,49
 232 413 232 413 217.5 438.5 c 128,-1,50
 203 464 203 464 181 464 c 0,51,52
 173 464 173 464 163.5 462 c 128,-1,53
 154 460 154 460 148 460 c 0,0,1
EndSplineSet
EndChar

StartChar: acute
Encoding: 180 180 118
Width: 300
GlyphClass: 2
Flags: W
LayerCount: 2
Fore
SplineSet
83 662 m 1,0,-1
 209 662 l 1,1,-1
 75 500 l 1,2,-1
 29 500 l 1,3,-1
 83 662 l 1,0,-1
EndSplineSet
EndChar

StartChar: uni00B5
Encoding: 181 181 119
Width: 611
GlyphClass: 2
Flags: W
LayerCount: 2
Fore
SplineSet
500 440 m 1,0,-1
 500 83 l 2,1,2
 500 51 500 51 510.5 35.5 c 128,-1,3
 521 20 521 20 536 20 c 0,4,5
 549 20 549 20 559.5 27.5 c 128,-1,6
 570 35 570 35 570 45 c 1,7,-1
 588 45 l 1,8,9
 588 -10 588 -10 479 -10 c 0,10,11
 416 -10 416 -10 390 41 c 1,12,13
 345 -10 345 -10 277 -10 c 0,14,15
 170 -10 170 -10 116 37 c 1,16,-1
 116 -33 l 2,17,18
 116 -62 116 -62 126.5 -80 c 128,-1,19
 137 -98 137 -98 149 -104.5 c 128,-1,20
 161 -111 161 -111 171.5 -123.5 c 128,-1,21
 182 -136 182 -136 182 -155 c 0,22,23
 182 -177 182 -177 167 -188.5 c 128,-1,24
 152 -200 152 -200 132 -200 c 0,25,26
 111 -200 111 -200 92.5 -184.5 c 128,-1,27
 74 -169 74 -169 74 -134 c 2,28,-1
 74 440 l 1,29,-1
 199 440 l 1,30,-1
 199 125 l 2,31,32
 199 24 199 24 291 24 c 0,33,34
 340 24 340 24 379 69 c 1,35,36
 375 85 375 85 375 111 c 2,37,-1
 375 440 l 1,38,-1
 500 440 l 1,0,-1
EndSplineSet
EndChar

StartChar: paragraph
Encoding: 182 182 120
Width: 531
GlyphClass: 2
Flags: W
LayerCount: 2
Fore
SplineSet
126 0 m 1,0,-1
 126 21 l 1,1,2
 180 21 180 21 189 41 c 1,3,-1
 189 268 l 1,4,5
 113 275 113 275 71 318 c 128,-1,6
 29 361 29 361 29 426 c 0,7,8
 29 453 29 453 40.5 479.5 c 128,-1,9
 52 506 52 506 76 530.5 c 128,-1,10
 100 555 100 555 144.5 570 c 128,-1,11
 189 585 189 585 247 585 c 2,12,-1
 487 585 l 1,13,-1
 487 564 l 1,14,15
 433 564 433 564 424 544 c 1,16,-1
 424 41 l 1,17,18
 433 21 433 21 487 21 c 1,19,-1
 487 0 l 1,20,-1
 332 0 l 1,21,-1
 332 551 l 1,22,-1
 281 551 l 1,23,-1
 281 0 l 1,24,-1
 126 0 l 1,0,-1
EndSplineSet
EndChar

StartChar: periodcentered
Encoding: 183 183 121
Width: 230
GlyphClass: 2
Flags: W
LayerCount: 2
Fore
SplineSet
46 302 m 0,0,1
 46 331 46 331 66.5 348.5 c 128,-1,2
 87 366 87 366 114 366 c 0,3,4
 138 366 138 366 161 349.5 c 128,-1,5
 184 333 184 333 184 305 c 0,6,7
 184 276 184 276 163 258 c 128,-1,8
 142 240 142 240 115 240 c 0,9,10
 91 240 91 240 68.5 257 c 128,-1,11
 46 274 46 274 46 302 c 0,0,1
EndSplineSet
EndChar

StartChar: cedilla
Encoding: 184 184 122
Width: 304
GlyphClass: 2
Flags: W
LayerCount: 2
Fore
SplineSet
119 12 m 1,0,-1
 167 12 l 1,1,-1
 149 -55 l 1,2,3
 168 -55 168 -55 190 -60.5 c 128,-1,4
 212 -66 212 -66 233 -82.5 c 128,-1,5
 254 -99 254 -99 254 -122 c 0,6,7
 254 -152 254 -152 225 -175.5 c 128,-1,8
 196 -199 196 -199 134 -199 c 0,9,10
 101 -199 101 -199 60 -192 c 1,11,-1
 60 -175 l 1,12,13
 78 -177 78 -177 85 -177 c 0,14,15
 152 -177 152 -177 152 -130 c 0,16,17
 152 -86 152 -86 91 -86 c 1,18,-1
 119 12 l 1,0,-1
EndSplineSet
EndChar

StartChar: uni00B9
Encoding: 185 185 123
Width: 243
GlyphClass: 2
Flags: W
LayerCount: 2
Fore
SplineSet
35 508 m 1,0,1
 120 655 120 655 141 655 c 2,2,-1
 164 655 l 1,3,-1
 164 313 l 1,4,5
 169 303 169 303 207 303 c 1,6,-1
 207 280 l 1,7,-1
 41 280 l 1,8,-1
 41 303 l 1,9,10
 77 303 77 303 83 313 c 1,11,-1
 83 530 l 1,12,13
 76 526 76 526 52 499 c 1,14,-1
 35 508 l 1,0,1
EndSplineSet
EndChar

StartChar: ordmasculine
Encoding: 186 186 124
Width: 398
GlyphClass: 2
Flags: W
LayerCount: 2
Fore
SplineSet
54 155 m 1,0,-1
 344 155 l 1,1,-1
 344 129 l 1,2,-1
 54 129 l 1,3,-1
 54 155 l 1,0,-1
133 352 m 0,4,5
 133 226 133 226 210 226 c 0,6,7
 237 226 237 226 251.5 252.5 c 128,-1,8
 266 279 266 279 266 322 c 0,9,10
 266 389 266 389 249 417.5 c 128,-1,11
 232 446 232 446 188 446 c 0,12,13
 162 446 162 446 147.5 418.5 c 128,-1,14
 133 391 133 391 133 352 c 0,4,5
202 210 m 0,15,16
 134 210 134 210 94 246 c 128,-1,17
 54 282 54 282 54 341 c 0,18,19
 54 394 54 394 90.5 428.5 c 128,-1,20
 127 463 127 463 198 463 c 128,-1,21
 269 463 269 463 306.5 428 c 128,-1,22
 344 393 344 393 344 334 c 0,23,24
 344 281 344 281 308 245.5 c 128,-1,25
 272 210 272 210 202 210 c 0,15,16
EndSplineSet
EndChar

StartChar: guillemotright
Encoding: 187 187 125
Width: 439
GlyphClass: 2
Flags: W
LayerCount: 2
Fore
SplineSet
389 267 m 2,0,-1
 215 157 l 1,1,-1
 215 199 l 1,2,-1
 315 299 l 1,3,-1
 215 399 l 1,4,-1
 215 441 l 1,5,-1
 389 331 l 2,6,7
 406 320 406 320 406 299 c 0,8,9
 406 277 406 277 389 267 c 2,0,-1
229 267 m 2,10,-1
 55 157 l 1,11,-1
 55 199 l 1,12,-1
 155 299 l 1,13,-1
 55 399 l 1,14,-1
 55 441 l 1,15,-1
 229 331 l 2,16,17
 246 320 246 320 246 299 c 0,18,19
 246 277 246 277 229 267 c 2,10,-1
EndSplineSet
EndChar

StartChar: onequarter
Encoding: 188 188 126
Width: 652
GlyphClass: 2
Flags: W
LayerCount: 2
Fore
SplineSet
30 508 m 1,0,1
 115 655 115 655 136 655 c 2,2,-1
 159 655 l 1,3,-1
 159 313 l 1,4,5
 164 303 164 303 202 303 c 1,6,-1
 202 280 l 1,7,-1
 36 280 l 1,8,-1
 36 303 l 1,9,10
 72 303 72 303 78 313 c 1,11,-1
 78 530 l 1,12,13
 71 526 71 526 47 499 c 1,14,-1
 30 508 l 1,0,1
577 375 m 1,15,-1
 577 134 l 1,16,-1
 622 134 l 1,17,-1
 622 105 l 1,18,-1
 577 105 l 1,19,-1
 577 33 l 1,20,21
 583 23 583 23 619 23 c 1,22,-1
 619 0 l 1,23,-1
 455 0 l 1,24,-1
 455 23 l 1,25,26
 492 23 492 23 497 33 c 1,27,-1
 497 105 l 1,28,-1
 336 105 l 1,29,-1
 525 375 l 1,30,-1
 577 375 l 1,15,-1
497 134 m 1,31,-1
 497 284 l 1,32,-1
 392 134 l 1,33,-1
 497 134 l 1,31,-1
97 -10 m 1,34,-1
 486 612 l 1,35,-1
 535 594 l 1,36,-1
 146 -28 l 1,37,-1
 97 -10 l 1,34,-1
EndSplineSet
EndChar

StartChar: onehalf
Encoding: 189 189 127
Width: 679
GlyphClass: 2
Flags: W
LayerCount: 2
Fore
SplineSet
33 508 m 1,0,1
 118 655 118 655 139 655 c 2,2,-1
 162 655 l 1,3,-1
 162 313 l 1,4,5
 167 303 167 303 205 303 c 1,6,-1
 205 280 l 1,7,-1
 39 280 l 1,8,-1
 39 303 l 1,9,10
 75 303 75 303 81 313 c 1,11,-1
 81 530 l 1,12,13
 74 526 74 526 50 499 c 1,14,-1
 33 508 l 1,0,1
591 66 m 1,15,16
 621 78 621 78 629 99 c 1,17,-1
 651 99 l 1,18,-1
 623 0 l 1,19,-1
 364 0 l 1,20,-1
 364 5 l 2,21,22
 364 17 364 17 392.5 46.5 c 128,-1,23
 421 76 421 76 455.5 108 c 128,-1,24
 490 140 490 140 518.5 185 c 128,-1,25
 547 230 547 230 547 268 c 0,26,27
 547 295 547 295 533 312.5 c 128,-1,28
 519 330 519 330 494 330 c 0,29,30
 459 330 459 330 436.5 320 c 128,-1,31
 414 310 414 310 407 298 c 128,-1,32
 400 286 400 286 393.5 276 c 128,-1,33
 387 266 387 266 381 266 c 0,34,35
 371 266 371 266 371 277 c 0,36,37
 371 303 371 303 405.5 341.5 c 128,-1,38
 440 380 440 380 502 380 c 0,39,40
 569 380 569 380 600.5 352.5 c 128,-1,41
 632 325 632 325 632 277 c 0,42,43
 632 250 632 250 609 215 c 128,-1,44
 586 180 586 180 558.5 153.5 c 128,-1,45
 531 127 531 127 502 100.5 c 128,-1,46
 473 74 473 74 467 66 c 1,47,-1
 591 66 l 1,15,16
76 -10 m 1,48,-1
 465 612 l 1,49,-1
 514 594 l 1,50,-1
 125 -28 l 1,51,-1
 76 -10 l 1,48,-1
EndSplineSet
EndChar

StartChar: threequarters
Encoding: 190 190 128
Width: 690
GlyphClass: 2
Flags: W
LayerCount: 2
Fore
SplineSet
143 460 m 0,0,1
 136 460 136 460 130.5 464 c 128,-1,2
 125 468 125 468 125 473 c 0,3,4
 125 482 125 482 133 482 c 1,5,6
 153 488 153 488 162 491.5 c 128,-1,7
 171 495 171 495 184 503 c 128,-1,8
 197 511 197 511 202 523.5 c 128,-1,9
 207 536 207 536 207 554 c 0,10,11
 207 580 207 580 192 595 c 128,-1,12
 177 610 177 610 149 610 c 0,13,14
 120 610 120 610 102 601.5 c 128,-1,15
 84 593 84 593 78.5 583.5 c 128,-1,16
 73 574 73 574 67.5 565.5 c 128,-1,17
 62 557 62 557 56 557 c 0,18,19
 46 557 46 557 46 569 c 0,20,21
 46 593 46 593 75.5 626.5 c 128,-1,22
 105 660 105 660 157 660 c 0,23,24
 284 660 284 660 284 563 c 0,25,26
 284 520 284 520 235 491 c 1,27,28
 265 479 265 479 283.5 455 c 128,-1,29
 302 431 302 431 302 402 c 0,30,31
 302 344 302 344 270.5 310 c 128,-1,32
 239 276 239 276 159 276 c 0,33,34
 122 276 122 276 90 288 c 128,-1,35
 58 300 58 300 43 313.5 c 128,-1,36
 28 327 28 327 28 336 c 0,37,38
 28 359 28 359 34 368 c 128,-1,39
 40 377 40 377 56 377 c 0,40,41
 67 377 67 377 74.5 366 c 128,-1,42
 82 355 82 355 87 341.5 c 128,-1,43
 92 328 92 328 109 317 c 128,-1,44
 126 306 126 306 155 306 c 0,45,46
 189 306 189 306 208 332 c 128,-1,47
 227 358 227 358 227 388 c 0,48,49
 227 413 227 413 212.5 438.5 c 128,-1,50
 198 464 198 464 176 464 c 0,51,52
 168 464 168 464 158.5 462 c 128,-1,53
 149 460 149 460 143 460 c 0,0,1
611 375 m 1,54,-1
 611 134 l 1,55,-1
 656 134 l 1,56,-1
 656 105 l 1,57,-1
 611 105 l 1,58,-1
 611 33 l 1,59,60
 617 23 617 23 653 23 c 1,61,-1
 653 0 l 1,62,-1
 489 0 l 1,63,-1
 489 23 l 1,64,65
 526 23 526 23 531 33 c 1,66,-1
 531 105 l 1,67,-1
 370 105 l 1,68,-1
 559 375 l 1,69,-1
 611 375 l 1,54,-1
531 134 m 1,70,-1
 531 284 l 1,71,-1
 426 134 l 1,72,-1
 531 134 l 1,70,-1
141 -10 m 1,73,-1
 530 612 l 1,74,-1
 579 594 l 1,75,-1
 190 -28 l 1,76,-1
 141 -10 l 1,73,-1
EndSplineSet
EndChar

StartChar: questiondown
Encoding: 191 191 129
Width: 426
GlyphClass: 2
Flags: W
LayerCount: 2
Fore
SplineSet
303 468 m 0,0,1
 303 439 303 439 282.5 421.5 c 128,-1,2
 262 404 262 404 235 404 c 0,3,4
 211 404 211 404 188 420.5 c 128,-1,5
 165 437 165 437 165 465 c 0,6,7
 165 494 165 494 186 512 c 128,-1,8
 207 530 207 530 234 530 c 0,9,10
 258 530 258 530 280.5 513 c 128,-1,11
 303 496 303 496 303 468 c 0,0,1
255 320 m 0,12,13
 255 283 255 283 239.5 250.5 c 128,-1,14
 224 218 224 218 205 196 c 128,-1,15
 186 174 186 174 170.5 133 c 128,-1,16
 155 92 155 92 155 40 c 0,17,18
 155 -13 155 -13 178 -46.5 c 128,-1,19
 201 -80 201 -80 240 -80 c 0,20,21
 277 -80 277 -80 295 -58 c 128,-1,22
 313 -36 313 -36 313 -9 c 0,23,24
 313 3 313 3 305.5 16.5 c 128,-1,25
 298 30 298 30 298 41 c 0,26,27
 298 58 298 58 312 71.5 c 128,-1,28
 326 85 326 85 346 85 c 0,29,30
 371 85 371 85 384.5 68.5 c 128,-1,31
 398 52 398 52 398 24 c 0,32,33
 398 -26 398 -26 352.5 -68 c 128,-1,34
 307 -110 307 -110 230 -110 c 0,35,36
 132 -110 132 -110 81 -68 c 128,-1,37
 30 -26 30 -26 30 45 c 0,38,39
 30 84 30 84 49.5 119.5 c 128,-1,40
 69 155 69 155 97 181 c 128,-1,41
 125 207 125 207 152.5 229.5 c 128,-1,42
 180 252 180 252 199.5 275.5 c 128,-1,43
 219 299 219 299 219 320 c 0,44,45
 219 325 219 325 226 329.5 c 128,-1,46
 233 334 233 334 237 334 c 128,-1,47
 241 334 241 334 248 329.5 c 128,-1,48
 255 325 255 325 255 320 c 0,12,13
EndSplineSet
EndChar

StartChar: AE
Encoding: 198 198 136
Width: 742
GlyphClass: 2
Flags: W
AnchorPoint: "Anchor-1" 414 620 basechar 0
LayerCount: 2
Fore
SplineSet
-29 0 m 1,0,-1
 -29 21 l 1,1,2
 25 21 25 21 34 42 c 1,3,-1
 34 41 l 1,4,-1
 321 553 l 1,5,6
 309 564 309 564 264 564 c 1,7,-1
 264 585 l 1,8,-1
 688 585 l 1,9,-1
 688 488 l 1,10,-1
 667 488 l 1,11,12
 667 542 667 542 647 551 c 1,13,-1
 475 551 l 1,14,-1
 475 321 l 1,15,-1
 580 321 l 1,16,17
 600 330 600 330 600 384 c 1,18,-1
 621 384 l 1,19,-1
 621 224 l 1,20,-1
 600 224 l 1,21,22
 600 278 600 278 580 287 c 1,23,-1
 475 287 l 1,24,-1
 475 34 l 1,25,-1
 668 34 l 1,26,27
 693 45 693 45 713 97 c 1,28,-1
 733 97 l 1,29,-1
 709 0 l 1,30,-1
 285 0 l 1,31,-1
 285 21 l 1,32,33
 339 21 339 21 348 41 c 1,34,-1
 348 186 l 1,35,-1
 155 186 l 1,36,-1
 73 39 l 1,37,38
 83 21 83 21 135 21 c 1,39,-1
 135 0 l 1,40,-1
 59 0 l 1,41,42
 64 17 64 17 69 32 c 1,43,-1
 51 0 l 1,44,-1
 -29 0 l 1,0,-1
174 219 m 1,45,-1
 348 219 l 1,46,-1
 348 530 l 1,47,-1
 174 219 l 1,45,-1
EndSplineSet
EndChar

StartChar: Ccedilla
Encoding: 199 199 137
Width: 562
GlyphClass: 2
Flags: W
AnchorPoint: "Anchor-1" 344 620 basechar 0
LayerCount: 2
Fore
SplineSet
350 561 m 1,0,-1
 350 560 l 1,1,2
 266 560 266 560 220.5 491 c 128,-1,3
 175 422 175 422 175 305 c 0,4,5
 175 169 175 169 224 96 c 128,-1,6
 273 23 273 23 354 23 c 0,7,8
 403 23 403 23 443.5 56.5 c 128,-1,9
 484 90 484 90 499 131 c 1,10,-1
 540 119 l 1,11,12
 519 70 519 70 476 34 c 128,-1,13
 433 -2 433 -2 363 -9 c 1,14,-1
 351 -55 l 1,15,16
 370 -55 370 -55 392 -60.5 c 128,-1,17
 414 -66 414 -66 435 -82.5 c 128,-1,18
 456 -99 456 -99 456 -122 c 0,19,20
 456 -152 456 -152 427 -175.5 c 128,-1,21
 398 -199 398 -199 336 -199 c 0,22,23
 303 -199 303 -199 262 -192 c 1,24,-1
 262 -175 l 1,25,26
 280 -177 280 -177 287 -177 c 0,27,28
 354 -177 354 -177 354 -130 c 0,29,30
 354 -86 354 -86 293 -86 c 1,31,-1
 315 -9 l 1,32,33
 188 -2 188 -2 112 83.5 c 128,-1,34
 36 169 36 169 36 284 c 0,35,36
 36 423 36 423 130 509 c 128,-1,37
 224 595 224 595 349 595 c 0,38,39
 378 595 378 595 421 580 c 128,-1,40
 464 565 464 565 470 565 c 0,41,42
 482 565 482 565 482 585 c 1,43,-1
 505 585 l 1,44,-1
 513 444 l 1,45,-1
 491 444 l 1,46,47
 485 485 485 485 439 523 c 128,-1,48
 393 561 393 561 350 561 c 1,0,-1
EndSplineSet
EndChar

StartChar: Eth
Encoding: 208 208 146
Width: 596
GlyphClass: 2
Flags: W
AnchorPoint: "Anchor-1" 239 690 basechar 0
LayerCount: 2
Fore
SplineSet
33 -1 m 1,0,-1
 33 20 l 1,1,2
 87 20 87 20 96 40 c 1,3,-1
 96 154 l 2,4,5
 96 285 96 285 165 362 c 128,-1,6
 234 439 234 439 392 454 c 1,7,8
 344 555 344 555 245 555 c 2,9,-1
 188 555 l 1,10,-1
 188 470 l 1,11,-1
 148 470 l 1,12,-1
 148 555 l 1,13,-1
 65 555 l 1,14,15
 53 550 53 550 41.5 528 c 128,-1,16
 30 506 30 506 30 477 c 1,17,-1
 9 477 l 1,18,-1
 9 585 l 1,19,-1
 148 585 l 1,20,-1
 148 655 l 1,21,-1
 188 655 l 1,22,-1
 188 585 l 1,23,-1
 263 585 l 2,24,25
 396 585 396 585 477 504 c 128,-1,26
 558 423 558 423 558 293 c 128,-1,27
 558 163 558 163 479 81 c 128,-1,28
 400 -1 400 -1 275 -1 c 2,29,-1
 33 -1 l 1,0,-1
405 424 m 1,30,31
 350 416 350 416 313 395 c 128,-1,32
 276 374 276 374 257 341.5 c 128,-1,33
 238 309 238 309 230.5 273.5 c 128,-1,34
 223 238 223 238 223 192 c 2,35,-1
 223 33 l 1,36,-1
 257 33 l 2,37,38
 325 33 325 33 374 97 c 128,-1,39
 423 161 423 161 423 292 c 0,40,41
 423 370 423 370 405 424 c 1,30,31
EndSplineSet
EndChar

StartChar: multiply
Encoding: 215 215 153
Width: 412
GlyphClass: 2
Flags: W
LayerCount: 2
Fore
SplineSet
237 318 m 1,0,-1
 365 190 l 1,1,-1
 334 159 l 1,2,-1
 206 287 l 1,3,-1
 78 159 l 1,4,-1
 47 190 l 1,5,-1
 175 318 l 1,6,-1
 47 446 l 1,7,-1
 78 477 l 1,8,-1
 206 349 l 1,9,-1
 334 477 l 1,10,-1
 365 446 l 1,11,-1
 237 318 l 1,0,-1
EndSplineSet
EndChar

StartChar: Oslash
Encoding: 216 216 154
Width: 664
GlyphClass: 2
Flags: W
AnchorPoint: "Anchor-1" 336 620 basechar 0
LayerCount: 2
Fore
SplineSet
161 -28 m 1,0,-1
 132 -10 l 1,1,-1
 165 42 l 1,2,3
 105 84 105 84 70 150 c 128,-1,4
 35 216 35 216 35 292 c 0,5,6
 35 415 35 415 122 505 c 128,-1,7
 209 595 209 595 332 595 c 0,8,9
 413 595 413 595 483 552 c 1,10,-1
 521 612 l 1,11,-1
 550 594 l 1,12,-1
 512 532 l 1,13,14
 567 490 567 490 598 426.5 c 128,-1,15
 629 363 629 363 629 292 c 0,16,17
 629 169 629 169 541.5 79.5 c 128,-1,18
 454 -10 454 -10 332 -10 c 0,19,20
 259 -10 259 -10 194 25 c 1,21,-1
 161 -28 l 1,0,-1
463 455 m 1,22,-1
 228 79 l 1,23,24
 270 24 270 24 336 24 c 0,25,26
 381 24 381 24 413 47.5 c 128,-1,27
 445 71 445 71 462 111 c 128,-1,28
 479 151 479 151 486.5 193.5 c 128,-1,29
 494 236 494 236 494 284 c 0,30,31
 494 382 494 382 463 455 c 1,22,-1
445 491 m 1,32,33
 402 561 402 561 328 561 c 0,34,35
 283 561 283 561 251 537 c 128,-1,36
 219 513 219 513 202 473 c 128,-1,37
 185 433 185 433 177.5 390.5 c 128,-1,38
 170 348 170 348 170 300 c 0,39,40
 170 188 170 188 208 112 c 1,41,-1
 445 491 l 1,32,33
EndSplineSet
EndChar

StartChar: Thorn
Encoding: 222 222 160
Width: 528
GlyphClass: 2
Flags: W
LayerCount: 2
Fore
SplineSet
36 0 m 1,0,-1
 36 21 l 1,1,2
 90 21 90 21 99 41 c 1,3,-1
 99 544 l 1,4,5
 90 564 90 564 36 564 c 1,6,-1
 36 585 l 1,7,-1
 289 585 l 1,8,-1
 289 564 l 1,9,10
 235 564 235 564 226 544 c 1,11,-1
 226 475 l 1,12,-1
 243 475 l 2,13,14
 369 475 369 475 442 424.5 c 128,-1,15
 515 374 515 374 515 308 c 0,16,17
 515 233 515 233 445 179.5 c 128,-1,18
 375 126 375 126 255 126 c 2,19,-1
 226 126 l 1,20,-1
 226 41 l 1,21,22
 235 21 235 21 289 21 c 1,23,-1
 289 0 l 1,24,-1
 36 0 l 1,0,-1
226 441 m 1,25,-1
 226 160 l 1,26,27
 308 160 308 160 344 195 c 128,-1,28
 380 230 380 230 380 307 c 0,29,30
 380 369 380 369 346 405 c 128,-1,31
 312 441 312 441 226 441 c 1,25,-1
EndSplineSet
EndChar

StartChar: germandbls
Encoding: 223 223 161
Width: 539
GlyphClass: 2
Flags: W
LayerCount: 2
Fore
SplineSet
260 368 m 1,0,1
 286 378 286 378 305.5 418.5 c 128,-1,2
 325 459 325 459 325 499 c 0,3,4
 325 600 325 600 267 600 c 0,5,6
 241 600 241 600 221.5 571 c 128,-1,7
 202 542 202 542 202 488 c 2,8,-1
 202 0 l 1,9,-1
 14 0 l 1,10,-1
 14 21 l 1,11,12
 68 21 68 21 77 41 c 1,13,-1
 77 474 l 2,14,15
 77 515 77 515 94.5 547 c 128,-1,16
 112 579 112 579 140 596 c 128,-1,17
 168 613 168 613 196.5 621.5 c 128,-1,18
 225 630 225 630 253 630 c 0,19,20
 348 630 348 630 394 595.5 c 128,-1,21
 440 561 440 561 440 500 c 0,22,23
 440 458 440 458 406.5 418 c 128,-1,24
 373 378 373 378 325 358 c 1,25,26
 401 344 401 344 459.5 294 c 128,-1,27
 518 244 518 244 518 190 c 0,28,29
 518 100 518 100 471 45 c 128,-1,30
 424 -10 424 -10 346 -10 c 0,31,32
 286 -10 286 -10 256 19.5 c 128,-1,33
 226 49 226 49 226 72 c 0,34,35
 226 102 226 102 233.5 114 c 128,-1,36
 241 126 241 126 262 126 c 0,37,38
 279 126 279 126 287.5 109.5 c 128,-1,39
 296 93 296 93 298 73 c 128,-1,40
 300 53 300 53 310.5 36.5 c 128,-1,41
 321 20 321 20 340 20 c 0,42,43
 400 20 400 20 400 170 c 0,44,45
 400 235 400 235 361.5 289.5 c 128,-1,46
 323 344 323 344 262 344 c 2,47,-1
 260 344 l 2,48,49
 244 344 244 344 244 354 c 0,50,51
 244 363 244 363 260 368 c 1,0,1
EndSplineSet
EndChar

StartChar: ae
Encoding: 230 230 168
Width: 776
GlyphClass: 2
Flags: W
AnchorPoint: "Anchor-1" 381 515 basechar 0
LayerCount: 2
Fore
SplineSet
437 272 m 1,0,-1
 619 272 l 1,1,2
 613 343 613 343 594.5 381.5 c 128,-1,3
 576 420 576 420 535 420 c 0,4,5
 499 420 499 420 470.5 383.5 c 128,-1,6
 442 347 442 347 437 272 c 1,0,-1
436 241 m 1,7,8
 438 154 438 154 475.5 91 c 128,-1,9
 513 28 513 28 571 28 c 0,10,11
 658 28 658 28 711 94 c 1,12,-1
 735 82 l 1,13,14
 706 34 706 34 659.5 12 c 128,-1,15
 613 -10 613 -10 537 -10 c 0,16,17
 431 -10 431 -10 367 59 c 1,18,19
 346 33 346 33 302 11.5 c 128,-1,20
 258 -10 258 -10 192 -10 c 0,21,22
 25 -10 25 -10 25 112 c 0,23,24
 25 133 25 133 39.5 151 c 128,-1,25
 54 169 54 169 73.5 180 c 128,-1,26
 93 191 93 191 126.5 202.5 c 128,-1,27
 160 214 160 214 185.5 219.5 c 128,-1,28
 211 225 211 225 249.5 233.5 c 128,-1,29
 288 242 288 242 306 247 c 1,30,31
 306 342 306 342 291 378 c 128,-1,32
 276 414 276 414 221 414 c 0,33,34
 188 414 188 414 161.5 400.5 c 128,-1,35
 135 387 135 387 130 366 c 1,36,37
 153 366 153 366 153 325 c 0,38,39
 153 308 153 308 136 299 c 128,-1,40
 119 290 119 290 100 290 c 0,41,42
 80 290 80 290 64.5 304 c 128,-1,43
 49 318 49 318 49 340 c 0,44,45
 49 391 49 391 99.5 420.5 c 128,-1,46
 150 450 150 450 231 450 c 0,47,48
 325 450 325 450 381 401 c 1,49,50
 441 450 441 450 527 450 c 0,51,52
 634 450 634 450 693 389.5 c 128,-1,53
 752 329 752 329 752 241 c 1,54,-1
 436 241 l 1,7,8
352 77 m 1,55,56
 310 133 310 133 306 224 c 1,57,58
 222 199 222 199 197 183 c 0,59,60
 153 155 153 155 153 110 c 0,61,62
 153 64 153 64 172.5 44 c 128,-1,63
 192 24 192 24 217 24 c 0,64,65
 247 24 247 24 291.5 40.5 c 128,-1,66
 336 57 336 57 352 77 c 1,55,56
EndSplineSet
EndChar

StartChar: ccedilla
Encoding: 231 231 169
Width: 482
GlyphClass: 2
Flags: W
AnchorPoint: "Anchor-1" 269 515 basechar 0
LayerCount: 2
Fore
SplineSet
275 420 m 0,0,1
 228 420 228 420 195 372.5 c 128,-1,2
 162 325 162 325 162 246 c 0,3,4
 162 157 162 157 198 92.5 c 128,-1,5
 234 28 234 28 292 28 c 0,6,7
 376 28 376 28 419 100 c 1,8,-1
 456 82 l 1,9,10
 405 -2 405 -2 287 -9 c 1,11,-1
 275 -55 l 1,12,13
 294 -55 294 -55 316 -60.5 c 128,-1,14
 338 -66 338 -66 359 -82.5 c 128,-1,15
 380 -99 380 -99 380 -122 c 0,16,17
 380 -152 380 -152 351 -175.5 c 128,-1,18
 322 -199 322 -199 260 -199 c 0,19,20
 227 -199 227 -199 186 -192 c 1,21,-1
 186 -175 l 1,22,23
 204 -177 204 -177 211 -177 c 0,24,25
 278 -177 278 -177 278 -130 c 0,26,27
 278 -86 278 -86 217 -86 c 1,28,-1
 239 -9 l 1,29,30
 202 -6 202 -6 168 7.5 c 128,-1,31
 134 21 134 21 102 48 c 128,-1,32
 70 75 70 75 51 125 c 128,-1,33
 32 175 32 175 32 242 c 0,34,35
 32 328 32 328 98 389 c 128,-1,36
 164 450 164 450 265 450 c 0,37,38
 346 450 346 450 395.5 422.5 c 128,-1,39
 445 395 445 395 445 344 c 0,40,41
 445 319 445 319 432.5 303 c 128,-1,42
 420 287 420 287 395 287 c 0,43,44
 371 287 371 287 356.5 298.5 c 128,-1,45
 342 310 342 310 342 329 c 0,46,47
 342 350 342 350 352.5 360 c 128,-1,48
 363 370 363 370 377 370 c 1,49,50
 364 420 364 420 275 420 c 0,0,1
EndSplineSet
EndChar

StartChar: eth
Encoding: 240 240 178
Width: 541
GlyphClass: 2
Flags: W
LayerCount: 2
Fore
SplineSet
274 -10 m 0,0,1
 161 -10 161 -10 96 55.5 c 128,-1,2
 31 121 31 121 31 228 c 0,3,4
 31 324 31 324 90 387 c 128,-1,5
 149 450 149 450 267 450 c 0,6,7
 293 450 293 450 317 447 c 1,8,9
 289 494 289 494 257 529 c 1,10,-1
 178 484 l 1,11,-1
 161 513 l 1,12,-1
 232 554 l 1,13,14
 214 571 214 571 195 585.5 c 128,-1,15
 176 600 176 600 166 606 c 2,16,-1
 157 612 l 1,17,-1
 168 630 l 1,18,19
 216 614 216 614 275 579 c 1,20,-1
 360 628 l 1,21,-1
 377 599 l 1,22,-1
 307 558 l 1,23,24
 508 421 508 421 508 216 c 0,25,26
 508 120 508 120 449.5 55 c 128,-1,27
 391 -10 391 -10 274 -10 c 0,0,1
162 248 m 0,28,29
 162 134 162 134 197 77 c 128,-1,30
 232 20 232 20 287 20 c 0,31,32
 328 20 328 20 352.5 68.5 c 128,-1,33
 377 117 377 117 377 193 c 0,34,35
 377 311 377 311 346 365 c 128,-1,36
 315 419 315 419 250 419 c 0,37,38
 214 419 214 419 188 367 c 128,-1,39
 162 315 162 315 162 248 c 0,28,29
EndSplineSet
EndChar

StartChar: divide
Encoding: 247 247 185
Width: 474
GlyphClass: 2
Flags: W
LayerCount: 2
Fore
SplineSet
180 457 m 128,-1,1
 180 480 180 480 195.5 498.5 c 128,-1,2
 211 517 211 517 236 517 c 0,3,4
 258 517 258 517 276 500 c 128,-1,5
 294 483 294 483 294 460 c 128,-1,6
 294 437 294 437 278 418 c 128,-1,7
 262 399 262 399 237 399 c 0,8,9
 216 399 216 399 198 416.5 c 128,-1,0
 180 434 180 434 180 457 c 128,-1,1
180 177 m 128,-1,11
 180 200 180 200 195.5 218.5 c 128,-1,12
 211 237 211 237 236 237 c 0,13,14
 258 237 258 237 276 220 c 128,-1,15
 294 203 294 203 294 180 c 128,-1,16
 294 157 294 157 278 138 c 128,-1,17
 262 119 262 119 237 119 c 0,18,19
 216 119 216 119 198 136.5 c 128,-1,10
 180 154 180 154 180 177 c 128,-1,11
40 340 m 1,20,-1
 434 340 l 1,21,-1
 434 296 l 1,22,-1
 40 296 l 1,23,-1
 40 340 l 1,20,-1
EndSplineSet
EndChar

StartChar: oslash
Encoding: 248 248 186
Width: 545
GlyphClass: 2
Flags: W
AnchorPoint: "Anchor-1" 274 515 basechar 0
LayerCount: 2
Fore
SplineSet
120 -35 m 1,0,-1
 93 -15 l 1,1,-1
 126 32 l 1,2,3
 31 97 31 97 31 228 c 0,4,5
 31 323 31 323 91.5 386.5 c 128,-1,6
 152 450 152 450 270 450 c 0,7,8
 344 450 344 450 400 423 c 1,9,-1
 436 475 l 1,10,-1
 463 455 l 1,11,-1
 429 406 l 1,12,13
 514 345 514 345 514 216 c 0,14,15
 514 120 514 120 454 55 c 128,-1,16
 394 -10 394 -10 277 -10 c 0,17,18
 208 -10 208 -10 155 15 c 1,19,-1
 120 -35 l 1,0,-1
371 324 m 1,20,-1
 195 72 l 1,21,22
 225 20 225 20 290 20 c 0,23,24
 335 20 335 20 359 67.5 c 128,-1,25
 383 115 383 115 383 193 c 0,26,27
 383 273 383 273 371 324 c 1,20,-1
357 362 m 1,28,29
 328 419 328 419 253 419 c 0,30,31
 210 419 210 419 186 369 c 128,-1,32
 162 319 162 319 162 248 c 0,33,34
 162 162 162 162 179 108 c 1,35,-1
 357 362 l 1,28,29
EndSplineSet
EndChar

StartChar: thorn
Encoding: 254 254 192
Width: 518
GlyphClass: 2
Flags: W
LayerCount: 2
Fore
SplineSet
-6 -192 m 1,0,-1
 -6 -171 l 1,1,2
 48 -171 48 -171 57 -151 c 1,3,-1
 57 560 l 1,4,5
 3 564 3 564 -6 564 c 1,6,-1
 -6 587 l 1,7,8
 13 587 13 587 86 608.5 c 128,-1,9
 159 630 159 630 182 630 c 1,10,-1
 182 420 l 1,11,12
 228 450 228 450 285 450 c 0,13,14
 375 450 375 450 432 393.5 c 128,-1,15
 489 337 489 337 489 267 c 0,16,17
 489 135 489 135 406.5 66 c 128,-1,18
 324 -3 324 -3 182 -11 c 1,19,-1
 182 -151 l 1,20,21
 191 -171 191 -171 245 -171 c 1,22,-1
 245 -192 l 1,23,-1
 -6 -192 l 1,0,-1
182 387 m 1,24,-1
 182 19 l 1,25,26
 359 37 359 37 359 242 c 0,27,28
 359 416 359 416 275 416 c 0,29,30
 221 416 221 416 182 387 c 1,24,-1
EndSplineSet
EndChar

StartChar: Amacron
Encoding: 256 256 194
Width: 566
GlyphClass: 2
Flags: W
LayerCount: 2
Fore
SplineSet
146 688 m 1,0,-1
 410 688 l 1,1,-1
 410 634 l 1,2,-1
 146 634 l 1,3,-1
 146 688 l 1,0,-1
329 0 m 1,4,-1
 329 21 l 1,5,6
 375 21 375 21 387 33 c 1,7,-1
 331 186 l 1,8,-1
 139 186 l 1,9,-1
 87 39 l 1,10,11
 97 21 97 21 149 21 c 1,12,-1
 149 0 l 1,13,-1
 -15 0 l 1,14,-1
 -15 21 l 1,15,16
 40 21 40 21 48 42 c 2,17,-1
 242 585 l 1,18,-1
 323 585 l 1,19,-1
 519 42 l 2,20,21
 526 21 526 21 583 21 c 1,22,-1
 583 0 l 1,23,-1
 329 0 l 1,4,-1
234 452 m 1,24,-1
 151 219 l 1,25,-1
 319 219 l 1,26,-1
 234 452 l 1,24,-1
EndSplineSet
EndChar

StartChar: amacron
Encoding: 257 257 195
Width: 503
GlyphClass: 2
Flags: W
LayerCount: 2
Fore
SplineSet
94 583 m 1,0,-1
 358 583 l 1,1,-1
 358 529 l 1,2,-1
 94 529 l 1,3,-1
 94 583 l 1,0,-1
130 366 m 1,4,5
 153 366 153 366 153 325 c 0,6,7
 153 308 153 308 136 299 c 128,-1,8
 119 290 119 290 100 290 c 0,9,10
 80 290 80 290 64.5 304 c 128,-1,11
 49 318 49 318 49 340 c 0,12,13
 49 391 49 391 99.5 420.5 c 128,-1,14
 150 450 150 450 231 450 c 0,15,16
 326 450 326 450 379 402.5 c 128,-1,17
 432 355 432 355 432 282 c 2,18,-1
 432 84 l 2,19,20
 432 52 432 52 442.5 37 c 128,-1,21
 453 22 453 22 468 22 c 0,22,23
 481 22 481 22 491.5 29 c 128,-1,24
 502 36 502 36 502 46 c 1,25,-1
 520 46 l 1,26,27
 520 -8 520 -8 410 -8 c 0,28,29
 359 -8 359 -8 331 28 c 1,30,31
 271 -10 271 -10 192 -10 c 0,32,33
 25 -10 25 -10 25 112 c 0,34,35
 25 137 25 137 42.5 157 c 128,-1,36
 60 177 60 177 96 191 c 128,-1,37
 132 205 132 205 160.5 213 c 128,-1,38
 189 221 189 221 239 231.5 c 128,-1,39
 289 242 289 242 307 247 c 1,40,41
 307 341 307 341 291.5 377.5 c 128,-1,42
 276 414 276 414 221 414 c 0,43,44
 188 414 188 414 161.5 400.5 c 128,-1,45
 135 387 135 387 130 366 c 1,4,5
317 52 m 1,46,47
 307 79 307 79 307 112 c 2,48,-1
 307 225 l 1,49,50
 222 199 222 199 195 182 c 0,51,52
 153 154 153 154 153 110 c 0,53,54
 153 64 153 64 172.5 44 c 128,-1,55
 192 24 192 24 217 24 c 0,56,57
 261 24 261 24 317 52 c 1,46,47
EndSplineSet
EndChar

StartChar: Abreve
Encoding: 258 258 196
Width: 566
GlyphClass: 2
Flags: W
LayerCount: 2
Fore
SplineSet
284 630 m 0,0,1
 223 630 223 630 190.5 670.5 c 128,-1,2
 158 711 158 711 158 754 c 1,3,-1
 186 754 l 1,4,5
 207 710 207 710 284 710 c 128,-1,6
 361 710 361 710 382 754 c 1,7,-1
 410 754 l 1,8,9
 410 710 410 710 378 670 c 128,-1,10
 346 630 346 630 284 630 c 0,0,1
329 0 m 1,11,-1
 329 21 l 1,12,13
 375 21 375 21 387 33 c 1,14,-1
 331 186 l 1,15,-1
 139 186 l 1,16,-1
 87 39 l 1,17,18
 97 21 97 21 149 21 c 1,19,-1
 149 0 l 1,20,-1
 -15 0 l 1,21,-1
 -15 21 l 1,22,23
 40 21 40 21 48 42 c 2,24,-1
 242 585 l 1,25,-1
 323 585 l 1,26,-1
 519 42 l 2,27,28
 526 21 526 21 583 21 c 1,29,-1
 583 0 l 1,30,-1
 329 0 l 1,11,-1
234 452 m 1,31,-1
 151 219 l 1,32,-1
 319 219 l 1,33,-1
 234 452 l 1,31,-1
EndSplineSet
EndChar

StartChar: abreve
Encoding: 259 259 197
Width: 503
GlyphClass: 2
Flags: W
LayerCount: 2
Fore
SplineSet
232 525 m 0,0,1
 171 525 171 525 138.5 565.5 c 128,-1,2
 106 606 106 606 106 649 c 1,3,-1
 134 649 l 1,4,5
 155 605 155 605 232 605 c 128,-1,6
 309 605 309 605 330 649 c 1,7,-1
 358 649 l 1,8,9
 358 605 358 605 326 565 c 128,-1,10
 294 525 294 525 232 525 c 0,0,1
130 366 m 1,11,12
 153 366 153 366 153 325 c 0,13,14
 153 308 153 308 136 299 c 128,-1,15
 119 290 119 290 100 290 c 0,16,17
 80 290 80 290 64.5 304 c 128,-1,18
 49 318 49 318 49 340 c 0,19,20
 49 391 49 391 99.5 420.5 c 128,-1,21
 150 450 150 450 231 450 c 0,22,23
 326 450 326 450 379 402.5 c 128,-1,24
 432 355 432 355 432 282 c 2,25,-1
 432 84 l 2,26,27
 432 52 432 52 442.5 37 c 128,-1,28
 453 22 453 22 468 22 c 0,29,30
 481 22 481 22 491.5 29 c 128,-1,31
 502 36 502 36 502 46 c 1,32,-1
 520 46 l 1,33,34
 520 -8 520 -8 410 -8 c 0,35,36
 359 -8 359 -8 331 28 c 1,37,38
 271 -10 271 -10 192 -10 c 0,39,40
 25 -10 25 -10 25 112 c 0,41,42
 25 137 25 137 42.5 157 c 128,-1,43
 60 177 60 177 96 191 c 128,-1,44
 132 205 132 205 160.5 213 c 128,-1,45
 189 221 189 221 239 231.5 c 128,-1,46
 289 242 289 242 307 247 c 1,47,48
 307 341 307 341 291.5 377.5 c 128,-1,49
 276 414 276 414 221 414 c 0,50,51
 188 414 188 414 161.5 400.5 c 128,-1,52
 135 387 135 387 130 366 c 1,11,12
317 52 m 1,53,54
 307 79 307 79 307 112 c 2,55,-1
 307 225 l 1,56,57
 222 199 222 199 195 182 c 0,58,59
 153 154 153 154 153 110 c 0,60,61
 153 64 153 64 172.5 44 c 128,-1,62
 192 24 192 24 217 24 c 0,63,64
 261 24 261 24 317 52 c 1,53,54
EndSplineSet
EndChar

StartChar: Aogonek
Encoding: 260 260 198
Width: 566
GlyphClass: 2
Flags: W
LayerCount: 2
Fore
SplineSet
234 452 m 1,0,-1
 151 219 l 1,1,-1
 319 219 l 1,2,-1
 234 452 l 1,0,-1
329 0 m 1,3,-1
 329 21 l 1,4,5
 375 21 375 21 387 33 c 1,6,-1
 331 186 l 1,7,-1
 139 186 l 1,8,-1
 87 39 l 1,9,10
 97 21 97 21 149 21 c 1,11,-1
 149 0 l 1,12,-1
 -15 0 l 1,13,-1
 -15 21 l 1,14,15
 40 21 40 21 48 42 c 2,16,-1
 242 585 l 1,17,-1
 323 585 l 1,18,-1
 519 42 l 2,19,20
 526 21 526 21 583 21 c 1,21,-1
 583 0 l 1,22,-1
 514 0 l 1,23,24
 488 -31 488 -31 488 -68 c 0,25,26
 488 -114 488 -114 511 -140 c 128,-1,27
 534 -166 534 -166 571 -166 c 0,28,29
 579 -166 579 -166 586.5 -162 c 128,-1,30
 594 -158 594 -158 598 -154 c 2,31,-1
 602 -150 l 1,32,-1
 613 -168 l 1,33,34
 611 -172 611 -172 606 -177 c 128,-1,35
 601 -182 601 -182 580.5 -191 c 128,-1,36
 560 -200 560 -200 534 -200 c 0,37,38
 484 -200 484 -200 456.5 -174 c 128,-1,39
 429 -148 429 -148 429 -103 c 0,40,41
 429 -45 429 -45 477 0 c 1,42,-1
 329 0 l 1,3,-1
EndSplineSet
EndChar

StartChar: aogonek
Encoding: 261 261 199
Width: 503
GlyphClass: 2
Flags: W
LayerCount: 2
Fore
SplineSet
317 52 m 1,0,1
 307 79 307 79 307 112 c 2,2,-1
 307 225 l 1,3,4
 222 199 222 199 195 182 c 0,5,6
 153 154 153 154 153 110 c 0,7,8
 153 64 153 64 172.5 44 c 128,-1,9
 192 24 192 24 217 24 c 0,10,11
 261 24 261 24 317 52 c 1,0,1
130 366 m 1,12,13
 153 366 153 366 153 325 c 0,14,15
 153 308 153 308 136 299 c 128,-1,16
 119 290 119 290 100 290 c 0,17,18
 80 290 80 290 64.5 304 c 128,-1,19
 49 318 49 318 49 340 c 0,20,21
 49 391 49 391 99.5 420.5 c 128,-1,22
 150 450 150 450 231 450 c 0,23,24
 326 450 326 450 379 402.5 c 128,-1,25
 432 355 432 355 432 282 c 2,26,-1
 432 84 l 2,27,28
 432 52 432 52 442.5 37 c 128,-1,29
 453 22 453 22 468 22 c 0,30,31
 481 22 481 22 491.5 29 c 128,-1,32
 502 36 502 36 502 46 c 1,33,-1
 520 46 l 1,34,35
 520 -2 520 -2 433 -7 c 1,36,37
 412 -36 412 -36 412 -67 c 0,38,39
 412 -113 412 -113 435 -139 c 128,-1,40
 458 -165 458 -165 495 -165 c 0,41,42
 503 -165 503 -165 510.5 -161 c 128,-1,43
 518 -157 518 -157 522 -153 c 2,44,-1
 526 -149 l 1,45,-1
 537 -167 l 1,46,47
 535 -171 535 -171 530 -176 c 128,-1,48
 525 -181 525 -181 504.5 -190 c 128,-1,49
 484 -199 484 -199 458 -199 c 0,50,51
 408 -199 408 -199 380.5 -173 c 128,-1,52
 353 -147 353 -147 353 -102 c 0,53,54
 353 -48 353 -48 394 -7 c 1,55,56
 354 -2 354 -2 331 28 c 1,57,58
 271 -10 271 -10 192 -10 c 0,59,60
 25 -10 25 -10 25 112 c 0,61,62
 25 137 25 137 42.5 157 c 128,-1,63
 60 177 60 177 96 191 c 128,-1,64
 132 205 132 205 160.5 213 c 128,-1,65
 189 221 189 221 239 231.5 c 128,-1,66
 289 242 289 242 307 247 c 1,67,68
 307 341 307 341 291.5 377.5 c 128,-1,69
 276 414 276 414 221 414 c 0,70,71
 188 414 188 414 161.5 400.5 c 128,-1,72
 135 387 135 387 130 366 c 1,12,13
EndSplineSet
EndChar

StartChar: Cacute
Encoding: 262 262 200
Width: 562
GlyphClass: 2
Flags: W
LayerCount: 2
Fore
SplineSet
354 782 m 1,0,-1
 480 782 l 1,1,-1
 346 620 l 1,2,-1
 300 620 l 1,3,-1
 354 782 l 1,0,-1
350 561 m 0,4,5
 266 561 266 561 220.5 492 c 128,-1,6
 175 423 175 423 175 306 c 0,7,8
 175 170 175 170 224 97 c 128,-1,9
 273 24 273 24 354 24 c 0,10,11
 403 24 403 24 443.5 57.5 c 128,-1,12
 484 91 484 91 499 132 c 1,13,-1
 540 120 l 1,14,15
 517 65 517 65 467.5 27.5 c 128,-1,16
 418 -10 418 -10 334 -10 c 0,17,18
 200 -10 200 -10 118 77 c 128,-1,19
 36 164 36 164 36 284 c 0,20,21
 36 423 36 423 130 509 c 128,-1,22
 224 595 224 595 349 595 c 0,23,24
 378 595 378 595 421 580 c 128,-1,25
 464 565 464 565 470 565 c 0,26,27
 482 565 482 565 482 585 c 1,28,-1
 505 585 l 1,29,-1
 513 444 l 1,30,-1
 491 444 l 1,31,32
 485 485 485 485 439 523 c 128,-1,33
 393 561 393 561 350 561 c 0,4,5
EndSplineSet
EndChar

StartChar: cacute
Encoding: 263 263 201
Width: 481
GlyphClass: 2
Flags: W
LayerCount: 2
Fore
SplineSet
279 677 m 1,0,-1
 405 677 l 1,1,-1
 271 515 l 1,2,-1
 225 515 l 1,3,-1
 279 677 l 1,0,-1
274 420 m 0,4,5
 227 420 227 420 194 372.5 c 128,-1,6
 161 325 161 325 161 246 c 0,7,8
 161 157 161 157 197 92.5 c 128,-1,9
 233 28 233 28 291 28 c 0,10,11
 375 28 375 28 418 100 c 1,12,-1
 455 82 l 1,13,14
 426 34 426 34 379.5 12 c 128,-1,15
 333 -10 333 -10 257 -10 c 0,16,17
 227 -10 227 -10 198 -3.5 c 128,-1,18
 169 3 169 3 138 21 c 128,-1,19
 107 39 107 39 84 66 c 128,-1,20
 61 93 61 93 46 138.5 c 128,-1,21
 31 184 31 184 31 242 c 0,22,23
 31 328 31 328 97 389 c 128,-1,24
 163 450 163 450 264 450 c 0,25,26
 345 450 345 450 394.5 422.5 c 128,-1,27
 444 395 444 395 444 344 c 0,28,29
 444 319 444 319 431.5 303 c 128,-1,30
 419 287 419 287 394 287 c 0,31,32
 370 287 370 287 355.5 298.5 c 128,-1,33
 341 310 341 310 341 329 c 0,34,35
 341 350 341 350 351.5 360 c 128,-1,36
 362 370 362 370 376 370 c 1,37,38
 363 420 363 420 274 420 c 0,4,5
EndSplineSet
EndChar

StartChar: Ccircumflex
Encoding: 264 264 202
Width: 562
GlyphClass: 2
Flags: W
LayerCount: 2
Fore
SplineSet
369 782 m 1,0,-1
 463 620 l 1,1,-1
 427 620 l 1,2,-1
 344 687 l 1,3,-1
 261 620 l 1,4,-1
 225 620 l 1,5,-1
 319 782 l 1,6,-1
 369 782 l 1,0,-1
350 561 m 0,7,8
 266 561 266 561 220.5 492 c 128,-1,9
 175 423 175 423 175 306 c 0,10,11
 175 170 175 170 224 97 c 128,-1,12
 273 24 273 24 354 24 c 0,13,14
 403 24 403 24 443.5 57.5 c 128,-1,15
 484 91 484 91 499 132 c 1,16,-1
 540 120 l 1,17,18
 517 65 517 65 467.5 27.5 c 128,-1,19
 418 -10 418 -10 334 -10 c 0,20,21
 200 -10 200 -10 118 77 c 128,-1,22
 36 164 36 164 36 284 c 0,23,24
 36 423 36 423 130 509 c 128,-1,25
 224 595 224 595 349 595 c 0,26,27
 378 595 378 595 421 580 c 128,-1,28
 464 565 464 565 470 565 c 0,29,30
 482 565 482 565 482 585 c 1,31,-1
 505 585 l 1,32,-1
 513 444 l 1,33,-1
 491 444 l 1,34,35
 485 485 485 485 439 523 c 128,-1,36
 393 561 393 561 350 561 c 0,7,8
EndSplineSet
EndChar

StartChar: ccircumflex
Encoding: 265 265 203
Width: 481
GlyphClass: 2
Flags: W
LayerCount: 2
Fore
SplineSet
294 677 m 1,0,-1
 388 515 l 1,1,-1
 352 515 l 1,2,-1
 269 582 l 1,3,-1
 186 515 l 1,4,-1
 150 515 l 1,5,-1
 244 677 l 1,6,-1
 294 677 l 1,0,-1
274 420 m 0,7,8
 227 420 227 420 194 372.5 c 128,-1,9
 161 325 161 325 161 246 c 0,10,11
 161 157 161 157 197 92.5 c 128,-1,12
 233 28 233 28 291 28 c 0,13,14
 375 28 375 28 418 100 c 1,15,-1
 455 82 l 1,16,17
 426 34 426 34 379.5 12 c 128,-1,18
 333 -10 333 -10 257 -10 c 0,19,20
 227 -10 227 -10 198 -3.5 c 128,-1,21
 169 3 169 3 138 21 c 128,-1,22
 107 39 107 39 84 66 c 128,-1,23
 61 93 61 93 46 138.5 c 128,-1,24
 31 184 31 184 31 242 c 0,25,26
 31 328 31 328 97 389 c 128,-1,27
 163 450 163 450 264 450 c 0,28,29
 345 450 345 450 394.5 422.5 c 128,-1,30
 444 395 444 395 444 344 c 0,31,32
 444 319 444 319 431.5 303 c 128,-1,33
 419 287 419 287 394 287 c 0,34,35
 370 287 370 287 355.5 298.5 c 128,-1,36
 341 310 341 310 341 329 c 0,37,38
 341 350 341 350 351.5 360 c 128,-1,39
 362 370 362 370 376 370 c 1,40,41
 363 420 363 420 274 420 c 0,7,8
EndSplineSet
EndChar

StartChar: Cdotaccent
Encoding: 266 266 204
Width: 562
GlyphClass: 2
Flags: W
LayerCount: 2
Fore
SplineSet
283 682 m 128,-1,1
 283 708 283 708 300.5 725.5 c 128,-1,2
 318 743 318 743 344 743 c 128,-1,3
 370 743 370 743 387.5 725.5 c 128,-1,4
 405 708 405 708 405 682 c 128,-1,5
 405 656 405 656 387.5 638.5 c 128,-1,6
 370 621 370 621 344 621 c 128,-1,7
 318 621 318 621 300.5 638.5 c 128,-1,0
 283 656 283 656 283 682 c 128,-1,1
350 561 m 0,8,9
 266 561 266 561 220.5 492 c 128,-1,10
 175 423 175 423 175 306 c 0,11,12
 175 170 175 170 224 97 c 128,-1,13
 273 24 273 24 354 24 c 0,14,15
 403 24 403 24 443.5 57.5 c 128,-1,16
 484 91 484 91 499 132 c 1,17,-1
 540 120 l 1,18,19
 517 65 517 65 467.5 27.5 c 128,-1,20
 418 -10 418 -10 334 -10 c 0,21,22
 200 -10 200 -10 118 77 c 128,-1,23
 36 164 36 164 36 284 c 0,24,25
 36 423 36 423 130 509 c 128,-1,26
 224 595 224 595 349 595 c 0,27,28
 378 595 378 595 421 580 c 128,-1,29
 464 565 464 565 470 565 c 0,30,31
 482 565 482 565 482 585 c 1,32,-1
 505 585 l 1,33,-1
 513 444 l 1,34,-1
 491 444 l 1,35,36
 485 485 485 485 439 523 c 128,-1,37
 393 561 393 561 350 561 c 0,8,9
EndSplineSet
EndChar

StartChar: cdotaccent
Encoding: 267 267 205
Width: 481
GlyphClass: 2
Flags: W
LayerCount: 2
Fore
SplineSet
208 577 m 128,-1,1
 208 602 208 602 226 620 c 128,-1,2
 244 638 244 638 269 638 c 128,-1,3
 294 638 294 638 312 620 c 128,-1,4
 330 602 330 602 330 577 c 128,-1,5
 330 552 330 552 312 534 c 128,-1,6
 294 516 294 516 269 516 c 128,-1,7
 244 516 244 516 226 534 c 128,-1,0
 208 552 208 552 208 577 c 128,-1,1
274 420 m 0,8,9
 227 420 227 420 194 372.5 c 128,-1,10
 161 325 161 325 161 246 c 0,11,12
 161 157 161 157 197 92.5 c 128,-1,13
 233 28 233 28 291 28 c 0,14,15
 375 28 375 28 418 100 c 1,16,-1
 455 82 l 1,17,18
 426 34 426 34 379.5 12 c 128,-1,19
 333 -10 333 -10 257 -10 c 0,20,21
 227 -10 227 -10 198 -3.5 c 128,-1,22
 169 3 169 3 138 21 c 128,-1,23
 107 39 107 39 84 66 c 128,-1,24
 61 93 61 93 46 138.5 c 128,-1,25
 31 184 31 184 31 242 c 0,26,27
 31 328 31 328 97 389 c 128,-1,28
 163 450 163 450 264 450 c 0,29,30
 345 450 345 450 394.5 422.5 c 128,-1,31
 444 395 444 395 444 344 c 0,32,33
 444 319 444 319 431.5 303 c 128,-1,34
 419 287 419 287 394 287 c 0,35,36
 370 287 370 287 355.5 298.5 c 128,-1,37
 341 310 341 310 341 329 c 0,38,39
 341 350 341 350 351.5 360 c 128,-1,40
 362 370 362 370 376 370 c 1,41,42
 363 420 363 420 274 420 c 0,8,9
EndSplineSet
EndChar

StartChar: Ccaron
Encoding: 268 268 206
Width: 562
GlyphClass: 2
Flags: W
LayerCount: 2
Fore
SplineSet
320 620 m 1,0,-1
 226 782 l 1,1,-1
 262 782 l 1,2,-1
 345 705 l 1,3,-1
 428 782 l 1,4,-1
 464 782 l 1,5,-1
 370 620 l 1,6,-1
 320 620 l 1,0,-1
350 561 m 0,7,8
 266 561 266 561 220.5 492 c 128,-1,9
 175 423 175 423 175 306 c 0,10,11
 175 170 175 170 224 97 c 128,-1,12
 273 24 273 24 354 24 c 0,13,14
 403 24 403 24 443.5 57.5 c 128,-1,15
 484 91 484 91 499 132 c 1,16,-1
 540 120 l 1,17,18
 517 65 517 65 467.5 27.5 c 128,-1,19
 418 -10 418 -10 334 -10 c 0,20,21
 200 -10 200 -10 118 77 c 128,-1,22
 36 164 36 164 36 284 c 0,23,24
 36 423 36 423 130 509 c 128,-1,25
 224 595 224 595 349 595 c 0,26,27
 378 595 378 595 421 580 c 128,-1,28
 464 565 464 565 470 565 c 0,29,30
 482 565 482 565 482 585 c 1,31,-1
 505 585 l 1,32,-1
 513 444 l 1,33,-1
 491 444 l 1,34,35
 485 485 485 485 439 523 c 128,-1,36
 393 561 393 561 350 561 c 0,7,8
EndSplineSet
EndChar

StartChar: ccaron
Encoding: 269 269 207
Width: 481
GlyphClass: 2
Flags: W
LayerCount: 2
Fore
SplineSet
245 515 m 1,0,-1
 151 677 l 1,1,-1
 187 677 l 1,2,-1
 270 600 l 1,3,-1
 353 677 l 1,4,-1
 389 677 l 1,5,-1
 295 515 l 1,6,-1
 245 515 l 1,0,-1
274 420 m 0,7,8
 227 420 227 420 194 372.5 c 128,-1,9
 161 325 161 325 161 246 c 0,10,11
 161 157 161 157 197 92.5 c 128,-1,12
 233 28 233 28 291 28 c 0,13,14
 375 28 375 28 418 100 c 1,15,-1
 455 82 l 1,16,17
 426 34 426 34 379.5 12 c 128,-1,18
 333 -10 333 -10 257 -10 c 0,19,20
 227 -10 227 -10 198 -3.5 c 128,-1,21
 169 3 169 3 138 21 c 128,-1,22
 107 39 107 39 84 66 c 128,-1,23
 61 93 61 93 46 138.5 c 128,-1,24
 31 184 31 184 31 242 c 0,25,26
 31 328 31 328 97 389 c 128,-1,27
 163 450 163 450 264 450 c 0,28,29
 345 450 345 450 394.5 422.5 c 128,-1,30
 444 395 444 395 444 344 c 0,31,32
 444 319 444 319 431.5 303 c 128,-1,33
 419 287 419 287 394 287 c 0,34,35
 370 287 370 287 355.5 298.5 c 128,-1,36
 341 310 341 310 341 329 c 0,37,38
 341 350 341 350 351.5 360 c 128,-1,39
 362 370 362 370 376 370 c 1,40,41
 363 420 363 420 274 420 c 0,7,8
EndSplineSet
EndChar

StartChar: Dcaron
Encoding: 270 270 208
Width: 613
GlyphClass: 2
Flags: W
LayerCount: 2
Fore
SplineSet
253 620 m 1,0,-1
 159 782 l 1,1,-1
 195 782 l 1,2,-1
 278 705 l 1,3,-1
 361 782 l 1,4,-1
 397 782 l 1,5,-1
 303 620 l 1,6,-1
 253 620 l 1,0,-1
36 -1 m 1,7,-1
 36 20 l 1,8,9
 90 20 90 20 99 40 c 1,10,-1
 99 543 l 1,11,12
 90 563 90 563 36 563 c 1,13,-1
 36 584 l 1,14,-1
 266 584 l 2,15,16
 401 584 401 584 488.5 502.5 c 128,-1,17
 576 421 576 421 576 293 c 0,18,19
 576 164 576 164 490.5 81.5 c 128,-1,20
 405 -1 405 -1 278 -1 c 2,21,-1
 36 -1 l 1,7,-1
226 555 m 1,22,-1
 226 33 l 1,23,-1
 278 33 l 2,24,25
 346 33 346 33 393.5 97 c 128,-1,26
 441 161 441 161 441 292 c 0,27,28
 441 424 441 424 391 489.5 c 128,-1,29
 341 555 341 555 266 555 c 2,30,-1
 226 555 l 1,22,-1
EndSplineSet
EndChar

StartChar: dcaron
Encoding: 271 271 209
Width: 611
GlyphClass: 2
Flags: W
LayerCount: 2
Fore
SplineSet
375 430 m 1,0,-1
 375 560 l 1,1,2
 321 564 321 564 312 564 c 1,3,-1
 312 587 l 1,4,5
 331 587 331 587 404 608.5 c 128,-1,6
 477 630 477 630 500 630 c 1,7,-1
 500 60 l 1,8,9
 554 56 554 56 563 56 c 1,10,-1
 563 33 l 1,11,12
 544 33 544 33 471 11.5 c 128,-1,13
 398 -10 398 -10 375 -10 c 1,14,-1
 375 23 l 1,15,16
 327 -10 327 -10 255 -10 c 0,17,18
 229 -10 229 -10 201.5 -3.5 c 128,-1,19
 174 3 174 3 142.5 19.5 c 128,-1,20
 111 36 111 36 87 61.5 c 128,-1,21
 63 87 63 87 47 128.5 c 128,-1,22
 31 170 31 170 31 222 c 0,23,24
 31 332 31 332 102 393 c 128,-1,25
 173 454 173 454 277 454 c 0,26,27
 334 454 334 454 375 430 c 1,0,-1
375 398 m 1,28,29
 337 420 337 420 283 420 c 0,30,31
 239 420 239 420 200 366 c 128,-1,32
 161 312 161 312 161 222 c 0,33,34
 161 139 161 139 194 81.5 c 128,-1,35
 227 24 227 24 265 24 c 0,36,37
 334 24 334 24 375 56 c 1,38,-1
 375 398 l 1,28,29
590 538 m 0,39,40
 565 538 565 538 549.5 551 c 128,-1,41
 534 564 534 564 534 587 c 0,42,43
 534 608 534 608 546.5 620 c 128,-1,44
 559 632 559 632 568 633.5 c 128,-1,45
 577 635 577 635 585 635 c 0,46,47
 626 635 626 635 654 609.5 c 128,-1,48
 682 584 682 584 682 543 c 0,49,50
 682 454 682 454 548 413 c 1,51,-1
 548 452 l 1,52,53
 575 455 575 455 600.5 478.5 c 128,-1,54
 626 502 626 502 626 531 c 0,55,56
 626 551 626 551 621 551 c 1,57,-1
 616 548 l 1,58,59
 612 544 612 544 605 541 c 128,-1,60
 598 538 598 538 590 538 c 0,39,40
EndSplineSet
EndChar

StartChar: Dcroat
Encoding: 272 272 210
Width: 613
GlyphClass: 2
Flags: W
LayerCount: 2
Fore
SplineSet
36 -1 m 1,0,-1
 36 20 l 1,1,2
 90 20 90 20 99 40 c 1,3,-1
 99 269 l 1,4,-1
 38 269 l 1,5,-1
 38 313 l 1,6,-1
 99 313 l 1,7,-1
 99 543 l 1,8,9
 90 563 90 563 36 563 c 1,10,-1
 36 584 l 1,11,-1
 266 584 l 2,12,13
 401 584 401 584 488.5 502.5 c 128,-1,14
 576 421 576 421 576 293 c 0,15,16
 576 164 576 164 490.5 81.5 c 128,-1,17
 405 -1 405 -1 278 -1 c 2,18,-1
 36 -1 l 1,0,-1
226 269 m 1,19,-1
 226 33 l 1,20,-1
 278 33 l 2,21,22
 346 33 346 33 393.5 97 c 128,-1,23
 441 161 441 161 441 292 c 0,24,25
 441 424 441 424 391 489.5 c 128,-1,26
 341 555 341 555 266 555 c 2,27,-1
 226 555 l 1,28,-1
 226 313 l 1,29,-1
 360 313 l 1,30,-1
 360 269 l 1,31,-1
 226 269 l 1,19,-1
EndSplineSet
EndChar

StartChar: dcroat
Encoding: 273 273 211
Width: 577
GlyphClass: 2
Flags: W
LayerCount: 2
Fore
SplineSet
375 398 m 1,0,1
 337 420 337 420 283 420 c 0,2,3
 239 420 239 420 200 366 c 128,-1,4
 161 312 161 312 161 222 c 0,5,6
 161 139 161 139 194 81.5 c 128,-1,7
 227 24 227 24 265 24 c 0,8,9
 334 24 334 24 375 56 c 1,10,-1
 375 398 l 1,0,1
500 490 m 1,11,-1
 500 60 l 1,12,13
 554 56 554 56 563 56 c 1,14,-1
 563 33 l 1,15,16
 544 33 544 33 471 11.5 c 128,-1,17
 398 -10 398 -10 375 -10 c 1,18,-1
 375 23 l 1,19,20
 327 -10 327 -10 255 -10 c 0,21,22
 229 -10 229 -10 201.5 -3.5 c 128,-1,23
 174 3 174 3 142.5 19.5 c 128,-1,24
 111 36 111 36 87 61.5 c 128,-1,25
 63 87 63 87 47 128.5 c 128,-1,26
 31 170 31 170 31 222 c 0,27,28
 31 332 31 332 102 393 c 128,-1,29
 173 454 173 454 277 454 c 0,30,31
 334 454 334 454 375 430 c 1,32,-1
 375 490 l 1,33,-1
 251 490 l 1,34,-1
 251 525 l 1,35,-1
 375 525 l 1,36,-1
 375 560 l 1,37,38
 321 564 321 564 312 564 c 1,39,-1
 312 587 l 1,40,41
 331 587 331 587 404 608.5 c 128,-1,42
 477 630 477 630 500 630 c 1,43,-1
 500 525 l 1,44,-1
 539 525 l 1,45,-1
 539 490 l 1,46,-1
 500 490 l 1,11,-1
EndSplineSet
EndChar

StartChar: Emacron
Encoding: 274 274 212
Width: 503
GlyphClass: 2
Flags: W
LayerCount: 2
Fore
SplineSet
139 688 m 1,0,-1
 403 688 l 1,1,-1
 403 634 l 1,2,-1
 139 634 l 1,3,-1
 139 688 l 1,0,-1
36 0 m 1,4,-1
 36 21 l 1,5,6
 90 21 90 21 99 41 c 1,7,-1
 99 544 l 1,8,9
 90 564 90 564 36 564 c 1,10,-1
 36 585 l 1,11,-1
 449 585 l 1,12,-1
 449 488 l 1,13,-1
 428 488 l 1,14,15
 428 542 428 542 408 551 c 1,16,-1
 226 551 l 1,17,-1
 226 321 l 1,18,-1
 341 321 l 1,19,20
 361 330 361 330 361 384 c 1,21,-1
 382 384 l 1,22,-1
 382 224 l 1,23,-1
 361 224 l 1,24,25
 361 278 361 278 341 287 c 1,26,-1
 226 287 l 1,27,-1
 226 34 l 1,28,-1
 429 34 l 1,29,30
 454 45 454 45 474 97 c 1,31,-1
 494 97 l 1,32,-1
 470 0 l 1,33,-1
 36 0 l 1,4,-1
EndSplineSet
EndChar

StartChar: emacron
Encoding: 275 275 213
Width: 501
GlyphClass: 2
Flags: W
LayerCount: 2
Fore
SplineSet
113 583 m 1,0,-1
 377 583 l 1,1,-1
 377 529 l 1,2,-1
 113 529 l 1,3,-1
 113 583 l 1,0,-1
161 241 m 1,4,5
 163 154 163 154 200.5 91 c 128,-1,6
 238 28 238 28 296 28 c 0,7,8
 383 28 383 28 436 94 c 1,9,-1
 460 82 l 1,10,11
 431 34 431 34 384.5 12 c 128,-1,12
 338 -10 338 -10 262 -10 c 0,13,14
 223 -10 223 -10 186 1.5 c 128,-1,15
 149 13 149 13 112.5 39.5 c 128,-1,16
 76 66 76 66 53.5 118 c 128,-1,17
 31 170 31 170 31 242 c 0,18,19
 31 329 31 329 92.5 389.5 c 128,-1,20
 154 450 154 450 252 450 c 0,21,22
 359 450 359 450 418 389.5 c 128,-1,23
 477 329 477 329 477 241 c 1,24,-1
 161 241 l 1,4,5
162 272 m 1,25,-1
 344 272 l 1,26,27
 338 343 338 343 319.5 381.5 c 128,-1,28
 301 420 301 420 260 420 c 0,29,30
 224 420 224 420 195.5 383.5 c 128,-1,31
 167 347 167 347 162 272 c 1,25,-1
EndSplineSet
EndChar

StartChar: Ebreve
Encoding: 276 276 214
Width: 503
GlyphClass: 2
Flags: W
LayerCount: 2
Fore
SplineSet
277 630 m 0,0,1
 216 630 216 630 183.5 670.5 c 128,-1,2
 151 711 151 711 151 754 c 1,3,-1
 179 754 l 1,4,5
 200 710 200 710 277 710 c 128,-1,6
 354 710 354 710 375 754 c 1,7,-1
 403 754 l 1,8,9
 403 710 403 710 371 670 c 128,-1,10
 339 630 339 630 277 630 c 0,0,1
36 0 m 1,11,-1
 36 21 l 1,12,13
 90 21 90 21 99 41 c 1,14,-1
 99 544 l 1,15,16
 90 564 90 564 36 564 c 1,17,-1
 36 585 l 1,18,-1
 449 585 l 1,19,-1
 449 488 l 1,20,-1
 428 488 l 1,21,22
 428 542 428 542 408 551 c 1,23,-1
 226 551 l 1,24,-1
 226 321 l 1,25,-1
 341 321 l 1,26,27
 361 330 361 330 361 384 c 1,28,-1
 382 384 l 1,29,-1
 382 224 l 1,30,-1
 361 224 l 1,31,32
 361 278 361 278 341 287 c 1,33,-1
 226 287 l 1,34,-1
 226 34 l 1,35,-1
 429 34 l 1,36,37
 454 45 454 45 474 97 c 1,38,-1
 494 97 l 1,39,-1
 470 0 l 1,40,-1
 36 0 l 1,11,-1
EndSplineSet
EndChar

StartChar: ebreve
Encoding: 277 277 215
Width: 501
GlyphClass: 2
Flags: W
LayerCount: 2
Fore
SplineSet
251 525 m 0,0,1
 190 525 190 525 157.5 565.5 c 128,-1,2
 125 606 125 606 125 649 c 1,3,-1
 153 649 l 1,4,5
 174 605 174 605 251 605 c 128,-1,6
 328 605 328 605 349 649 c 1,7,-1
 377 649 l 1,8,9
 377 605 377 605 345 565 c 128,-1,10
 313 525 313 525 251 525 c 0,0,1
161 241 m 1,11,12
 163 154 163 154 200.5 91 c 128,-1,13
 238 28 238 28 296 28 c 0,14,15
 383 28 383 28 436 94 c 1,16,-1
 460 82 l 1,17,18
 431 34 431 34 384.5 12 c 128,-1,19
 338 -10 338 -10 262 -10 c 0,20,21
 223 -10 223 -10 186 1.5 c 128,-1,22
 149 13 149 13 112.5 39.5 c 128,-1,23
 76 66 76 66 53.5 118 c 128,-1,24
 31 170 31 170 31 242 c 0,25,26
 31 329 31 329 92.5 389.5 c 128,-1,27
 154 450 154 450 252 450 c 0,28,29
 359 450 359 450 418 389.5 c 128,-1,30
 477 329 477 329 477 241 c 1,31,-1
 161 241 l 1,11,12
162 272 m 1,32,-1
 344 272 l 1,33,34
 338 343 338 343 319.5 381.5 c 128,-1,35
 301 420 301 420 260 420 c 0,36,37
 224 420 224 420 195.5 383.5 c 128,-1,38
 167 347 167 347 162 272 c 1,32,-1
EndSplineSet
EndChar

StartChar: Edotaccent
Encoding: 278 278 216
Width: 503
GlyphClass: 2
Flags: W
LayerCount: 2
Fore
SplineSet
216 682 m 128,-1,1
 216 708 216 708 234 725.5 c 128,-1,2
 252 743 252 743 277 743 c 128,-1,3
 302 743 302 743 320 725.5 c 128,-1,4
 338 708 338 708 338 682 c 128,-1,5
 338 656 338 656 320 638.5 c 128,-1,6
 302 621 302 621 277 621 c 128,-1,7
 252 621 252 621 234 638.5 c 128,-1,0
 216 656 216 656 216 682 c 128,-1,1
36 0 m 1,8,-1
 36 21 l 1,9,10
 90 21 90 21 99 41 c 1,11,-1
 99 544 l 1,12,13
 90 564 90 564 36 564 c 1,14,-1
 36 585 l 1,15,-1
 449 585 l 1,16,-1
 449 488 l 1,17,-1
 428 488 l 1,18,19
 428 542 428 542 408 551 c 1,20,-1
 226 551 l 1,21,-1
 226 321 l 1,22,-1
 341 321 l 1,23,24
 361 330 361 330 361 384 c 1,25,-1
 382 384 l 1,26,-1
 382 224 l 1,27,-1
 361 224 l 1,28,29
 361 278 361 278 341 287 c 1,30,-1
 226 287 l 1,31,-1
 226 34 l 1,32,-1
 429 34 l 1,33,34
 454 45 454 45 474 97 c 1,35,-1
 494 97 l 1,36,-1
 470 0 l 1,37,-1
 36 0 l 1,8,-1
EndSplineSet
EndChar

StartChar: edotaccent
Encoding: 279 279 217
Width: 501
GlyphClass: 2
Flags: W
LayerCount: 2
Fore
SplineSet
190 577 m 128,-1,1
 190 602 190 602 208 620 c 128,-1,2
 226 638 226 638 251 638 c 128,-1,3
 276 638 276 638 294 620 c 128,-1,4
 312 602 312 602 312 577 c 128,-1,5
 312 552 312 552 294 534 c 128,-1,6
 276 516 276 516 251 516 c 128,-1,7
 226 516 226 516 208 534 c 128,-1,0
 190 552 190 552 190 577 c 128,-1,1
161 241 m 1,8,9
 163 154 163 154 200.5 91 c 128,-1,10
 238 28 238 28 296 28 c 0,11,12
 383 28 383 28 436 94 c 1,13,-1
 460 82 l 1,14,15
 431 34 431 34 384.5 12 c 128,-1,16
 338 -10 338 -10 262 -10 c 0,17,18
 223 -10 223 -10 186 1.5 c 128,-1,19
 149 13 149 13 112.5 39.5 c 128,-1,20
 76 66 76 66 53.5 118 c 128,-1,21
 31 170 31 170 31 242 c 0,22,23
 31 329 31 329 92.5 389.5 c 128,-1,24
 154 450 154 450 252 450 c 0,25,26
 359 450 359 450 418 389.5 c 128,-1,27
 477 329 477 329 477 241 c 1,28,-1
 161 241 l 1,8,9
162 272 m 1,29,-1
 344 272 l 1,30,31
 338 343 338 343 319.5 381.5 c 128,-1,32
 301 420 301 420 260 420 c 0,33,34
 224 420 224 420 195.5 383.5 c 128,-1,35
 167 347 167 347 162 272 c 1,29,-1
EndSplineSet
EndChar

StartChar: Eogonek
Encoding: 280 280 218
Width: 503
GlyphClass: 2
Flags: W
LayerCount: 2
Fore
SplineSet
36 0 m 1,0,-1
 36 21 l 1,1,2
 90 21 90 21 99 41 c 1,3,-1
 99 544 l 1,4,5
 90 564 90 564 36 564 c 1,6,-1
 36 585 l 1,7,-1
 449 585 l 1,8,-1
 449 488 l 1,9,-1
 428 488 l 1,10,11
 428 542 428 542 408 551 c 1,12,-1
 226 551 l 1,13,-1
 226 321 l 1,14,-1
 341 321 l 1,15,16
 361 330 361 330 361 384 c 1,17,-1
 382 384 l 1,18,-1
 382 224 l 1,19,-1
 361 224 l 1,20,21
 361 278 361 278 341 287 c 1,22,-1
 226 287 l 1,23,-1
 226 34 l 1,24,-1
 429 34 l 1,25,26
 454 45 454 45 474 97 c 1,27,-1
 494 97 l 1,28,-1
 470 0 l 1,29,-1
 416 0 l 1,30,31
 390 -31 390 -31 390 -68 c 0,32,33
 390 -114 390 -114 413 -140 c 128,-1,34
 436 -166 436 -166 473 -166 c 0,35,36
 481 -166 481 -166 488.5 -162 c 128,-1,37
 496 -158 496 -158 500 -154 c 2,38,-1
 504 -150 l 1,39,-1
 515 -168 l 1,40,41
 513 -172 513 -172 508 -177 c 128,-1,42
 503 -182 503 -182 482.5 -191 c 128,-1,43
 462 -200 462 -200 436 -200 c 0,44,45
 386 -200 386 -200 358.5 -174 c 128,-1,46
 331 -148 331 -148 331 -103 c 0,47,48
 331 -45 331 -45 379 0 c 1,49,-1
 36 0 l 1,0,-1
EndSplineSet
EndChar

StartChar: eogonek
Encoding: 281 281 219
Width: 503
GlyphClass: 2
Flags: W
LayerCount: 2
Fore
SplineSet
163 272 m 1,0,-1
 345 272 l 1,1,2
 339 343 339 343 320.5 381.5 c 128,-1,3
 302 420 302 420 261 420 c 0,4,5
 225 420 225 420 196.5 383.5 c 128,-1,6
 168 347 168 347 163 272 c 1,0,-1
162 241 m 1,7,-1
 163 241 l 1,8,9
 165 154 165 154 202.5 91 c 128,-1,10
 240 28 240 28 298 28 c 0,11,12
 385 28 385 28 438 94 c 1,13,-1
 462 82 l 1,14,15
 415 6 415 6 317 -6 c 1,16,17
 296 -35 296 -35 296 -68 c 0,18,19
 296 -114 296 -114 319 -140 c 128,-1,20
 342 -166 342 -166 379 -166 c 0,21,22
 387 -166 387 -166 394.5 -162 c 128,-1,23
 402 -158 402 -158 406 -154 c 2,24,-1
 410 -150 l 1,25,-1
 421 -168 l 1,26,27
 419 -172 419 -172 414 -177 c 128,-1,28
 409 -182 409 -182 388.5 -191 c 128,-1,29
 368 -200 368 -200 342 -200 c 0,30,31
 292 -200 292 -200 264.5 -174 c 128,-1,32
 237 -148 237 -148 237 -103 c 0,33,34
 237 -52 237 -52 275 -10 c 1,35,-1
 263 -10 l 2,36,37
 224 -10 224 -10 187 1.5 c 128,-1,38
 150 13 150 13 113.5 39.5 c 128,-1,39
 77 66 77 66 54.5 118 c 128,-1,40
 32 170 32 170 32 242 c 0,41,42
 32 329 32 329 93.5 389.5 c 128,-1,43
 155 450 155 450 253 450 c 0,44,45
 360 450 360 450 419 389.5 c 128,-1,46
 478 329 478 329 478 241 c 1,47,-1
 162 241 l 1,7,-1
EndSplineSet
EndChar

StartChar: Ecaron
Encoding: 282 282 220
Width: 503
GlyphClass: 2
Flags: W
LayerCount: 2
Fore
SplineSet
253 620 m 1,0,-1
 159 782 l 1,1,-1
 195 782 l 1,2,-1
 278 705 l 1,3,-1
 361 782 l 1,4,-1
 397 782 l 1,5,-1
 303 620 l 1,6,-1
 253 620 l 1,0,-1
36 0 m 1,7,-1
 36 21 l 1,8,9
 90 21 90 21 99 41 c 1,10,-1
 99 544 l 1,11,12
 90 564 90 564 36 564 c 1,13,-1
 36 585 l 1,14,-1
 449 585 l 1,15,-1
 449 488 l 1,16,-1
 428 488 l 1,17,18
 428 542 428 542 408 551 c 1,19,-1
 226 551 l 1,20,-1
 226 321 l 1,21,-1
 341 321 l 1,22,23
 361 330 361 330 361 384 c 1,24,-1
 382 384 l 1,25,-1
 382 224 l 1,26,-1
 361 224 l 1,27,28
 361 278 361 278 341 287 c 1,29,-1
 226 287 l 1,30,-1
 226 34 l 1,31,-1
 429 34 l 1,32,33
 454 45 454 45 474 97 c 1,34,-1
 494 97 l 1,35,-1
 470 0 l 1,36,-1
 36 0 l 1,7,-1
EndSplineSet
EndChar

StartChar: ecaron
Encoding: 283 283 221
Width: 501
GlyphClass: 2
Flags: W
LayerCount: 2
Fore
SplineSet
227 515 m 1,0,-1
 133 677 l 1,1,-1
 169 677 l 1,2,-1
 252 600 l 1,3,-1
 335 677 l 1,4,-1
 371 677 l 1,5,-1
 277 515 l 1,6,-1
 227 515 l 1,0,-1
161 241 m 1,7,8
 163 154 163 154 200.5 91 c 128,-1,9
 238 28 238 28 296 28 c 0,10,11
 383 28 383 28 436 94 c 1,12,-1
 460 82 l 1,13,14
 431 34 431 34 384.5 12 c 128,-1,15
 338 -10 338 -10 262 -10 c 0,16,17
 223 -10 223 -10 186 1.5 c 128,-1,18
 149 13 149 13 112.5 39.5 c 128,-1,19
 76 66 76 66 53.5 118 c 128,-1,20
 31 170 31 170 31 242 c 0,21,22
 31 329 31 329 92.5 389.5 c 128,-1,23
 154 450 154 450 252 450 c 0,24,25
 359 450 359 450 418 389.5 c 128,-1,26
 477 329 477 329 477 241 c 1,27,-1
 161 241 l 1,7,8
162 272 m 1,28,-1
 344 272 l 1,29,30
 338 343 338 343 319.5 381.5 c 128,-1,31
 301 420 301 420 260 420 c 0,32,33
 224 420 224 420 195.5 383.5 c 128,-1,34
 167 347 167 347 162 272 c 1,28,-1
EndSplineSet
EndChar

StartChar: Gcircumflex
Encoding: 284 284 222
Width: 623
GlyphClass: 2
Flags: W
LayerCount: 2
Fore
SplineSet
385 782 m 1,0,-1
 479 620 l 1,1,-1
 443 620 l 1,2,-1
 360 687 l 1,3,-1
 277 620 l 1,4,-1
 241 620 l 1,5,-1
 335 782 l 1,6,-1
 385 782 l 1,0,-1
362 561 m 0,7,8
 278 561 278 561 225 481.5 c 128,-1,9
 172 402 172 402 172 286 c 0,10,11
 172 151 172 151 223.5 87.5 c 128,-1,12
 275 24 275 24 348 24 c 0,13,14
 390 24 390 24 424 33 c 1,15,-1
 424 248 l 1,16,17
 415 268 415 268 361 268 c 1,18,-1
 361 289 l 1,19,-1
 614 289 l 1,20,-1
 614 268 l 1,21,22
 560 268 560 268 551 248 c 1,23,-1
 551 80 l 1,24,25
 534 49 534 49 480 19.5 c 128,-1,26
 426 -10 426 -10 346 -10 c 0,27,28
 211 -10 211 -10 122 78 c 128,-1,29
 33 166 33 166 33 284 c 0,30,31
 33 377 33 377 83 449.5 c 128,-1,32
 133 522 133 522 207 558.5 c 128,-1,33
 281 595 281 595 361 595 c 0,34,35
 390 595 390 595 436 580 c 128,-1,36
 482 565 482 565 487 565 c 0,37,38
 499 565 499 565 499 585 c 1,39,-1
 522 585 l 1,40,-1
 532 440 l 1,41,-1
 510 440 l 1,42,43
 504 481 504 481 454 521 c 128,-1,44
 404 561 404 561 362 561 c 0,7,8
EndSplineSet
EndChar

StartChar: gcircumflex
Encoding: 285 285 223
Width: 537
GlyphClass: 2
Flags: W
LayerCount: 2
Fore
SplineSet
303 677 m 1,0,-1
 397 515 l 1,1,-1
 361 515 l 1,2,-1
 278 582 l 1,3,-1
 195 515 l 1,4,-1
 159 515 l 1,5,-1
 253 677 l 1,6,-1
 303 677 l 1,0,-1
480 450 m 1,7,-1
 480 29 l 2,8,9
 480 -71 480 -71 421.5 -135.5 c 128,-1,10
 363 -200 363 -200 266 -200 c 0,11,12
 174 -200 174 -200 120 -176 c 128,-1,13
 66 -152 66 -152 66 -112 c 0,14,15
 66 -48 66 -48 120 -48 c 0,16,17
 140 -48 140 -48 153 -62 c 128,-1,18
 166 -76 166 -76 166 -95 c 0,19,20
 166 -127 166 -127 141 -137 c 1,21,22
 168 -164 168 -164 256 -164 c 0,23,24
 302 -164 302 -164 326 -124.5 c 128,-1,25
 350 -85 350 -85 354 12 c 1,26,27
 312 -10 312 -10 251 -10 c 0,28,29
 218 -10 218 -10 183.5 0.5 c 128,-1,30
 149 11 149 11 113 35 c 128,-1,31
 77 59 77 59 54.5 106.5 c 128,-1,32
 32 154 32 154 32 218 c 0,33,34
 32 329 32 329 101 389.5 c 128,-1,35
 170 450 170 450 273 450 c 0,36,37
 337 450 337 450 381 420 c 1,38,39
 456 450 456 450 480 450 c 1,7,-1
355 44 m 1,40,-1
 355 65 l 1,41,-1
 355 402 l 1,42,43
 324 416 324 416 279 416 c 0,44,45
 162 416 162 416 162 218 c 0,46,47
 162 160 162 160 172.5 118.5 c 128,-1,48
 183 77 183 77 199.5 58 c 128,-1,49
 216 39 216 39 231 31.5 c 128,-1,50
 246 24 246 24 261 24 c 0,51,52
 315 24 315 24 355 44 c 1,40,-1
EndSplineSet
EndChar

StartChar: Gbreve
Encoding: 286 286 224
Width: 623
GlyphClass: 2
Flags: W
LayerCount: 2
Fore
SplineSet
360 630 m 0,0,1
 299 630 299 630 266.5 670.5 c 128,-1,2
 234 711 234 711 234 754 c 1,3,-1
 262 754 l 1,4,5
 283 710 283 710 360 710 c 128,-1,6
 437 710 437 710 458 754 c 1,7,-1
 486 754 l 1,8,9
 486 710 486 710 454 670 c 128,-1,10
 422 630 422 630 360 630 c 0,0,1
362 561 m 0,11,12
 278 561 278 561 225 481.5 c 128,-1,13
 172 402 172 402 172 286 c 0,14,15
 172 151 172 151 223.5 87.5 c 128,-1,16
 275 24 275 24 348 24 c 0,17,18
 390 24 390 24 424 33 c 1,19,-1
 424 248 l 1,20,21
 415 268 415 268 361 268 c 1,22,-1
 361 289 l 1,23,-1
 614 289 l 1,24,-1
 614 268 l 1,25,26
 560 268 560 268 551 248 c 1,27,-1
 551 80 l 1,28,29
 534 49 534 49 480 19.5 c 128,-1,30
 426 -10 426 -10 346 -10 c 0,31,32
 211 -10 211 -10 122 78 c 128,-1,33
 33 166 33 166 33 284 c 0,34,35
 33 377 33 377 83 449.5 c 128,-1,36
 133 522 133 522 207 558.5 c 128,-1,37
 281 595 281 595 361 595 c 0,38,39
 390 595 390 595 436 580 c 128,-1,40
 482 565 482 565 487 565 c 0,41,42
 499 565 499 565 499 585 c 1,43,-1
 522 585 l 1,44,-1
 532 440 l 1,45,-1
 510 440 l 1,46,47
 504 481 504 481 454 521 c 128,-1,48
 404 561 404 561 362 561 c 0,11,12
EndSplineSet
EndChar

StartChar: gbreve
Encoding: 287 287 225
Width: 537
GlyphClass: 2
Flags: W
LayerCount: 2
Fore
SplineSet
278 525 m 0,0,1
 217 525 217 525 184.5 565.5 c 128,-1,2
 152 606 152 606 152 649 c 1,3,-1
 180 649 l 1,4,5
 201 605 201 605 278 605 c 128,-1,6
 355 605 355 605 376 649 c 1,7,-1
 404 649 l 1,8,9
 404 605 404 605 372 565 c 128,-1,10
 340 525 340 525 278 525 c 0,0,1
480 450 m 1,11,-1
 480 29 l 2,12,13
 480 -71 480 -71 421.5 -135.5 c 128,-1,14
 363 -200 363 -200 266 -200 c 0,15,16
 174 -200 174 -200 120 -176 c 128,-1,17
 66 -152 66 -152 66 -112 c 0,18,19
 66 -48 66 -48 120 -48 c 0,20,21
 140 -48 140 -48 153 -62 c 128,-1,22
 166 -76 166 -76 166 -95 c 0,23,24
 166 -127 166 -127 141 -137 c 1,25,26
 168 -164 168 -164 256 -164 c 0,27,28
 302 -164 302 -164 326 -124.5 c 128,-1,29
 350 -85 350 -85 354 12 c 1,30,31
 312 -10 312 -10 251 -10 c 0,32,33
 218 -10 218 -10 183.5 0.5 c 128,-1,34
 149 11 149 11 113 35 c 128,-1,35
 77 59 77 59 54.5 106.5 c 128,-1,36
 32 154 32 154 32 218 c 0,37,38
 32 329 32 329 101 389.5 c 128,-1,39
 170 450 170 450 273 450 c 0,40,41
 337 450 337 450 381 420 c 1,42,43
 456 450 456 450 480 450 c 1,11,-1
355 44 m 1,44,-1
 355 65 l 1,45,-1
 355 402 l 1,46,47
 324 416 324 416 279 416 c 0,48,49
 162 416 162 416 162 218 c 0,50,51
 162 160 162 160 172.5 118.5 c 128,-1,52
 183 77 183 77 199.5 58 c 128,-1,53
 216 39 216 39 231 31.5 c 128,-1,54
 246 24 246 24 261 24 c 0,55,56
 315 24 315 24 355 44 c 1,44,-1
EndSplineSet
EndChar

StartChar: Gdotaccent
Encoding: 288 288 226
Width: 623
GlyphClass: 2
Flags: W
LayerCount: 2
Fore
SplineSet
299 682 m 128,-1,1
 299 708 299 708 316.5 725.5 c 128,-1,2
 334 743 334 743 360 743 c 128,-1,3
 386 743 386 743 403.5 725.5 c 128,-1,4
 421 708 421 708 421 682 c 128,-1,5
 421 656 421 656 403.5 638.5 c 128,-1,6
 386 621 386 621 360 621 c 128,-1,7
 334 621 334 621 316.5 638.5 c 128,-1,0
 299 656 299 656 299 682 c 128,-1,1
362 561 m 0,8,9
 278 561 278 561 225 481.5 c 128,-1,10
 172 402 172 402 172 286 c 0,11,12
 172 151 172 151 223.5 87.5 c 128,-1,13
 275 24 275 24 348 24 c 0,14,15
 390 24 390 24 424 33 c 1,16,-1
 424 248 l 1,17,18
 415 268 415 268 361 268 c 1,19,-1
 361 289 l 1,20,-1
 614 289 l 1,21,-1
 614 268 l 1,22,23
 560 268 560 268 551 248 c 1,24,-1
 551 80 l 1,25,26
 534 49 534 49 480 19.5 c 128,-1,27
 426 -10 426 -10 346 -10 c 0,28,29
 211 -10 211 -10 122 78 c 128,-1,30
 33 166 33 166 33 284 c 0,31,32
 33 377 33 377 83 449.5 c 128,-1,33
 133 522 133 522 207 558.5 c 128,-1,34
 281 595 281 595 361 595 c 0,35,36
 390 595 390 595 436 580 c 128,-1,37
 482 565 482 565 487 565 c 0,38,39
 499 565 499 565 499 585 c 1,40,-1
 522 585 l 1,41,-1
 532 440 l 1,42,-1
 510 440 l 1,43,44
 504 481 504 481 454 521 c 128,-1,45
 404 561 404 561 362 561 c 0,8,9
EndSplineSet
EndChar

StartChar: gdotaccent
Encoding: 289 289 227
Width: 537
GlyphClass: 2
Flags: W
LayerCount: 2
Fore
SplineSet
217 577 m 128,-1,1
 217 602 217 602 234.5 620 c 128,-1,2
 252 638 252 638 278 638 c 128,-1,3
 304 638 304 638 321.5 620 c 128,-1,4
 339 602 339 602 339 577 c 128,-1,5
 339 552 339 552 321.5 534 c 128,-1,6
 304 516 304 516 278 516 c 128,-1,7
 252 516 252 516 234.5 534 c 128,-1,0
 217 552 217 552 217 577 c 128,-1,1
480 450 m 1,8,-1
 480 29 l 2,9,10
 480 -71 480 -71 421.5 -135.5 c 128,-1,11
 363 -200 363 -200 266 -200 c 0,12,13
 174 -200 174 -200 120 -176 c 128,-1,14
 66 -152 66 -152 66 -112 c 0,15,16
 66 -48 66 -48 120 -48 c 0,17,18
 140 -48 140 -48 153 -62 c 128,-1,19
 166 -76 166 -76 166 -95 c 0,20,21
 166 -127 166 -127 141 -137 c 1,22,23
 168 -164 168 -164 256 -164 c 0,24,25
 302 -164 302 -164 326 -124.5 c 128,-1,26
 350 -85 350 -85 354 12 c 1,27,28
 312 -10 312 -10 251 -10 c 0,29,30
 218 -10 218 -10 183.5 0.5 c 128,-1,31
 149 11 149 11 113 35 c 128,-1,32
 77 59 77 59 54.5 106.5 c 128,-1,33
 32 154 32 154 32 218 c 0,34,35
 32 329 32 329 101 389.5 c 128,-1,36
 170 450 170 450 273 450 c 0,37,38
 337 450 337 450 381 420 c 1,39,40
 456 450 456 450 480 450 c 1,8,-1
355 44 m 1,41,-1
 355 65 l 1,42,-1
 355 402 l 1,43,44
 324 416 324 416 279 416 c 0,45,46
 162 416 162 416 162 218 c 0,47,48
 162 160 162 160 172.5 118.5 c 128,-1,49
 183 77 183 77 199.5 58 c 128,-1,50
 216 39 216 39 231 31.5 c 128,-1,51
 246 24 246 24 261 24 c 0,52,53
 315 24 315 24 355 44 c 1,41,-1
EndSplineSet
EndChar

StartChar: Gcommaaccent
Encoding: 290 290 228
Width: 624
GlyphClass: 2
Flags: W
LayerCount: 2
Fore
SplineSet
346 -130 m 0,0,1
 321 -130 321 -130 305.5 -117 c 128,-1,2
 290 -104 290 -104 290 -81 c 0,3,4
 290 -60 290 -60 302.5 -48 c 128,-1,5
 315 -36 315 -36 324 -34.5 c 128,-1,6
 333 -33 333 -33 341 -33 c 0,7,8
 382 -33 382 -33 410 -58.5 c 128,-1,9
 438 -84 438 -84 438 -125 c 0,10,11
 438 -214 438 -214 304 -255 c 1,12,-1
 304 -216 l 1,13,14
 331 -213 331 -213 356.5 -189.5 c 128,-1,15
 382 -166 382 -166 382 -137 c 0,16,17
 382 -117 382 -117 377 -117 c 1,18,-1
 372 -120 l 1,19,20
 368 -124 368 -124 361 -127 c 128,-1,21
 354 -130 354 -130 346 -130 c 0,0,1
363 561 m 0,22,23
 279 561 279 561 226 481.5 c 128,-1,24
 173 402 173 402 173 286 c 0,25,26
 173 151 173 151 224.5 87.5 c 128,-1,27
 276 24 276 24 349 24 c 0,28,29
 390 24 390 24 425 33 c 1,30,-1
 425 248 l 1,31,32
 416 268 416 268 362 268 c 1,33,-1
 362 289 l 1,34,-1
 615 289 l 1,35,-1
 615 268 l 1,36,37
 561 268 561 268 552 248 c 1,38,-1
 552 80 l 1,39,40
 535 49 535 49 481 19.5 c 128,-1,41
 427 -10 427 -10 347 -10 c 0,42,43
 212 -10 212 -10 123 78 c 128,-1,44
 34 166 34 166 34 284 c 0,45,46
 34 377 34 377 84 449.5 c 128,-1,47
 134 522 134 522 208 558.5 c 128,-1,48
 282 595 282 595 362 595 c 0,49,50
 392 595 392 595 437 580 c 128,-1,51
 482 565 482 565 488 565 c 0,52,53
 500 565 500 565 500 585 c 1,54,-1
 523 585 l 1,55,-1
 533 440 l 1,56,-1
 511 440 l 1,57,58
 505 481 505 481 455 521 c 128,-1,59
 405 561 405 561 363 561 c 0,22,23
EndSplineSet
EndChar

StartChar: gcommaaccent
Encoding: 291 291 229
Width: 537
GlyphClass: 2
Flags: W
LayerCount: 2
Fore
SplineSet
237 615 m 0,0,1
 237 595 237 595 242 595 c 1,2,3
 242 595 242 595 246 598 c 0,4,5
 251 602 251 602 258 605 c 128,-1,6
 265 608 265 608 273 608 c 0,7,8
 298 608 298 608 313.5 595 c 128,-1,9
 329 582 329 582 329 559 c 0,10,11
 329 538 329 538 316.5 526 c 128,-1,12
 304 514 304 514 295 512.5 c 128,-1,13
 286 511 286 511 278 511 c 0,14,15
 237 511 237 511 209 536.5 c 128,-1,16
 181 562 181 562 181 603 c 0,17,18
 181 692 181 692 315 733 c 1,19,-1
 315 694 l 1,20,21
 288 691 288 691 262.5 667.5 c 128,-1,22
 237 644 237 644 237 615 c 0,0,1
480 450 m 1,23,-1
 480 29 l 2,24,25
 480 -71 480 -71 421.5 -135.5 c 128,-1,26
 363 -200 363 -200 266 -200 c 0,27,28
 174 -200 174 -200 120 -176 c 128,-1,29
 66 -152 66 -152 66 -112 c 0,30,31
 66 -48 66 -48 120 -48 c 0,32,33
 140 -48 140 -48 153 -62 c 128,-1,34
 166 -76 166 -76 166 -95 c 0,35,36
 166 -127 166 -127 141 -137 c 1,37,38
 168 -164 168 -164 256 -164 c 0,39,40
 302 -164 302 -164 326 -124.5 c 128,-1,41
 350 -85 350 -85 354 12 c 1,42,43
 312 -10 312 -10 251 -10 c 0,44,45
 218 -10 218 -10 183.5 0.5 c 128,-1,46
 149 11 149 11 113 35 c 128,-1,47
 77 59 77 59 54.5 106.5 c 128,-1,48
 32 154 32 154 32 218 c 0,49,50
 32 329 32 329 101 389.5 c 128,-1,51
 170 450 170 450 273 450 c 0,52,53
 337 450 337 450 381 420 c 1,54,55
 456 450 456 450 480 450 c 1,23,-1
355 44 m 1,56,-1
 355 65 l 1,57,-1
 355 402 l 1,58,59
 324 416 324 416 279 416 c 0,60,61
 162 416 162 416 162 218 c 0,62,63
 162 160 162 160 172.5 118.5 c 128,-1,64
 183 77 183 77 199.5 58 c 128,-1,65
 216 39 216 39 231 31.5 c 128,-1,66
 246 24 246 24 261 24 c 0,67,68
 315 24 315 24 355 44 c 1,56,-1
EndSplineSet
EndChar

StartChar: Hcircumflex
Encoding: 292 292 230
Width: 673
GlyphClass: 2
Flags: W
LayerCount: 2
Fore
SplineSet
360 782 m 1,0,-1
 454 620 l 1,1,-1
 418 620 l 1,2,-1
 335 687 l 1,3,-1
 252 620 l 1,4,-1
 216 620 l 1,5,-1
 310 782 l 1,6,-1
 360 782 l 1,0,-1
36 0 m 1,7,-1
 36 21 l 1,8,9
 90 21 90 21 99 41 c 1,10,-1
 99 544 l 1,11,12
 90 564 90 564 36 564 c 1,13,-1
 36 585 l 1,14,-1
 289 585 l 1,15,-1
 289 564 l 1,16,17
 235 564 235 564 226 544 c 1,18,-1
 226 321 l 1,19,-1
 447 321 l 1,20,-1
 447 544 l 1,21,22
 438 564 438 564 384 564 c 1,23,-1
 384 585 l 1,24,-1
 637 585 l 1,25,-1
 637 564 l 1,26,27
 583 564 583 564 574 544 c 1,28,-1
 574 41 l 1,29,30
 583 21 583 21 637 21 c 1,31,-1
 637 0 l 1,32,-1
 384 0 l 1,33,-1
 384 21 l 1,34,35
 438 21 438 21 447 41 c 1,36,-1
 447 287 l 1,37,-1
 226 287 l 1,38,-1
 226 41 l 1,39,40
 235 21 235 21 289 21 c 1,41,-1
 289 0 l 1,42,-1
 36 0 l 1,7,-1
EndSplineSet
EndChar

StartChar: hcircumflex
Encoding: 293 293 231
Width: 596
GlyphClass: 2
Flags: W
LayerCount: 2
Fore
SplineSet
164 817 m 1,0,-1
 258 655 l 1,1,-1
 222 655 l 1,2,-1
 139 722 l 1,3,-1
 56 655 l 1,4,-1
 20 655 l 1,5,-1
 114 817 l 1,6,-1
 164 817 l 1,0,-1
14 0 m 1,7,-1
 14 21 l 1,8,9
 68 21 68 21 77 41 c 1,10,-1
 77 560 l 1,11,12
 23 564 23 564 14 564 c 1,13,-1
 14 587 l 1,14,15
 33 587 33 587 106 608.5 c 128,-1,16
 179 630 179 630 202 630 c 1,17,-1
 202 411 l 1,18,19
 262 450 262 450 321 450 c 0,20,21
 420 450 420 450 471 418 c 128,-1,22
 522 386 522 386 522 312 c 2,23,-1
 522 41 l 1,24,25
 531 21 531 21 585 21 c 1,26,-1
 585 0 l 1,27,-1
 334 0 l 1,28,-1
 334 21 l 1,29,30
 388 21 388 21 397 41 c 1,31,-1
 397 288 l 2,32,33
 397 357 397 357 376.5 386.5 c 128,-1,34
 356 416 356 416 315 416 c 0,35,36
 255 416 255 416 202 380 c 1,37,-1
 202 41 l 1,38,39
 211 21 211 21 265 21 c 1,40,-1
 265 0 l 1,41,-1
 14 0 l 1,7,-1
EndSplineSet
EndChar

StartChar: Hbar
Encoding: 294 294 232
Width: 673
GlyphClass: 2
Flags: W
LayerCount: 2
Fore
SplineSet
48 438 m 1,0,-1
 48 473 l 1,1,-1
 99 473 l 1,2,-1
 99 544 l 1,3,4
 90 564 90 564 36 564 c 1,5,-1
 36 585 l 1,6,-1
 289 585 l 1,7,-1
 289 564 l 1,8,9
 235 564 235 564 226 544 c 1,10,-1
 226 473 l 1,11,-1
 447 473 l 1,12,-1
 447 544 l 1,13,14
 438 564 438 564 384 564 c 1,15,-1
 384 585 l 1,16,-1
 637 585 l 1,17,-1
 637 564 l 1,18,19
 583 564 583 564 574 544 c 1,20,-1
 574 473 l 1,21,-1
 630 473 l 1,22,-1
 630 438 l 1,23,-1
 574 438 l 1,24,-1
 574 41 l 1,25,26
 583 21 583 21 637 21 c 1,27,-1
 637 0 l 1,28,-1
 384 0 l 1,29,-1
 384 21 l 1,30,31
 438 21 438 21 447 41 c 1,32,-1
 447 287 l 1,33,-1
 226 287 l 1,34,-1
 226 41 l 1,35,36
 235 21 235 21 289 21 c 1,37,-1
 289 0 l 1,38,-1
 36 0 l 1,39,-1
 36 21 l 1,40,41
 90 21 90 21 99 41 c 1,42,-1
 99 438 l 1,43,-1
 48 438 l 1,0,-1
447 438 m 1,44,-1
 226 438 l 1,45,-1
 226 321 l 1,46,-1
 447 321 l 1,47,-1
 447 438 l 1,44,-1
EndSplineSet
EndChar

StartChar: hbar
Encoding: 295 295 233
Width: 596
GlyphClass: 2
Flags: W
LayerCount: 2
Fore
SplineSet
27 490 m 1,0,-1
 27 525 l 1,1,-1
 77 525 l 1,2,-1
 77 560 l 1,3,4
 23 564 23 564 14 564 c 1,5,-1
 14 587 l 1,6,7
 33 587 33 587 106 608.5 c 128,-1,8
 179 630 179 630 202 630 c 1,9,-1
 202 525 l 1,10,-1
 315 525 l 1,11,-1
 315 490 l 1,12,-1
 202 490 l 1,13,-1
 202 411 l 1,14,15
 262 450 262 450 321 450 c 0,16,17
 420 450 420 450 471 418 c 128,-1,18
 522 386 522 386 522 312 c 2,19,-1
 522 41 l 1,20,21
 531 21 531 21 585 21 c 1,22,-1
 585 0 l 1,23,-1
 334 0 l 1,24,-1
 334 21 l 1,25,26
 388 21 388 21 397 41 c 1,27,-1
 397 288 l 2,28,29
 397 357 397 357 376.5 386.5 c 128,-1,30
 356 416 356 416 315 416 c 0,31,32
 255 416 255 416 202 380 c 1,33,-1
 202 41 l 1,34,35
 211 21 211 21 265 21 c 1,36,-1
 265 0 l 1,37,-1
 14 0 l 1,38,-1
 14 21 l 1,39,40
 68 21 68 21 77 41 c 1,41,-1
 77 490 l 1,42,-1
 27 490 l 1,0,-1
EndSplineSet
EndChar

StartChar: Itilde
Encoding: 296 296 234
Width: 325
GlyphClass: 2
Flags: W
LayerCount: 2
Fore
SplineSet
242 610 m 0,0,1
 220 610 220 610 160.5 639.5 c 128,-1,2
 101 669 101 669 87 669 c 0,3,4
 57 669 57 669 47 658.5 c 128,-1,5
 37 648 37 648 37 620 c 1,6,-1
 18 620 l 1,7,8
 18 685 18 685 39.5 713.5 c 128,-1,9
 61 742 61 742 94 742 c 0,10,11
 116 742 116 742 176 712.5 c 128,-1,12
 236 683 236 683 250 683 c 0,13,14
 280 683 280 683 290 693.5 c 128,-1,15
 300 704 300 704 300 732 c 1,16,-1
 319 732 l 1,17,18
 319 667 319 667 297 638.5 c 128,-1,19
 275 610 275 610 242 610 c 0,0,1
36 0 m 1,20,-1
 36 21 l 1,21,22
 90 21 90 21 99 41 c 1,23,-1
 99 544 l 1,24,25
 90 564 90 564 36 564 c 1,26,-1
 36 585 l 1,27,-1
 289 585 l 1,28,-1
 289 564 l 1,29,30
 235 564 235 564 226 544 c 1,31,-1
 226 41 l 1,32,33
 235 21 235 21 289 21 c 1,34,-1
 289 0 l 1,35,-1
 36 0 l 1,20,-1
EndSplineSet
EndChar

StartChar: itilde
Encoding: 297 297 235
Width: 289
GlyphClass: 2
Flags: W
LayerCount: 2
Fore
SplineSet
226 505 m 0,0,1
 204 505 204 505 144.5 534.5 c 128,-1,2
 85 564 85 564 71 564 c 0,3,4
 41 564 41 564 31 553.5 c 128,-1,5
 21 543 21 543 21 515 c 1,6,-1
 2 515 l 1,7,8
 2 580 2 580 23.5 608.5 c 128,-1,9
 45 637 45 637 78 637 c 0,10,11
 100 637 100 637 160 607.5 c 128,-1,12
 220 578 220 578 234 578 c 0,13,14
 264 578 264 578 274 588.5 c 128,-1,15
 284 599 284 599 284 627 c 1,16,-1
 303 627 l 1,17,18
 303 562 303 562 281 533.5 c 128,-1,19
 259 505 259 505 226 505 c 0,0,1
24 0 m 1,20,-1
 24 21 l 1,21,22
 78 21 78 21 87 41 c 1,23,-1
 87 380 l 1,24,25
 35 384 35 384 24 384 c 1,26,-1
 24 407 l 1,27,28
 43 407 43 407 116 428.5 c 128,-1,29
 189 450 189 450 212 450 c 1,30,-1
 212 41 l 1,31,32
 221 21 221 21 275 21 c 1,33,-1
 275 0 l 1,34,-1
 24 0 l 1,20,-1
EndSplineSet
EndChar

StartChar: Imacron
Encoding: 298 298 236
Width: 325
GlyphClass: 2
Flags: W
LayerCount: 2
Fore
SplineSet
29 688 m 1,0,-1
 293 688 l 1,1,-1
 293 634 l 1,2,-1
 29 634 l 1,3,-1
 29 688 l 1,0,-1
36 0 m 1,4,-1
 36 21 l 1,5,6
 90 21 90 21 99 41 c 1,7,-1
 99 544 l 1,8,9
 90 564 90 564 36 564 c 1,10,-1
 36 585 l 1,11,-1
 289 585 l 1,12,-1
 289 564 l 1,13,14
 235 564 235 564 226 544 c 1,15,-1
 226 41 l 1,16,17
 235 21 235 21 289 21 c 1,18,-1
 289 0 l 1,19,-1
 36 0 l 1,4,-1
EndSplineSet
EndChar

StartChar: imacron
Encoding: 299 299 237
Width: 289
GlyphClass: 2
Flags: W
LayerCount: 2
Fore
SplineSet
13 583 m 1,0,-1
 277 583 l 1,1,-1
 277 529 l 1,2,-1
 13 529 l 1,3,-1
 13 583 l 1,0,-1
24 0 m 1,4,-1
 24 21 l 1,5,6
 78 21 78 21 87 41 c 1,7,-1
 87 380 l 1,8,9
 35 384 35 384 24 384 c 1,10,-1
 24 407 l 1,11,12
 43 407 43 407 116 428.5 c 128,-1,13
 189 450 189 450 212 450 c 1,14,-1
 212 41 l 1,15,16
 221 21 221 21 275 21 c 1,17,-1
 275 0 l 1,18,-1
 24 0 l 1,4,-1
EndSplineSet
EndChar

StartChar: Ibreve
Encoding: 300 300 238
Width: 325
GlyphClass: 2
Flags: W
LayerCount: 2
Fore
SplineSet
167 630 m 0,0,1
 106 630 106 630 73.5 670.5 c 128,-1,2
 41 711 41 711 41 754 c 1,3,-1
 69 754 l 1,4,5
 90 710 90 710 167 710 c 128,-1,6
 244 710 244 710 265 754 c 1,7,-1
 293 754 l 1,8,9
 293 710 293 710 261 670 c 128,-1,10
 229 630 229 630 167 630 c 0,0,1
36 0 m 1,11,-1
 36 21 l 1,12,13
 90 21 90 21 99 41 c 1,14,-1
 99 544 l 1,15,16
 90 564 90 564 36 564 c 1,17,-1
 36 585 l 1,18,-1
 289 585 l 1,19,-1
 289 564 l 1,20,21
 235 564 235 564 226 544 c 1,22,-1
 226 41 l 1,23,24
 235 21 235 21 289 21 c 1,25,-1
 289 0 l 1,26,-1
 36 0 l 1,11,-1
EndSplineSet
EndChar

StartChar: ibreve
Encoding: 301 301 239
Width: 289
GlyphClass: 2
Flags: W
LayerCount: 2
Fore
SplineSet
151 525 m 0,0,1
 90 525 90 525 57.5 565.5 c 128,-1,2
 25 606 25 606 25 649 c 1,3,-1
 53 649 l 1,4,5
 74 605 74 605 151 605 c 128,-1,6
 228 605 228 605 249 649 c 1,7,-1
 277 649 l 1,8,9
 277 605 277 605 245 565 c 128,-1,10
 213 525 213 525 151 525 c 0,0,1
24 0 m 1,11,-1
 24 21 l 1,12,13
 78 21 78 21 87 41 c 1,14,-1
 87 380 l 1,15,16
 35 384 35 384 24 384 c 1,17,-1
 24 407 l 1,18,19
 43 407 43 407 116 428.5 c 128,-1,20
 189 450 189 450 212 450 c 1,21,-1
 212 41 l 1,22,23
 221 21 221 21 275 21 c 1,24,-1
 275 0 l 1,25,-1
 24 0 l 1,11,-1
EndSplineSet
EndChar

StartChar: Iogonek
Encoding: 302 302 240
Width: 325
GlyphClass: 2
Flags: W
LayerCount: 2
Fore
SplineSet
36 0 m 1,0,-1
 36 21 l 1,1,2
 90 21 90 21 99 41 c 1,3,-1
 99 544 l 1,4,5
 90 564 90 564 36 564 c 1,6,-1
 36 585 l 1,7,-1
 289 585 l 1,8,-1
 289 564 l 1,9,10
 235 564 235 564 226 544 c 1,11,-1
 226 41 l 1,12,13
 235 21 235 21 289 21 c 1,14,-1
 289 0 l 1,15,-1
 235 0 l 1,16,17
 209 -31 209 -31 209 -68 c 0,18,19
 209 -114 209 -114 232 -140 c 128,-1,20
 255 -166 255 -166 292 -166 c 0,21,22
 300 -166 300 -166 308 -162 c 128,-1,23
 316 -158 316 -158 320 -154 c 2,24,-1
 323 -150 l 1,25,-1
 334 -168 l 1,26,27
 332 -172 332 -172 327 -177 c 128,-1,28
 322 -182 322 -182 301.5 -191 c 128,-1,29
 281 -200 281 -200 255 -200 c 0,30,31
 205 -200 205 -200 177.5 -174 c 128,-1,32
 150 -148 150 -148 150 -103 c 0,33,34
 150 -45 150 -45 198 0 c 1,35,-1
 36 0 l 1,0,-1
EndSplineSet
EndChar

StartChar: iogonek
Encoding: 303 303 241
Width: 289
GlyphClass: 2
Flags: W
LayerCount: 2
Fore
SplineSet
147 514 m 0,0,1
 123 514 123 514 98.5 531.5 c 128,-1,2
 74 549 74 549 74 573 c 0,3,4
 74 594 74 594 96.5 612 c 128,-1,5
 119 630 119 630 144 630 c 0,6,7
 168 630 168 630 192.5 612.5 c 128,-1,8
 217 595 217 595 217 570 c 0,9,10
 217 549 217 549 194.5 531.5 c 128,-1,11
 172 514 172 514 147 514 c 0,0,1
24 0 m 1,12,-1
 24 21 l 1,13,14
 78 21 78 21 87 41 c 1,15,-1
 87 380 l 1,16,17
 35 384 35 384 24 384 c 1,18,-1
 24 407 l 1,19,20
 43 407 43 407 116 428.5 c 128,-1,21
 189 450 189 450 212 450 c 1,22,-1
 212 41 l 1,23,24
 221 21 221 21 275 21 c 1,25,-1
 275 0 l 1,26,-1
 220 0 l 1,27,28
 194 -31 194 -31 194 -68 c 0,29,30
 194 -114 194 -114 217 -140 c 128,-1,31
 240 -166 240 -166 277 -166 c 0,32,33
 285 -166 285 -166 292.5 -162 c 128,-1,34
 300 -158 300 -158 304 -154 c 2,35,-1
 308 -150 l 1,36,-1
 319 -168 l 1,37,38
 317 -172 317 -172 312 -177 c 128,-1,39
 307 -182 307 -182 286.5 -191 c 128,-1,40
 266 -200 266 -200 240 -200 c 0,41,42
 190 -200 190 -200 162.5 -174 c 128,-1,43
 135 -148 135 -148 135 -103 c 0,44,45
 135 -45 135 -45 183 0 c 1,46,-1
 24 0 l 1,12,-1
EndSplineSet
EndChar

StartChar: Idotaccent
Encoding: 304 304 242
Width: 325
GlyphClass: 2
Flags: W
LayerCount: 2
Fore
SplineSet
106 682 m 128,-1,1
 106 708 106 708 124 725.5 c 128,-1,2
 142 743 142 743 167 743 c 128,-1,3
 192 743 192 743 210 725.5 c 128,-1,4
 228 708 228 708 228 682 c 128,-1,5
 228 656 228 656 210 638.5 c 128,-1,6
 192 621 192 621 167 621 c 128,-1,7
 142 621 142 621 124 638.5 c 128,-1,0
 106 656 106 656 106 682 c 128,-1,1
36 0 m 1,8,-1
 36 21 l 1,9,10
 90 21 90 21 99 41 c 1,11,-1
 99 544 l 1,12,13
 90 564 90 564 36 564 c 1,14,-1
 36 585 l 1,15,-1
 289 585 l 1,16,-1
 289 564 l 1,17,18
 235 564 235 564 226 544 c 1,19,-1
 226 41 l 1,20,21
 235 21 235 21 289 21 c 1,22,-1
 289 0 l 1,23,-1
 36 0 l 1,8,-1
EndSplineSet
EndChar

StartChar: dotlessi
Encoding: 305 305 243
Width: 289
GlyphClass: 2
Flags: W
LayerCount: 2
Fore
SplineSet
24 0 m 1,0,-1
 24 21 l 1,1,2
 78 21 78 21 87 41 c 1,3,-1
 87 380 l 1,4,5
 35 384 35 384 24 384 c 1,6,-1
 24 407 l 1,7,8
 43 407 43 407 116 428.5 c 128,-1,9
 189 450 189 450 212 450 c 1,10,-1
 212 41 l 1,11,12
 221 21 221 21 275 21 c 1,13,-1
 275 0 l 1,14,-1
 24 0 l 1,0,-1
EndSplineSet
EndChar

StartChar: IJ
Encoding: 306 306 244
Width: 729
GlyphClass: 2
Flags: W
LayerCount: 2
Fore
SplineSet
36 0 m 1,0,-1
 36 21 l 1,1,2
 90 21 90 21 99 41 c 1,3,-1
 99 544 l 1,4,5
 90 564 90 564 36 564 c 1,6,-1
 36 585 l 1,7,-1
 289 585 l 1,8,-1
 289 564 l 1,9,10
 235 564 235 564 226 544 c 1,11,-1
 226 41 l 1,12,13
 235 21 235 21 289 21 c 1,14,-1
 289 0 l 1,15,-1
 36 0 l 1,0,-1
647 218 m 2,16,17
 647 102 647 102 600.5 46 c 128,-1,18
 554 -10 554 -10 456 -10 c 0,19,20
 385 -10 385 -10 345.5 18.5 c 128,-1,21
 306 47 306 47 306 80 c 0,22,23
 306 103 306 103 320.5 121.5 c 128,-1,24
 335 140 335 140 354 140 c 0,25,26
 371 140 371 140 387.5 126.5 c 128,-1,27
 404 113 404 113 404 95 c 0,28,29
 404 61 404 61 379 53 c 1,30,31
 380 52 380 52 383.5 47.5 c 128,-1,32
 387 43 387 43 390.5 40.5 c 128,-1,33
 394 38 394 38 401 34 c 128,-1,34
 408 30 408 30 419.5 28 c 128,-1,35
 431 26 431 26 446 26 c 0,36,37
 490 26 490 26 505 79.5 c 128,-1,38
 520 133 520 133 520 254 c 2,39,-1
 520 544 l 1,40,41
 511 564 511 564 457 564 c 1,42,-1
 457 585 l 1,43,-1
 710 585 l 1,44,-1
 710 564 l 1,45,46
 656 564 656 564 647 544 c 1,47,-1
 647 218 l 2,16,17
EndSplineSet
EndChar

StartChar: ij
Encoding: 307 307 245
Width: 551
GlyphClass: 2
Flags: W
LayerCount: 2
Fore
SplineSet
24 0 m 1,0,-1
 24 21 l 1,1,2
 78 21 78 21 87 41 c 1,3,-1
 87 380 l 1,4,5
 35 384 35 384 24 384 c 1,6,-1
 24 407 l 1,7,8
 43 407 43 407 116 428.5 c 128,-1,9
 189 450 189 450 212 450 c 1,10,-1
 212 41 l 1,11,12
 221 21 221 21 275 21 c 1,13,-1
 275 0 l 1,14,-1
 24 0 l 1,0,-1
147 514 m 0,15,16
 123 514 123 514 98.5 531.5 c 128,-1,17
 74 549 74 549 74 573 c 0,18,19
 74 594 74 594 96.5 612 c 128,-1,20
 119 630 119 630 144 630 c 0,21,22
 168 630 168 630 192.5 612.5 c 128,-1,23
 217 595 217 595 217 570 c 0,24,25
 217 549 217 549 194.5 531.5 c 128,-1,26
 172 514 172 514 147 514 c 0,15,16
428 515 m 0,27,28
 404 515 404 515 380 532.5 c 128,-1,29
 356 550 356 550 356 574 c 0,30,31
 356 595 356 595 378 613 c 128,-1,32
 400 631 400 631 425 631 c 0,33,34
 449 631 449 631 474 613 c 128,-1,35
 499 595 499 595 499 571 c 0,36,37
 499 550 499 550 476 532.5 c 128,-1,38
 453 515 453 515 428 515 c 0,27,28
369 381 m 1,39,40
 317 385 317 385 306 385 c 1,41,-1
 306 408 l 1,42,43
 325 408 325 408 398 429.5 c 128,-1,44
 471 451 471 451 494 451 c 1,45,-1
 494 -43 l 2,46,47
 494 -123 494 -123 445 -161 c 128,-1,48
 396 -199 396 -199 335 -199 c 0,49,50
 205 -199 205 -199 205 -112 c 0,51,52
 205 -91 205 -91 217.5 -75.5 c 128,-1,53
 230 -60 230 -60 253 -60 c 0,54,55
 274 -60 274 -60 285.5 -75.5 c 128,-1,56
 297 -91 297 -91 297 -111 c 0,57,58
 297 -125 297 -125 287 -135 c 1,59,60
 287 -169 287 -169 325 -169 c 0,61,62
 344 -169 344 -169 356.5 -140 c 128,-1,63
 369 -111 369 -111 369 -57 c 2,64,-1
 369 381 l 1,39,40
EndSplineSet
EndChar

StartChar: Jcircumflex
Encoding: 308 308 246
Width: 424
GlyphClass: 2
Flags: W
LayerCount: 2
Fore
SplineSet
307 782 m 1,0,-1
 401 620 l 1,1,-1
 365 620 l 1,2,-1
 282 687 l 1,3,-1
 199 620 l 1,4,-1
 163 620 l 1,5,-1
 257 782 l 1,6,-1
 307 782 l 1,0,-1
342 218 m 2,7,8
 342 102 342 102 295.5 46 c 128,-1,9
 249 -10 249 -10 151 -10 c 0,10,11
 80 -10 80 -10 40.5 18.5 c 128,-1,12
 1 47 1 47 1 80 c 0,13,14
 1 103 1 103 15.5 121.5 c 128,-1,15
 30 140 30 140 49 140 c 0,16,17
 66 140 66 140 82.5 126.5 c 128,-1,18
 99 113 99 113 99 95 c 0,19,20
 99 61 99 61 74 53 c 1,21,22
 75 52 75 52 78.5 47.5 c 128,-1,23
 82 43 82 43 85.5 40.5 c 128,-1,24
 89 38 89 38 96 34 c 128,-1,25
 103 30 103 30 114.5 28 c 128,-1,26
 126 26 126 26 141 26 c 0,27,28
 185 26 185 26 200 79.5 c 128,-1,29
 215 133 215 133 215 254 c 2,30,-1
 215 544 l 1,31,32
 206 564 206 564 152 564 c 1,33,-1
 152 585 l 1,34,-1
 405 585 l 1,35,-1
 405 564 l 1,36,37
 351 564 351 564 342 544 c 1,38,-1
 342 218 l 2,7,8
EndSplineSet
EndChar

StartChar: jcircumflex
Encoding: 309 309 247
Width: 258
GlyphClass: 2
Flags: W
LayerCount: 2
Fore
SplineSet
160 677 m 1,0,-1
 254 515 l 1,1,-1
 218 515 l 1,2,-1
 135 582 l 1,3,-1
 52 515 l 1,4,-1
 16 515 l 1,5,-1
 110 677 l 1,6,-1
 160 677 l 1,0,-1
76 381 m 1,7,8
 24 385 24 385 13 385 c 1,9,-1
 13 408 l 1,10,11
 32 408 32 408 105 429.5 c 128,-1,12
 178 451 178 451 201 451 c 1,13,-1
 201 -43 l 2,14,15
 201 -123 201 -123 152 -161 c 128,-1,16
 103 -199 103 -199 42 -199 c 0,17,18
 -88 -199 -88 -199 -88 -112 c 0,19,20
 -88 -91 -88 -91 -75.5 -75.5 c 128,-1,21
 -63 -60 -63 -60 -40 -60 c 0,22,23
 -19 -60 -19 -60 -7.5 -75.5 c 128,-1,24
 4 -91 4 -91 4 -111 c 0,25,26
 4 -125 4 -125 -6 -135 c 1,27,28
 -6 -169 -6 -169 32 -169 c 0,29,30
 51 -169 51 -169 63.5 -140 c 128,-1,31
 76 -111 76 -111 76 -57 c 2,32,-1
 76 381 l 1,7,8
EndSplineSet
EndChar

StartChar: Kcommaaccent
Encoding: 310 310 248
Width: 628
GlyphClass: 2
Flags: W
LayerCount: 2
Fore
SplineSet
349 -130 m 0,0,1
 324 -130 324 -130 308.5 -117 c 128,-1,2
 293 -104 293 -104 293 -81 c 0,3,4
 293 -60 293 -60 305.5 -48 c 128,-1,5
 318 -36 318 -36 327 -34.5 c 128,-1,6
 336 -33 336 -33 344 -33 c 0,7,8
 385 -33 385 -33 413 -58.5 c 128,-1,9
 441 -84 441 -84 441 -125 c 0,10,11
 441 -214 441 -214 307 -255 c 1,12,-1
 307 -216 l 1,13,14
 334 -213 334 -213 359.5 -189.5 c 128,-1,15
 385 -166 385 -166 385 -137 c 0,16,17
 385 -117 385 -117 380 -117 c 1,18,-1
 376 -120 l 2,19,20
 371 -124 371 -124 364 -127 c 128,-1,21
 357 -130 357 -130 349 -130 c 0,0,1
35 0 m 1,22,-1
 35 21 l 1,23,24
 89 21 89 21 98 41 c 1,25,-1
 98 544 l 1,26,27
 89 564 89 564 35 564 c 1,28,-1
 35 585 l 1,29,-1
 286 585 l 1,30,-1
 286 564 l 1,31,32
 232 564 232 564 223 544 c 1,33,-1
 223 41 l 1,34,35
 232 21 232 21 286 21 c 1,36,-1
 286 0 l 1,37,-1
 35 0 l 1,22,-1
419 0 m 1,38,-1
 419 21 l 1,39,40
 442 21 442 21 456 24 c 1,41,-1
 228 314 l 1,42,-1
 473 557 l 1,43,44
 459 564 459 564 422 564 c 1,45,-1
 422 585 l 1,46,-1
 579 585 l 1,47,-1
 579 564 l 1,48,49
 570 564 570 564 563 563.5 c 128,-1,50
 556 563 556 563 550 561 c 128,-1,51
 544 559 544 559 540 558 c 128,-1,52
 536 557 536 557 532 554 c 128,-1,53
 528 551 528 551 526.5 550 c 128,-1,54
 525 549 525 549 521 545 c 2,55,-1
 517 541 l 1,56,-1
 335 362 l 1,57,-1
 586 37 l 2,58,59
 599 21 599 21 649 21 c 1,60,-1
 649 0 l 1,61,-1
 419 0 l 1,38,-1
EndSplineSet
EndChar

StartChar: kcommaaccent
Encoding: 311 311 249
Width: 551
GlyphClass: 2
Flags: W
LayerCount: 2
Fore
SplineSet
302 -130 m 0,0,1
 277 -130 277 -130 261.5 -117 c 128,-1,2
 246 -104 246 -104 246 -81 c 0,3,4
 246 -60 246 -60 258.5 -48 c 128,-1,5
 271 -36 271 -36 280 -34.5 c 128,-1,6
 289 -33 289 -33 297 -33 c 0,7,8
 338 -33 338 -33 366 -58.5 c 128,-1,9
 394 -84 394 -84 394 -125 c 0,10,11
 394 -214 394 -214 260 -255 c 1,12,-1
 260 -216 l 1,13,14
 287 -213 287 -213 312.5 -189.5 c 128,-1,15
 338 -166 338 -166 338 -137 c 0,16,17
 338 -117 338 -117 333 -117 c 1,18,-1
 328 -120 l 1,19,20
 324 -124 324 -124 317 -127 c 128,-1,21
 310 -130 310 -130 302 -130 c 0,0,1
14 0 m 1,22,-1
 14 21 l 1,23,24
 68 21 68 21 77 41 c 1,25,-1
 77 560 l 1,26,27
 23 564 23 564 14 564 c 1,28,-1
 14 587 l 1,29,30
 33 587 33 587 106 608.5 c 128,-1,31
 179 630 179 630 202 630 c 1,32,-1
 202 41 l 1,33,34
 211 21 211 21 265 21 c 1,35,-1
 265 0 l 1,36,-1
 14 0 l 1,22,-1
338 0 m 1,37,-1
 338 21 l 1,38,39
 362 21 362 21 376 24 c 1,40,-1
 209 254 l 1,41,-1
 386 413 l 1,42,43
 371 419 371 419 337 419 c 1,44,-1
 337 440 l 1,45,-1
 494 440 l 1,46,-1
 494 419 l 1,47,48
 455 419 455 419 440 406 c 2,49,-1
 319 298 l 1,50,-1
 505 40 l 2,51,52
 519 21 519 21 568 21 c 1,53,-1
 568 0 l 1,54,-1
 338 0 l 1,37,-1
EndSplineSet
EndChar

StartChar: Lacute
Encoding: 313 313 250
Width: 498
GlyphClass: 2
Flags: W
LayerCount: 2
Fore
SplineSet
173 782 m 1,0,-1
 299 782 l 1,1,-1
 165 620 l 1,2,-1
 119 620 l 1,3,-1
 173 782 l 1,0,-1
36 0 m 1,4,-1
 36 21 l 1,5,6
 90 21 90 21 99 41 c 1,7,-1
 99 544 l 1,8,9
 90 564 90 564 36 564 c 1,10,-1
 36 585 l 1,11,-1
 289 585 l 1,12,-1
 289 564 l 1,13,14
 235 564 235 564 226 544 c 1,15,-1
 226 34 l 1,16,-1
 434 34 l 1,17,18
 459 45 459 45 479 97 c 1,19,-1
 499 97 l 1,20,-1
 475 0 l 1,21,-1
 36 0 l 1,4,-1
EndSplineSet
EndChar

StartChar: lacute
Encoding: 314 314 251
Width: 279
GlyphClass: 2
Flags: W
LayerCount: 2
Fore
SplineSet
151 817 m 1,0,-1
 277 817 l 1,1,-1
 143 655 l 1,2,-1
 97 655 l 1,3,-1
 151 817 l 1,0,-1
14 0 m 1,4,-1
 14 21 l 1,5,6
 68 21 68 21 77 41 c 1,7,-1
 77 560 l 1,8,9
 23 564 23 564 14 564 c 1,10,-1
 14 587 l 1,11,12
 33 587 33 587 106 608.5 c 128,-1,13
 179 630 179 630 202 630 c 1,14,-1
 202 41 l 1,15,16
 211 21 211 21 265 21 c 1,17,-1
 265 0 l 1,18,-1
 14 0 l 1,4,-1
EndSplineSet
EndChar

StartChar: Lcommaaccent
Encoding: 315 315 252
Width: 495
GlyphClass: 2
Flags: W
LayerCount: 2
Fore
SplineSet
281 -130 m 0,0,1
 256 -130 256 -130 240.5 -117 c 128,-1,2
 225 -104 225 -104 225 -81 c 0,3,4
 225 -60 225 -60 237.5 -48 c 128,-1,5
 250 -36 250 -36 259 -34.5 c 128,-1,6
 268 -33 268 -33 276 -33 c 0,7,8
 317 -33 317 -33 345 -58.5 c 128,-1,9
 373 -84 373 -84 373 -125 c 0,10,11
 373 -214 373 -214 239 -255 c 1,12,-1
 239 -216 l 1,13,14
 266 -213 266 -213 291.5 -189.5 c 128,-1,15
 317 -166 317 -166 317 -137 c 0,16,17
 317 -117 317 -117 312 -117 c 1,18,-1
 308 -120 l 2,19,20
 303 -124 303 -124 296 -127 c 128,-1,21
 289 -130 289 -130 281 -130 c 0,0,1
35 0 m 1,22,-1
 35 21 l 1,23,24
 89 21 89 21 98 41 c 1,25,-1
 98 544 l 1,26,27
 89 564 89 564 35 564 c 1,28,-1
 35 585 l 1,29,-1
 288 585 l 1,30,-1
 288 564 l 1,31,32
 234 564 234 564 225 544 c 1,33,-1
 225 34 l 1,34,-1
 433 34 l 1,35,36
 458 45 458 45 478 97 c 1,37,-1
 498 97 l 1,38,-1
 474 0 l 1,39,-1
 35 0 l 1,22,-1
EndSplineSet
EndChar

StartChar: lcommaaccent
Encoding: 316 316 253
Width: 279
GlyphClass: 2
Flags: W
LayerCount: 2
Fore
SplineSet
144 -130 m 0,0,1
 119 -130 119 -130 103.5 -117 c 128,-1,2
 88 -104 88 -104 88 -81 c 0,3,4
 88 -60 88 -60 100.5 -48 c 128,-1,5
 113 -36 113 -36 122 -34.5 c 128,-1,6
 131 -33 131 -33 139 -33 c 0,7,8
 180 -33 180 -33 208 -58.5 c 128,-1,9
 236 -84 236 -84 236 -125 c 0,10,11
 236 -214 236 -214 102 -255 c 1,12,-1
 102 -216 l 1,13,14
 129 -213 129 -213 154.5 -189.5 c 128,-1,15
 180 -166 180 -166 180 -137 c 0,16,17
 180 -117 180 -117 175 -117 c 1,18,-1
 170 -120 l 1,19,20
 166 -124 166 -124 159 -127 c 128,-1,21
 152 -130 152 -130 144 -130 c 0,0,1
14 0 m 1,22,-1
 14 21 l 1,23,24
 68 21 68 21 77 41 c 1,25,-1
 77 560 l 1,26,27
 23 564 23 564 14 564 c 1,28,-1
 14 587 l 1,29,30
 33 587 33 587 106 608.5 c 128,-1,31
 179 630 179 630 202 630 c 1,32,-1
 202 41 l 1,33,34
 211 21 211 21 265 21 c 1,35,-1
 265 0 l 1,36,-1
 14 0 l 1,22,-1
EndSplineSet
EndChar

StartChar: Lcaron
Encoding: 317 317 254
Width: 504
GlyphClass: 2
Flags: W
LayerCount: 2
Fore
SplineSet
36 0 m 1,0,-1
 36 21 l 1,1,2
 90 21 90 21 99 41 c 1,3,-1
 99 544 l 1,4,5
 90 564 90 564 36 564 c 1,6,-1
 36 585 l 1,7,-1
 289 585 l 1,8,-1
 289 564 l 1,9,10
 235 564 235 564 226 544 c 1,11,-1
 226 34 l 1,12,-1
 434 34 l 1,13,14
 459 45 459 45 479 97 c 1,15,-1
 499 97 l 1,16,-1
 475 0 l 1,17,-1
 36 0 l 1,0,-1
371 503 m 0,18,19
 346 503 346 503 330.5 516 c 128,-1,20
 315 529 315 529 315 552 c 0,21,22
 315 573 315 573 327.5 585 c 128,-1,23
 340 597 340 597 349 598.5 c 128,-1,24
 358 600 358 600 366 600 c 0,25,26
 407 600 407 600 435 574.5 c 128,-1,27
 463 549 463 549 463 508 c 0,28,29
 463 419 463 419 329 378 c 1,30,-1
 329 417 l 1,31,32
 356 420 356 420 381.5 443.5 c 128,-1,33
 407 467 407 467 407 496 c 0,34,35
 407 516 407 516 402 516 c 1,36,-1
 398 513 l 2,37,38
 393 510 393 510 386 506.5 c 128,-1,39
 379 503 379 503 371 503 c 0,18,19
EndSplineSet
EndChar

StartChar: lcaron
Encoding: 318 318 255
Width: 310
GlyphClass: 2
Flags: W
LayerCount: 2
Fore
SplineSet
14 0 m 1,0,-1
 14 21 l 1,1,2
 68 21 68 21 77 41 c 1,3,-1
 77 560 l 1,4,5
 23 564 23 564 14 564 c 1,6,-1
 14 587 l 1,7,8
 33 587 33 587 106 608.5 c 128,-1,9
 179 630 179 630 202 630 c 1,10,-1
 202 41 l 1,11,12
 211 21 211 21 265 21 c 1,13,-1
 265 0 l 1,14,-1
 14 0 l 1,0,-1
290 538 m 0,15,16
 265 538 265 538 249.5 551 c 128,-1,17
 234 564 234 564 234 587 c 0,18,19
 234 608 234 608 246.5 620 c 128,-1,20
 259 632 259 632 268 633.5 c 128,-1,21
 277 635 277 635 285 635 c 0,22,23
 326 635 326 635 354 609.5 c 128,-1,24
 382 584 382 584 382 543 c 0,25,26
 382 454 382 454 248 413 c 1,27,-1
 248 452 l 1,28,29
 275 455 275 455 300.5 478.5 c 128,-1,30
 326 502 326 502 326 531 c 0,31,32
 326 551 326 551 321 551 c 1,33,-1
 316 548 l 1,34,35
 312 544 312 544 305 541 c 128,-1,36
 298 538 298 538 290 538 c 0,15,16
EndSplineSet
EndChar

StartChar: Ldot
Encoding: 319 319 256
Width: 499
GlyphClass: 2
Flags: W
LayerCount: 2
Fore
SplineSet
36 0 m 1,0,-1
 36 21 l 1,1,2
 90 21 90 21 99 41 c 1,3,-1
 99 544 l 1,4,5
 90 564 90 564 36 564 c 1,6,-1
 36 585 l 1,7,-1
 289 585 l 1,8,-1
 289 564 l 1,9,10
 235 564 235 564 226 544 c 1,11,-1
 226 34 l 1,12,-1
 434 34 l 1,13,14
 459 45 459 45 479 97 c 1,15,-1
 499 97 l 1,16,-1
 475 0 l 1,17,-1
 36 0 l 1,0,-1
306 318 m 128,-1,19
 306 344 306 344 324 361.5 c 128,-1,20
 342 379 342 379 367 379 c 128,-1,21
 392 379 392 379 410 361.5 c 128,-1,22
 428 344 428 344 428 318 c 128,-1,23
 428 292 428 292 410 274.5 c 128,-1,24
 392 257 392 257 367 257 c 128,-1,25
 342 257 342 257 324 274.5 c 128,-1,18
 306 292 306 292 306 318 c 128,-1,19
EndSplineSet
EndChar

StartChar: ldot
Encoding: 320 320 257
Width: 316
GlyphClass: 2
Flags: W
LayerCount: 2
Fore
SplineSet
14 0 m 1,0,-1
 14 21 l 1,1,2
 68 21 68 21 77 41 c 1,3,-1
 77 560 l 1,4,5
 23 564 23 564 14 564 c 1,6,-1
 14 587 l 1,7,8
 33 587 33 587 106 608.5 c 128,-1,9
 179 630 179 630 202 630 c 1,10,-1
 202 41 l 1,11,12
 211 21 211 21 265 21 c 1,13,-1
 265 0 l 1,14,-1
 14 0 l 1,0,-1
238 318 m 128,-1,16
 238 344 238 344 256 361.5 c 128,-1,17
 274 379 274 379 299 379 c 128,-1,18
 324 379 324 379 342 361.5 c 128,-1,19
 360 344 360 344 360 318 c 128,-1,20
 360 292 360 292 342 274.5 c 128,-1,21
 324 257 324 257 299 257 c 128,-1,22
 274 257 274 257 256 274.5 c 128,-1,15
 238 292 238 292 238 318 c 128,-1,16
EndSplineSet
EndChar

StartChar: Lslash
Encoding: 321 321 258
Width: 498
GlyphClass: 2
Flags: W
LayerCount: 2
Fore
SplineSet
36 0 m 1,0,-1
 36 21 l 1,1,2
 90 21 90 21 99 41 c 1,3,-1
 99 270 l 1,4,-1
 54 233 l 1,5,-1
 32 259 l 1,6,-1
 99 314 l 1,7,-1
 99 544 l 1,8,9
 90 564 90 564 36 564 c 1,10,-1
 36 585 l 1,11,-1
 289 585 l 1,12,-1
 289 564 l 1,13,14
 235 564 235 564 226 544 c 1,15,-1
 226 418 l 1,16,-1
 264 449 l 1,17,-1
 286 423 l 1,18,-1
 226 374 l 1,19,-1
 226 34 l 1,20,-1
 434 34 l 1,21,22
 459 45 459 45 479 97 c 1,23,-1
 499 97 l 1,24,-1
 475 0 l 1,25,-1
 36 0 l 1,0,-1
EndSplineSet
EndChar

StartChar: lslash
Encoding: 322 322 259
Width: 280
GlyphClass: 2
Flags: W
LayerCount: 2
Fore
SplineSet
14 0 m 1,0,-1
 14 21 l 1,1,2
 68 21 68 21 77 41 c 1,3,-1
 77 266 l 1,4,-1
 37 233 l 1,5,-1
 15 259 l 1,6,-1
 77 310 l 1,7,-1
 77 560 l 1,8,9
 23 564 23 564 14 564 c 1,10,-1
 14 587 l 1,11,12
 33 587 33 587 106 608.5 c 128,-1,13
 179 630 179 630 202 630 c 1,14,-1
 202 412 l 1,15,-1
 247 449 l 1,16,-1
 269 423 l 1,17,-1
 202 368 l 1,18,-1
 202 41 l 1,19,20
 211 21 211 21 265 21 c 1,21,-1
 265 0 l 1,22,-1
 14 0 l 1,0,-1
EndSplineSet
EndChar

StartChar: Nacute
Encoding: 323 323 260
Width: 623
GlyphClass: 2
Flags: W
LayerCount: 2
Fore
SplineSet
322 782 m 1,0,-1
 448 782 l 1,1,-1
 314 620 l 1,2,-1
 268 620 l 1,3,-1
 322 782 l 1,0,-1
36 0 m 1,4,-1
 36 21 l 1,5,6
 90 21 90 21 99 41 c 1,7,-1
 99 544 l 1,8,9
 90 564 90 564 36 564 c 1,10,-1
 36 585 l 1,11,-1
 205 585 l 1,12,-1
 501 180 l 1,13,-1
 501 544 l 1,14,15
 492 564 492 564 438 564 c 1,16,-1
 438 585 l 1,17,-1
 598 585 l 1,18,-1
 598 564 l 1,19,20
 544 564 544 564 535 544 c 1,21,-1
 535 0 l 1,22,-1
 491 0 l 1,23,-1
 133 495 l 1,24,-1
 133 41 l 1,25,26
 142 21 142 21 196 21 c 1,27,-1
 196 0 l 1,28,-1
 36 0 l 1,4,-1
EndSplineSet
EndChar

StartChar: nacute
Encoding: 324 324 261
Width: 597
GlyphClass: 2
Flags: W
LayerCount: 2
Fore
SplineSet
322 678 m 1,0,-1
 448 678 l 1,1,-1
 314 516 l 1,2,-1
 268 516 l 1,3,-1
 322 678 l 1,0,-1
24 0 m 1,4,-1
 24 21 l 1,5,6
 78 21 78 21 87 41 c 1,7,-1
 87 380 l 1,8,9
 33 384 33 384 24 384 c 1,10,-1
 24 407 l 1,11,12
 43 407 43 407 116 428.5 c 128,-1,13
 189 450 189 450 212 450 c 1,14,-1
 212 408 l 1,15,16
 262 450 262 450 322 450 c 0,17,18
 418 450 418 450 471 414.5 c 128,-1,19
 524 379 524 379 524 308 c 2,20,-1
 524 41 l 1,21,22
 533 21 533 21 587 21 c 1,23,-1
 587 0 l 1,24,-1
 336 0 l 1,25,-1
 336 21 l 1,26,27
 390 21 390 21 399 41 c 1,28,-1
 399 315 l 2,29,30
 399 360 399 360 378.5 388 c 128,-1,31
 358 416 358 416 316 416 c 0,32,33
 254 416 254 416 212 376 c 1,34,-1
 212 41 l 1,35,36
 221 21 221 21 275 21 c 1,37,-1
 275 0 l 1,38,-1
 24 0 l 1,4,-1
EndSplineSet
EndChar

StartChar: Ncommaaccent
Encoding: 325 325 262
Width: 622
GlyphClass: 2
Flags: W
LayerCount: 2
Fore
SplineSet
315 -130 m 0,0,1
 290 -130 290 -130 274.5 -117 c 128,-1,2
 259 -104 259 -104 259 -81 c 0,3,4
 259 -60 259 -60 271.5 -48 c 128,-1,5
 284 -36 284 -36 293 -34.5 c 128,-1,6
 302 -33 302 -33 310 -33 c 0,7,8
 351 -33 351 -33 379 -58.5 c 128,-1,9
 407 -84 407 -84 407 -125 c 0,10,11
 407 -214 407 -214 273 -255 c 1,12,-1
 273 -216 l 1,13,14
 300 -213 300 -213 325.5 -189.5 c 128,-1,15
 351 -166 351 -166 351 -137 c 0,16,17
 351 -117 351 -117 346 -117 c 1,18,-1
 342 -120 l 2,19,20
 337 -124 337 -124 330 -127 c 128,-1,21
 323 -130 323 -130 315 -130 c 0,0,1
35 0 m 1,22,-1
 35 21 l 1,23,24
 89 21 89 21 98 41 c 1,25,-1
 98 544 l 1,26,27
 89 564 89 564 35 564 c 1,28,-1
 35 585 l 1,29,-1
 204 585 l 1,30,-1
 500 180 l 1,31,-1
 500 544 l 1,32,33
 491 564 491 564 437 564 c 1,34,-1
 437 585 l 1,35,-1
 597 585 l 1,36,-1
 597 564 l 1,37,38
 543 564 543 564 534 544 c 1,39,-1
 534 0 l 1,40,-1
 490 0 l 1,41,-1
 132 495 l 1,42,-1
 132 41 l 1,43,44
 141 21 141 21 195 21 c 1,45,-1
 195 0 l 1,46,-1
 35 0 l 1,22,-1
EndSplineSet
EndChar

StartChar: ncommaaccent
Encoding: 326 326 263
Width: 597
GlyphClass: 2
Flags: W
LayerCount: 2
Fore
SplineSet
305 -130 m 0,0,1
 280 -130 280 -130 264.5 -117 c 128,-1,2
 249 -104 249 -104 249 -81 c 0,3,4
 249 -60 249 -60 261.5 -48 c 128,-1,5
 274 -36 274 -36 283 -34.5 c 128,-1,6
 292 -33 292 -33 300 -33 c 0,7,8
 341 -33 341 -33 369 -58.5 c 128,-1,9
 397 -84 397 -84 397 -125 c 0,10,11
 397 -214 397 -214 263 -255 c 1,12,-1
 263 -216 l 1,13,14
 290 -213 290 -213 315.5 -189.5 c 128,-1,15
 341 -166 341 -166 341 -137 c 0,16,17
 341 -117 341 -117 336 -117 c 1,18,-1
 332 -120 l 2,19,20
 327 -124 327 -124 320 -127 c 128,-1,21
 313 -130 313 -130 305 -130 c 0,0,1
24 0 m 1,22,-1
 24 21 l 1,23,24
 78 21 78 21 87 41 c 1,25,-1
 87 380 l 1,26,27
 33 384 33 384 24 384 c 1,28,-1
 24 407 l 1,29,30
 43 407 43 407 116 428.5 c 128,-1,31
 189 450 189 450 212 450 c 1,32,-1
 212 408 l 1,33,34
 262 450 262 450 322 450 c 0,35,36
 418 450 418 450 471 414.5 c 128,-1,37
 524 379 524 379 524 308 c 2,38,-1
 524 41 l 1,39,40
 533 21 533 21 587 21 c 1,41,-1
 587 0 l 1,42,-1
 336 0 l 1,43,-1
 336 21 l 1,44,45
 390 21 390 21 399 41 c 1,46,-1
 399 315 l 2,47,48
 399 360 399 360 378.5 388 c 128,-1,49
 358 416 358 416 316 416 c 0,50,51
 254 416 254 416 212 376 c 1,52,-1
 212 41 l 1,53,54
 221 21 221 21 275 21 c 1,55,-1
 275 0 l 1,56,-1
 24 0 l 1,22,-1
EndSplineSet
EndChar

StartChar: Ncaron
Encoding: 327 327 264
Width: 623
GlyphClass: 2
Flags: W
LayerCount: 2
Fore
SplineSet
288 620 m 1,0,-1
 194 782 l 1,1,-1
 230 782 l 1,2,-1
 313 705 l 1,3,-1
 396 782 l 1,4,-1
 432 782 l 1,5,-1
 338 620 l 1,6,-1
 288 620 l 1,0,-1
36 0 m 1,7,-1
 36 21 l 1,8,9
 90 21 90 21 99 41 c 1,10,-1
 99 544 l 1,11,12
 90 564 90 564 36 564 c 1,13,-1
 36 585 l 1,14,-1
 205 585 l 1,15,-1
 501 180 l 1,16,-1
 501 544 l 1,17,18
 492 564 492 564 438 564 c 1,19,-1
 438 585 l 1,20,-1
 598 585 l 1,21,-1
 598 564 l 1,22,23
 544 564 544 564 535 544 c 1,24,-1
 535 0 l 1,25,-1
 491 0 l 1,26,-1
 133 495 l 1,27,-1
 133 41 l 1,28,29
 142 21 142 21 196 21 c 1,30,-1
 196 0 l 1,31,-1
 36 0 l 1,7,-1
EndSplineSet
EndChar

StartChar: ncaron
Encoding: 328 328 265
Width: 597
GlyphClass: 2
Flags: W
LayerCount: 2
Fore
SplineSet
288 516 m 1,0,-1
 194 678 l 1,1,-1
 230 678 l 1,2,-1
 313 601 l 1,3,-1
 396 678 l 1,4,-1
 432 678 l 1,5,-1
 338 516 l 1,6,-1
 288 516 l 1,0,-1
24 0 m 1,7,-1
 24 21 l 1,8,9
 78 21 78 21 87 41 c 1,10,-1
 87 380 l 1,11,12
 33 384 33 384 24 384 c 1,13,-1
 24 407 l 1,14,15
 43 407 43 407 116 428.5 c 128,-1,16
 189 450 189 450 212 450 c 1,17,-1
 212 408 l 1,18,19
 262 450 262 450 322 450 c 0,20,21
 418 450 418 450 471 414.5 c 128,-1,22
 524 379 524 379 524 308 c 2,23,-1
 524 41 l 1,24,25
 533 21 533 21 587 21 c 1,26,-1
 587 0 l 1,27,-1
 336 0 l 1,28,-1
 336 21 l 1,29,30
 390 21 390 21 399 41 c 1,31,-1
 399 315 l 2,32,33
 399 360 399 360 378.5 388 c 128,-1,34
 358 416 358 416 316 416 c 0,35,36
 254 416 254 416 212 376 c 1,37,-1
 212 41 l 1,38,39
 221 21 221 21 275 21 c 1,40,-1
 275 0 l 1,41,-1
 24 0 l 1,7,-1
EndSplineSet
EndChar

StartChar: napostrophe
Encoding: 329 329 266
Width: 597
GlyphClass: 2
Flags: W
LayerCount: 2
Fore
SplineSet
3 573 m 0,0,1
 -22 573 -22 573 -37.5 586 c 128,-1,2
 -53 599 -53 599 -53 622 c 0,3,4
 -53 643 -53 643 -40.5 655 c 128,-1,5
 -28 667 -28 667 -19 668.5 c 128,-1,6
 -10 670 -10 670 -2 670 c 0,7,8
 39 670 39 670 67 644.5 c 128,-1,9
 95 619 95 619 95 578 c 0,10,11
 95 489 95 489 -39 448 c 1,12,-1
 -39 487 l 1,13,14
 -12 490 -12 490 13.5 513.5 c 128,-1,15
 39 537 39 537 39 566 c 0,16,17
 39 586 39 586 34 586 c 1,18,-1
 30 583 l 2,19,20
 25 580 25 580 18 576.5 c 128,-1,21
 11 573 11 573 3 573 c 0,0,1
24 0 m 1,22,-1
 24 21 l 1,23,24
 78 21 78 21 87 41 c 1,25,-1
 87 380 l 1,26,27
 33 384 33 384 24 384 c 1,28,-1
 24 407 l 1,29,30
 43 407 43 407 116 428.5 c 128,-1,31
 189 450 189 450 212 450 c 1,32,-1
 212 408 l 1,33,34
 262 450 262 450 322 450 c 0,35,36
 418 450 418 450 471 414.5 c 128,-1,37
 524 379 524 379 524 308 c 2,38,-1
 524 41 l 1,39,40
 533 21 533 21 587 21 c 1,41,-1
 587 0 l 1,42,-1
 336 0 l 1,43,-1
 336 21 l 1,44,45
 390 21 390 21 399 41 c 1,46,-1
 399 315 l 2,47,48
 399 360 399 360 378.5 388 c 128,-1,49
 358 416 358 416 316 416 c 0,50,51
 254 416 254 416 212 376 c 1,52,-1
 212 41 l 1,53,54
 221 21 221 21 275 21 c 1,55,-1
 275 0 l 1,56,-1
 24 0 l 1,22,-1
EndSplineSet
EndChar

StartChar: Eng
Encoding: 330 330 267
Width: 674
GlyphClass: 2
Flags: W
LayerCount: 2
Fore
SplineSet
36 0 m 1,0,-1
 36 21 l 1,1,2
 90 21 90 21 99 41 c 1,3,-1
 99 544 l 1,4,5
 90 564 90 564 36 564 c 1,6,-1
 36 585 l 1,7,-1
 226 585 l 1,8,-1
 226 507 l 1,9,10
 287 595 287 595 372 595 c 0,11,12
 479 595 479 595 556.5 520.5 c 128,-1,13
 634 446 634 446 634 310 c 0,14,15
 634 157 634 157 578 73.5 c 128,-1,16
 522 -10 522 -10 438 -10 c 0,17,18
 390 -10 390 -10 348 8 c 128,-1,19
 306 26 306 26 306 58 c 0,20,21
 306 72 306 72 319 83 c 128,-1,22
 332 94 332 94 348 94 c 0,23,24
 371 94 371 94 394 50 c 0,25,26
 401 37 401 37 403.5 32.5 c 128,-1,27
 406 28 406 28 412 24 c 128,-1,28
 418 20 418 20 428 20 c 0,29,30
 472 20 472 20 489.5 81 c 128,-1,31
 507 142 507 142 507 282 c 0,32,33
 507 561 507 561 362 561 c 0,34,35
 323 561 323 561 286.5 528 c 128,-1,36
 250 495 250 495 226 442 c 1,37,-1
 226 41 l 1,38,39
 235 21 235 21 289 21 c 1,40,-1
 289 0 l 1,41,-1
 36 0 l 1,0,-1
EndSplineSet
EndChar

StartChar: eng
Encoding: 331 331 268
Width: 578
GlyphClass: 2
Flags: W
LayerCount: 2
Fore
SplineSet
24 0 m 1,0,-1
 24 21 l 1,1,2
 78 21 78 21 87 41 c 1,3,-1
 87 380 l 1,4,5
 33 384 33 384 24 384 c 1,6,-1
 24 407 l 1,7,8
 43 407 43 407 116 428.5 c 128,-1,9
 189 450 189 450 212 450 c 1,10,-1
 212 408 l 1,11,12
 262 450 262 450 322 450 c 0,13,14
 418 450 418 450 471 414.5 c 128,-1,15
 524 379 524 379 524 308 c 2,16,-1
 524 -44 l 2,17,18
 524 -125 524 -125 482.5 -162.5 c 128,-1,19
 441 -200 441 -200 382 -200 c 0,20,21
 233 -200 233 -200 233 -132 c 0,22,23
 233 -118 233 -118 246 -107 c 128,-1,24
 259 -96 259 -96 275 -96 c 0,25,26
 298 -96 298 -96 321 -140 c 0,27,28
 336 -170 336 -170 363 -170 c 0,29,30
 399 -170 399 -170 399 -58 c 2,31,-1
 399 315 l 2,32,33
 399 360 399 360 378.5 388 c 128,-1,34
 358 416 358 416 316 416 c 0,35,36
 254 416 254 416 212 376 c 1,37,-1
 212 41 l 1,38,39
 221 21 221 21 275 21 c 1,40,-1
 275 0 l 1,41,-1
 24 0 l 1,0,-1
EndSplineSet
EndChar

StartChar: Omacron
Encoding: 332 332 269
Width: 664
GlyphClass: 2
Flags: W
LayerCount: 2
Fore
SplineSet
198 688 m 1,0,-1
 462 688 l 1,1,-1
 462 634 l 1,2,-1
 198 634 l 1,3,-1
 198 688 l 1,0,-1
170 300 m 0,4,5
 170 232 170 232 184.5 173 c 128,-1,6
 199 114 199 114 238 69 c 128,-1,7
 277 24 277 24 336 24 c 0,8,9
 381 24 381 24 413 47.5 c 128,-1,10
 445 71 445 71 462 111 c 128,-1,11
 479 151 479 151 486.5 193.5 c 128,-1,12
 494 236 494 236 494 284 c 0,13,14
 494 351 494 351 479 411 c 128,-1,15
 464 471 464 471 425 516 c 128,-1,16
 386 561 386 561 328 561 c 0,17,18
 283 561 283 561 251 537 c 128,-1,19
 219 513 219 513 202 473 c 128,-1,20
 185 433 185 433 177.5 390.5 c 128,-1,21
 170 348 170 348 170 300 c 0,4,5
35 292 m 128,-1,23
 35 415 35 415 122 505 c 128,-1,24
 209 595 209 595 332 595 c 128,-1,25
 455 595 455 595 542 505 c 128,-1,26
 629 415 629 415 629 292 c 128,-1,27
 629 169 629 169 541.5 79.5 c 128,-1,28
 454 -10 454 -10 332 -10 c 0,29,30
 208 -10 208 -10 121.5 79.5 c 128,-1,22
 35 169 35 169 35 292 c 128,-1,23
EndSplineSet
EndChar

